{"glyphs":{"0":{"ha":884,"x_min":20,"x_max":864,"o":"m 370 -13 q 104 95 188 -13 q 49 400 20 202 l 77 605 q 220 914 106 804 q 516 1023 335 1023 q 780 914 697 1023 q 835 605 864 804 l 807 400 q 665 95 778 202 q 370 -13 552 -13 m 394 164 q 520 222 477 164 q 582 426 562 280 l 605 580 q 599 787 625 727 q 490 846 573 846 q 364 787 407 846 q 302 580 322 727 l 279 426 q 285 222 259 280 q 394 164 311 164 m 427 394 q 363 408 386 394 q 345 461 340 422 l 357 548 q 390 600 362 586 q 457 615 417 615 q 520 600 497 615 q 538 548 543 586 l 525 461 q 493 408 520 422 q 427 394 466 394 z "},"1":{"ha":884,"x_min":30,"x_max":777,"o":"m 30 0 l 57 189 l 309 189 l 393 783 l 356 783 q 253 649 324 699 q 101 593 182 598 l 115 780 q 301 854 215 790 q 428 1010 388 917 l 677 1010 l 562 189 l 777 189 l 750 0 l 30 0 z "},"2":{"ha":884,"x_min":-8,"x_max":860,"o":"m -8 0 l 21 208 q 98 396 39 331 q 304 520 158 462 l 433 571 q 540 620 505 598 q 583 705 574 641 l 587 725 q 571 819 596 793 q 490 846 545 846 q 404 816 433 846 q 355 693 375 787 l 105 706 q 234 948 138 874 q 514 1023 330 1023 q 783 945 707 1023 q 840 723 860 867 l 832 673 q 740 501 816 558 q 561 403 664 443 l 431 352 q 307 291 331 313 q 274 211 283 269 l 271 189 l 777 189 l 750 0 l -8 0 z "},"3":{"ha":884,"x_min":9,"x_max":851,"o":"m 374 -13 q 92 64 176 -13 q 21 293 9 140 l 275 306 q 299 195 271 216 q 405 174 327 174 q 498 201 467 174 q 537 283 529 227 l 542 317 q 522 407 551 380 q 432 434 494 434 l 293 434 l 319 620 l 458 620 q 540 637 515 620 q 571 702 564 654 l 577 742 q 561 814 583 792 q 485 836 539 836 q 405 813 433 836 q 360 730 376 789 l 110 742 q 230 958 139 893 q 503 1023 322 1023 q 773 963 696 1023 q 833 769 851 903 l 830 746 q 756 610 817 659 q 616 551 694 561 l 611 514 q 747 452 689 508 q 792 298 806 396 l 789 277 q 658 50 766 112 q 374 -13 549 -13 z "},"4":{"ha":884,"x_min":14,"x_max":872,"o":"m 254 423 l 468 423 l 515 755 l 254 423 m 847 246 l 696 246 l 662 0 l 409 0 l 443 246 l 14 246 l 39 423 l 494 1010 l 803 1010 l 721 423 l 872 423 l 847 246 z "},"5":{"ha":884,"x_min":8,"x_max":854,"o":"m 369 -13 q 87 61 167 -13 q 24 317 8 134 l 279 330 q 301 196 275 227 q 394 164 326 164 q 501 198 472 164 q 542 311 530 232 l 547 346 q 530 448 556 415 q 404 480 505 480 l 85 480 l 159 1010 l 854 1010 l 830 833 l 388 833 l 364 668 l 521 668 q 753 599 681 668 q 804 390 824 530 l 788 273 q 671 69 771 152 q 369 -13 571 -13 z "},"6":{"ha":884,"x_min":15,"x_max":845,"o":"m 370 -13 q 97 76 179 -13 q 42 348 15 165 l 85 653 q 218 932 111 841 q 518 1023 324 1023 q 759 961 684 1023 q 845 753 835 899 l 577 723 q 551 823 571 801 q 471 846 530 846 q 382 802 413 846 q 337 652 351 758 l 322 547 l 335 547 q 424 607 371 582 q 568 631 477 631 q 758 557 697 631 q 797 331 818 482 l 793 303 q 665 66 770 144 q 370 -13 561 -13 m 393 164 q 497 204 465 164 q 538 306 529 244 l 540 322 q 530 436 551 394 q 437 479 509 479 q 333 436 365 479 q 290 322 301 394 l 288 306 q 299 199 278 234 q 393 164 321 164 z "},"7":{"ha":884,"x_min":107,"x_max":891,"o":"m 182 0 q 364 451 279 283 q 612 821 449 619 l 107 821 l 134 1010 l 891 1010 l 865 821 q 616 420 703 600 q 460 0 529 240 l 182 0 z "},"8":{"ha":884,"x_min":10,"x_max":851,"o":"m 370 -13 q 95 55 179 -13 q 29 261 10 122 l 33 289 q 111 444 47 384 q 275 514 176 505 l 280 551 q 156 608 202 558 q 121 740 110 658 l 128 780 q 241 963 144 903 q 515 1023 337 1023 q 772 963 693 1023 q 835 780 851 903 l 828 740 q 757 608 817 658 q 616 551 697 558 l 611 514 q 756 444 708 505 q 790 289 804 383 l 787 261 q 664 55 768 122 q 370 -13 561 -13 m 458 619 q 537 640 508 619 q 573 715 566 660 l 577 742 q 561 816 585 795 q 489 836 538 836 q 411 816 439 836 q 375 742 383 795 l 371 715 q 386 640 364 660 q 458 619 409 619 m 395 174 q 503 208 473 174 q 539 299 532 241 l 542 314 q 530 407 549 372 q 433 442 511 442 q 326 407 355 442 q 289 314 297 372 l 287 299 q 298 208 279 241 q 395 174 317 174 z "},"9":{"ha":884,"x_min":40,"x_max":869,"o":"m 447 532 q 552 574 519 532 q 595 688 585 616 l 596 705 q 585 811 606 777 q 491 846 563 846 q 387 806 419 846 q 346 705 355 766 l 345 688 q 355 574 335 616 q 447 532 375 532 m 367 -13 q 127 51 203 -13 q 40 258 51 115 l 308 287 q 333 187 313 210 q 413 164 354 164 q 503 208 473 164 q 548 359 533 253 l 563 463 l 551 463 q 460 403 514 427 q 316 379 407 379 q 126 453 184 379 q 88 679 67 528 l 92 707 q 219 944 114 866 q 515 1023 324 1023 q 787 934 706 1023 q 843 662 869 845 l 801 357 q 667 78 774 169 q 367 -13 561 -13 z "},"\u0000":{"ha":0,"x_min":0,"x_max":0,"o":""},"\r":{"ha":0,"x_min":0,"x_max":0,"o":""}," ":{"ha":884,"x_min":0,"x_max":0,"o":""}," ":{"ha":884,"x_min":0,"x_max":0,"o":""},"A":{"ha":884,"x_min":-58,"x_max":802,"o":"m 528 417 l 494 828 l 332 417 l 528 417 m 564 0 l 544 227 l 258 227 l 169 0 l -58 0 l 359 1010 l 668 1010 l 802 0 l 564 0 z "},"À":{"ha":884,"x_min":-58,"x_max":802,"o":"m 0 0 m 528 417 l 494 828 l 332 417 l 528 417 m 564 0 l 544 227 l 258 227 l 169 0 l -58 0 l 359 1010 l 668 1010 l 802 0 l 564 0 m 501 1136 l 253 1389 l 568 1389 l 667 1136 l 501 1136 z "},"Á":{"ha":884,"x_min":-58,"x_max":841,"o":"m 0 0 m 528 417 l 494 828 l 332 417 l 528 417 m 564 0 l 544 227 l 258 227 l 169 0 l -58 0 l 359 1010 l 668 1010 l 802 0 l 564 0 m 356 1136 l 525 1389 l 841 1389 l 521 1136 l 356 1136 z "},"Â":{"ha":884,"x_min":-58,"x_max":867,"o":"m 0 0 m 528 417 l 494 828 l 332 417 l 528 417 m 564 0 l 544 227 l 258 227 l 169 0 l -58 0 l 359 1010 l 668 1010 l 802 0 l 564 0 m 271 1116 l 208 1222 l 468 1423 l 660 1423 l 867 1222 l 775 1117 l 540 1250 l 271 1116 z "},"Ã":{"ha":884,"x_min":-58,"x_max":884,"o":"m 0 0 m 528 417 l 494 828 l 332 417 l 528 417 m 564 0 l 544 227 l 258 227 l 169 0 l -58 0 l 359 1010 l 668 1010 l 802 0 l 564 0 m 649 1149 q 557 1168 587 1149 q 509 1208 527 1187 q 477 1249 492 1231 q 438 1268 462 1268 q 399 1249 418 1268 q 372 1173 380 1231 l 371 1162 l 211 1162 l 213 1181 q 292 1356 229 1285 q 448 1427 355 1427 q 539 1408 509 1427 q 587 1367 568 1389 q 621 1326 606 1345 q 657 1307 635 1307 q 696 1325 677 1307 q 722 1402 715 1343 l 723 1413 l 884 1413 l 881 1394 q 804 1220 867 1290 q 649 1149 741 1149 z "},"Ä":{"ha":884,"x_min":-58,"x_max":836,"o":"m 0 0 m 528 417 l 494 828 l 332 417 l 528 417 m 564 0 l 544 227 l 258 227 l 169 0 l -58 0 l 359 1010 l 668 1010 l 802 0 l 564 0 m 360 1124 q 274 1145 306 1124 q 250 1220 242 1167 l 253 1239 q 298 1316 260 1293 q 390 1338 336 1338 q 477 1316 446 1338 q 500 1239 508 1293 l 497 1220 q 452 1145 490 1167 q 360 1124 414 1124 m 688 1124 q 602 1145 634 1124 q 578 1220 571 1167 l 581 1239 q 626 1316 588 1293 q 718 1338 664 1338 q 805 1316 774 1338 q 828 1239 836 1293 l 826 1220 q 780 1145 818 1167 q 688 1124 742 1124 z "},"Å":{"ha":884,"x_min":-58,"x_max":833,"o":"m 0 0 m 528 417 l 494 828 l 332 417 l 528 417 m 564 0 l 544 227 l 258 227 l 169 0 l -58 0 l 359 1010 l 668 1010 l 802 0 l 564 0 m 521 1105 q 336 1153 403 1105 q 284 1301 270 1201 l 289 1341 q 383 1491 303 1442 q 582 1540 463 1540 q 768 1491 702 1540 q 819 1341 833 1442 l 814 1301 q 720 1153 801 1201 q 521 1105 640 1105 m 538 1220 q 608 1238 582 1220 q 640 1301 634 1256 l 645 1341 q 631 1405 652 1384 q 567 1426 611 1426 q 496 1405 521 1426 q 463 1341 470 1384 l 458 1301 q 472 1238 452 1256 q 538 1220 492 1220 z "},"Ā":{"ha":884,"x_min":-58,"x_max":841,"o":"m 0 0 m 528 417 l 494 828 l 332 417 l 528 417 m 564 0 l 544 227 l 258 227 l 169 0 l -58 0 l 359 1010 l 668 1010 l 802 0 l 564 0 m 246 1168 l 273 1357 l 841 1357 l 814 1168 l 246 1168 z "},"Ă":{"ha":884,"x_min":-58,"x_max":904,"o":"m 0 0 m 528 417 l 494 828 l 332 417 l 528 417 m 564 0 l 544 227 l 258 227 l 169 0 l -58 0 l 359 1010 l 668 1010 l 802 0 l 564 0 m 524 1128 q 282 1202 354 1128 q 230 1431 210 1277 l 432 1431 q 447 1311 422 1345 q 545 1278 472 1278 q 654 1311 619 1278 q 702 1431 689 1345 l 904 1431 q 788 1202 881 1277 q 524 1128 694 1128 z "},"Ą":{"ha":884,"x_min":-58,"x_max":866,"o":"m 0 0 m 528 417 l 494 828 l 332 417 l 528 417 m 564 0 l 544 227 l 258 227 l 169 0 l -58 0 l 359 1010 l 668 1010 l 802 0 l 564 0 m 681 -283 q 519 -242 574 -283 q 475 -121 463 -202 q 559 20 486 -38 q 710 97 631 77 l 734 29 q 674 -21 687 3 q 659 -67 662 -45 q 674 -116 654 -100 q 744 -131 693 -131 q 797 -128 766 -131 q 866 -119 828 -125 l 845 -265 q 758 -278 799 -274 q 681 -283 716 -283 z "},"Ǻ":{"ha":884,"x_min":-58,"x_max":929,"o":"m 0 0 m 528 417 l 494 828 l 332 417 l 528 417 m 564 0 l 544 227 l 258 227 l 169 0 l -58 0 l 359 1010 l 668 1010 l 802 0 l 564 0 m 521 1105 q 336 1153 403 1105 q 284 1301 270 1201 l 289 1341 q 383 1491 303 1442 q 582 1540 463 1540 q 768 1491 702 1540 q 819 1341 833 1442 l 814 1301 q 720 1153 801 1201 q 521 1105 640 1105 m 538 1220 q 608 1238 582 1220 q 640 1301 634 1256 l 645 1341 q 631 1405 652 1384 q 567 1426 611 1426 q 496 1405 521 1426 q 463 1341 470 1384 l 458 1301 q 472 1238 452 1256 q 538 1220 492 1220 m 444 1515 l 614 1768 l 929 1768 l 610 1515 l 444 1515 z "},"B":{"ha":884,"x_min":-8,"x_max":848,"o":"m -8 0 l 134 1010 l 530 1010 q 775 952 701 1010 q 831 773 848 894 l 824 730 q 772 607 813 646 q 650 553 731 567 l 644 516 q 768 458 729 508 q 797 332 807 408 l 788 266 q 670 66 769 131 q 385 0 572 0 l -8 0 m 330 606 l 448 606 q 535 625 508 606 q 569 691 563 644 l 578 751 q 563 815 585 797 q 481 833 540 833 l 362 833 l 330 606 m 270 177 l 384 177 q 494 199 460 177 q 537 279 529 222 l 545 345 q 525 422 553 399 q 420 444 496 444 l 307 444 l 270 177 z "},"":{"ha":884,"x_min":-8,"x_max":848,"o":"m -8 0 l 134 1010 l 530 1010 q 775 952 701 1010 q 831 773 848 894 l 824 730 q 772 607 813 646 q 650 553 731 567 l 644 516 q 768 458 729 508 q 797 332 807 408 l 788 266 q 670 66 769 131 q 385 0 572 0 l -8 0 m 330 606 l 448 606 q 535 625 508 606 q 569 691 563 644 l 578 751 q 563 815 585 797 q 481 833 540 833 l 362 833 l 330 606 m 270 177 l 384 177 q 494 199 460 177 q 537 279 529 222 l 545 345 q 525 422 553 399 q 420 444 496 444 l 307 444 l 270 177 z "},"C":{"ha":884,"x_min":14,"x_max":886,"o":"m 383 -13 q 100 69 187 -13 q 37 312 14 150 l 90 693 q 223 941 114 859 q 529 1023 333 1023 q 807 937 729 1023 q 867 655 886 851 l 614 643 q 600 797 622 760 q 501 833 578 833 q 389 795 427 833 q 338 667 351 756 l 293 337 q 307 214 280 251 q 409 177 335 177 q 517 213 485 177 q 573 362 549 249 l 824 350 q 686 71 788 155 q 383 -13 583 -13 z "},"Ç":{"ha":884,"x_min":14,"x_max":886,"o":"m 14 0 m 383 -13 q 100 69 187 -13 q 37 312 14 150 l 90 693 q 223 941 114 859 q 529 1023 333 1023 q 807 937 729 1023 q 867 655 886 851 l 614 643 q 600 797 622 760 q 501 833 578 833 q 389 795 427 833 q 338 667 351 756 l 293 337 q 307 214 280 251 q 409 177 335 177 q 517 213 485 177 q 573 362 549 249 l 824 350 q 686 71 788 155 q 383 -13 583 -13 m 352 0 l 385 53 q 556 8 492 43 q 607 -111 619 -27 q 503 -246 593 -206 q 309 -285 413 -285 q 117 -246 188 -285 q 52 -114 45 -206 l 266 -101 q 277 -134 265 -125 q 319 -144 289 -144 q 372 -131 354 -144 q 398 -74 391 -117 q 393 -26 402 -43 q 352 0 384 -9 z "},"Ć":{"ha":884,"x_min":14,"x_max":886,"o":"m 14 0 m 383 -13 q 100 69 187 -13 q 37 312 14 150 l 90 693 q 223 941 114 859 q 529 1023 333 1023 q 807 937 729 1023 q 867 655 886 851 l 614 643 q 600 797 622 760 q 501 833 578 833 q 389 795 427 833 q 338 667 351 756 l 293 337 q 307 214 280 251 q 409 177 335 177 q 517 213 485 177 q 573 362 549 249 l 824 350 q 686 71 788 155 q 383 -13 583 -13 m 400 1136 l 569 1389 l 885 1389 l 566 1136 l 400 1136 z "},"Ĉ":{"ha":884,"x_min":14,"x_max":886,"o":"m 14 0 m 290 1116 l 227 1222 l 487 1423 l 679 1423 l 886 1222 l 794 1117 l 559 1250 l 290 1116 m 383 -13 q 100 69 187 -13 q 37 312 14 150 l 90 693 q 223 941 114 859 q 529 1023 333 1023 q 807 937 729 1023 q 867 655 886 851 l 614 643 q 600 797 622 760 q 501 833 578 833 q 389 795 427 833 q 338 667 351 756 l 293 337 q 307 214 280 251 q 409 177 335 177 q 517 213 485 177 q 573 362 549 249 l 824 350 q 686 71 788 155 q 383 -13 583 -13 z "},"Ċ":{"ha":884,"x_min":14,"x_max":886,"o":"m 14 0 m 383 -13 q 100 69 187 -13 q 37 312 14 150 l 90 693 q 223 941 114 859 q 529 1023 333 1023 q 807 937 729 1023 q 867 655 886 851 l 614 643 q 600 797 622 760 q 501 833 578 833 q 389 795 427 833 q 338 667 351 756 l 293 337 q 307 214 280 251 q 409 177 335 177 q 517 213 485 177 q 573 362 549 249 l 824 350 q 686 71 788 155 q 383 -13 583 -13 m 543 1124 q 429 1145 471 1124 q 395 1220 388 1167 l 398 1239 q 453 1316 405 1293 q 573 1338 501 1338 q 687 1316 645 1338 q 721 1239 729 1293 l 718 1220 q 662 1145 711 1167 q 543 1124 614 1124 z "},"Č":{"ha":884,"x_min":14,"x_max":903,"o":"m 14 0 m 451 1141 l 244 1342 l 336 1447 l 571 1314 l 840 1448 l 903 1342 l 643 1141 l 451 1141 m 383 -13 q 100 69 187 -13 q 37 312 14 150 l 90 693 q 223 941 114 859 q 529 1023 333 1023 q 807 937 729 1023 q 867 655 886 851 l 614 643 q 600 797 622 760 q 501 833 578 833 q 389 795 427 833 q 338 667 351 756 l 293 337 q 307 214 280 251 q 409 177 335 177 q 517 213 485 177 q 573 362 549 249 l 824 350 q 686 71 788 155 q 383 -13 583 -13 z "},"D":{"ha":884,"x_min":-8,"x_max":864,"o":"m -8 0 l 134 1010 l 514 1010 q 777 910 691 1010 q 841 643 864 809 l 801 362 q 664 98 778 197 q 371 0 549 0 l -8 0 m 271 189 l 372 189 q 497 232 458 189 q 552 388 537 275 l 585 617 q 574 777 601 732 q 461 821 547 821 l 360 821 l 271 189 z "},"Ď":{"ha":884,"x_min":-8,"x_max":884,"o":"m 0 0 m 432 1141 l 225 1342 l 317 1447 l 552 1314 l 821 1448 l 884 1342 l 624 1141 l 432 1141 m -8 0 l 134 1010 l 514 1010 q 777 910 691 1010 q 841 643 864 809 l 801 362 q 664 98 778 197 q 371 0 549 0 l -8 0 m 271 189 l 372 189 q 497 232 458 189 q 552 388 537 275 l 585 617 q 574 777 601 732 q 461 821 547 821 l 360 821 l 271 189 z "},"E":{"ha":884,"x_min":-8,"x_max":891,"o":"m -8 0 l 134 1010 l 891 1010 l 865 821 l 360 821 l 333 631 l 775 631 l 749 442 l 307 442 l 271 189 l 777 189 l 750 0 l -8 0 z "},"":{"ha":884,"x_min":-8,"x_max":891,"o":"m -8 0 l 134 1010 l 891 1010 l 865 821 l 360 821 l 333 631 l 775 631 l 749 442 l 307 442 l 271 189 l 777 189 l 750 0 l -8 0 z "},"È":{"ha":884,"x_min":-8,"x_max":891,"o":"m 0 0 m 539 1136 l 290 1389 l 606 1389 l 705 1136 l 539 1136 m -8 0 l 134 1010 l 891 1010 l 865 821 l 360 821 l 333 631 l 775 631 l 749 442 l 307 442 l 271 189 l 777 189 l 750 0 l -8 0 z "},"É":{"ha":884,"x_min":-8,"x_max":891,"o":"m 0 0 m 394 1133 l 563 1385 l 879 1385 l 559 1133 l 394 1133 m -8 0 l 134 1010 l 891 1010 l 865 821 l 360 821 l 333 631 l 775 631 l 749 442 l 307 442 l 271 189 l 777 189 l 750 0 l -8 0 z "},"Ê":{"ha":884,"x_min":-8,"x_max":891,"o":"m 0 0 m 284 1116 l 221 1222 l 481 1423 l 673 1423 l 880 1222 l 788 1117 l 553 1250 l 284 1116 m -8 0 l 134 1010 l 891 1010 l 865 821 l 360 821 l 333 631 l 775 631 l 749 442 l 307 442 l 271 189 l 777 189 l 750 0 l -8 0 z "},"Ë":{"ha":884,"x_min":-8,"x_max":891,"o":"m 0 0 m -8 0 l 134 1010 l 891 1010 l 865 821 l 360 821 l 333 631 l 775 631 l 749 442 l 307 442 l 271 189 l 777 189 l 750 0 l -8 0 m 381 1124 q 295 1145 327 1124 q 271 1220 264 1167 l 274 1239 q 319 1316 282 1293 q 412 1338 357 1338 q 498 1316 467 1338 q 521 1239 529 1293 l 519 1220 q 473 1145 511 1167 q 381 1124 436 1124 m 710 1124 q 624 1145 655 1124 q 600 1220 592 1167 l 602 1239 q 648 1316 610 1293 q 740 1338 686 1338 q 826 1316 795 1338 q 850 1239 857 1293 l 847 1220 q 802 1145 840 1167 q 710 1124 764 1124 z "},"Ē":{"ha":884,"x_min":-8,"x_max":891,"o":"m 0 0 m -8 0 l 134 1010 l 891 1010 l 865 821 l 360 821 l 333 631 l 775 631 l 749 442 l 307 442 l 271 189 l 777 189 l 750 0 l -8 0 m 259 1168 l 285 1357 l 854 1357 l 827 1168 l 259 1168 z "},"Ĕ":{"ha":884,"x_min":-8,"x_max":917,"o":"m 0 0 m -8 0 l 134 1010 l 891 1010 l 865 821 l 360 821 l 333 631 l 775 631 l 749 442 l 307 442 l 271 189 l 777 189 l 750 0 l -8 0 m 537 1128 q 294 1202 366 1128 q 242 1431 222 1277 l 444 1431 q 460 1311 434 1345 q 558 1278 485 1278 q 667 1311 631 1278 q 715 1431 702 1345 l 917 1431 q 801 1202 894 1277 q 537 1128 707 1128 z "},"Ė":{"ha":884,"x_min":-8,"x_max":891,"o":"m 0 0 m 537 1124 q 423 1145 465 1124 q 389 1220 381 1167 l 391 1239 q 447 1316 399 1293 q 567 1338 495 1338 q 681 1316 639 1338 q 715 1239 722 1293 l 712 1220 q 656 1145 705 1167 q 537 1124 607 1124 m -8 0 l 134 1010 l 891 1010 l 865 821 l 360 821 l 333 631 l 775 631 l 749 442 l 307 442 l 271 189 l 777 189 l 750 0 l -8 0 z "},"Ę":{"ha":884,"x_min":-8,"x_max":891,"o":"m 0 0 m 545 -283 q 384 -242 439 -283 q 340 -121 328 -202 q 424 20 351 -38 q 574 97 496 77 l 598 29 q 539 -21 552 3 q 524 -67 527 -45 q 539 -116 519 -100 q 609 -131 558 -131 q 662 -128 631 -131 q 731 -119 693 -125 l 710 -265 q 622 -278 664 -274 q 545 -283 581 -283 m -8 0 l 134 1010 l 891 1010 l 865 821 l 360 821 l 333 631 l 775 631 l 749 442 l 307 442 l 271 189 l 777 189 l 750 0 l -8 0 z "},"Ě":{"ha":884,"x_min":-8,"x_max":896,"o":"m 0 0 m 444 1141 l 237 1342 l 330 1447 l 564 1314 l 833 1448 l 896 1342 l 636 1141 l 444 1141 m -8 0 l 134 1010 l 891 1010 l 865 821 l 360 821 l 333 631 l 775 631 l 749 442 l 307 442 l 271 189 l 777 189 l 750 0 l -8 0 z "},"F":{"ha":884,"x_min":56,"x_max":917,"o":"m 56 0 l 197 1010 l 917 1010 l 890 821 l 423 821 l 388 568 l 766 568 l 740 379 l 361 379 l 308 0 l 56 0 z "},"G":{"ha":884,"x_min":16,"x_max":862,"o":"m 372 -13 q 102 78 188 -13 q 40 337 16 168 l 86 668 q 221 931 110 840 q 516 1023 332 1023 q 782 941 701 1023 q 850 706 862 859 l 595 693 q 577 803 600 773 q 492 833 554 833 q 385 792 419 833 q 336 643 351 751 l 295 362 q 303 217 282 256 q 396 177 324 177 q 501 215 468 177 q 547 354 534 254 l 420 354 l 447 543 l 826 543 l 798 337 q 664 78 774 168 q 372 -13 554 -13 z "},"Ĝ":{"ha":884,"x_min":16,"x_max":867,"o":"m 16 0 m 271 1116 l 208 1222 l 468 1423 l 660 1423 l 867 1222 l 775 1117 l 540 1250 l 271 1116 m 372 -13 q 102 78 188 -13 q 40 337 16 168 l 86 668 q 221 931 110 840 q 516 1023 332 1023 q 782 941 701 1023 q 850 706 862 859 l 595 693 q 577 803 600 773 q 492 833 554 833 q 385 792 419 833 q 336 643 351 751 l 295 362 q 303 217 282 256 q 396 177 324 177 q 501 215 468 177 q 547 354 534 254 l 420 354 l 447 543 l 826 543 l 798 337 q 664 78 774 168 q 372 -13 554 -13 z "},"Ğ":{"ha":884,"x_min":16,"x_max":904,"o":"m 16 0 m 524 1128 q 282 1202 354 1128 q 230 1431 210 1277 l 432 1431 q 447 1311 422 1345 q 545 1278 472 1278 q 654 1311 619 1278 q 702 1431 689 1345 l 904 1431 q 788 1202 881 1277 q 524 1128 694 1128 m 372 -13 q 102 78 188 -13 q 40 337 16 168 l 86 668 q 221 931 110 840 q 516 1023 332 1023 q 782 941 701 1023 q 850 706 862 859 l 595 693 q 577 803 600 773 q 492 833 554 833 q 385 792 419 833 q 336 643 351 751 l 295 362 q 303 217 282 256 q 396 177 324 177 q 501 215 468 177 q 547 354 534 254 l 420 354 l 447 543 l 826 543 l 798 337 q 664 78 774 168 q 372 -13 554 -13 z "},"Ġ":{"ha":884,"x_min":16,"x_max":862,"o":"m 16 0 m 537 1124 q 423 1145 465 1124 q 389 1220 381 1167 l 391 1239 q 447 1316 399 1293 q 567 1338 495 1338 q 681 1316 639 1338 q 715 1239 722 1293 l 712 1220 q 656 1145 705 1167 q 537 1124 607 1124 m 372 -13 q 102 78 188 -13 q 40 337 16 168 l 86 668 q 221 931 110 840 q 516 1023 332 1023 q 782 941 701 1023 q 850 706 862 859 l 595 693 q 577 803 600 773 q 492 833 554 833 q 385 792 419 833 q 336 643 351 751 l 295 362 q 303 217 282 256 q 396 177 324 177 q 501 215 468 177 q 547 354 534 254 l 420 354 l 447 543 l 826 543 l 798 337 q 664 78 774 168 q 372 -13 554 -13 z "},"Ģ":{"ha":884,"x_min":16,"x_max":862,"o":"m 16 0 m 111 -379 l 230 -126 l 545 -126 l 277 -379 l 111 -379 m 372 -13 q 102 78 188 -13 q 40 337 16 168 l 86 668 q 221 931 110 840 q 516 1023 332 1023 q 782 941 701 1023 q 850 706 862 859 l 595 693 q 577 803 600 773 q 492 833 554 833 q 385 792 419 833 q 336 643 351 751 l 295 362 q 303 217 282 256 q 396 177 324 177 q 501 215 468 177 q 547 354 534 254 l 420 354 l 447 543 l 826 543 l 798 337 q 664 78 774 168 q 372 -13 554 -13 z "},"H":{"ha":884,"x_min":-8,"x_max":891,"o":"m -8 0 l 134 1010 l 386 1010 l 337 657 l 590 657 l 639 1010 l 891 1010 l 750 0 l 497 0 l 563 467 l 311 467 l 245 0 l -8 0 z "},"Ĥ":{"ha":884,"x_min":-8,"x_max":891,"o":"m 0 0 m -8 0 l 134 1010 l 386 1010 l 337 657 l 590 657 l 639 1010 l 891 1010 l 750 0 l 497 0 l 563 467 l 311 467 l 245 0 l -8 0 m 271 1116 l 208 1222 l 468 1423 l 660 1423 l 867 1222 l 775 1117 l 540 1250 l 271 1116 z "},"I":{"ha":884,"x_min":-8,"x_max":891,"o":"m -8 0 l 19 189 l 271 189 l 360 821 l 107 821 l 134 1010 l 891 1010 l 865 821 l 612 821 l 524 189 l 777 189 l 750 0 l -8 0 z "},"Ì":{"ha":884,"x_min":-8,"x_max":891,"o":"m 0 0 m -8 0 l 19 189 l 271 189 l 360 821 l 107 821 l 134 1010 l 891 1010 l 865 821 l 612 821 l 524 189 l 777 189 l 750 0 l -8 0 m 501 1136 l 253 1389 l 568 1389 l 667 1136 l 501 1136 z "},"Í":{"ha":884,"x_min":-8,"x_max":891,"o":"m 0 0 m -8 0 l 19 189 l 271 189 l 360 821 l 107 821 l 134 1010 l 891 1010 l 865 821 l 612 821 l 524 189 l 777 189 l 750 0 l -8 0 m 356 1136 l 525 1389 l 841 1389 l 521 1136 l 356 1136 z "},"Î":{"ha":884,"x_min":-8,"x_max":891,"o":"m 0 0 m -8 0 l 19 189 l 271 189 l 360 821 l 107 821 l 134 1010 l 891 1010 l 865 821 l 612 821 l 524 189 l 777 189 l 750 0 l -8 0 m 271 1116 l 208 1222 l 468 1423 l 660 1423 l 867 1222 l 775 1117 l 540 1250 l 271 1116 z "},"Ï":{"ha":884,"x_min":-8,"x_max":891,"o":"m 0 0 m -8 0 l 19 189 l 271 189 l 360 821 l 107 821 l 134 1010 l 891 1010 l 865 821 l 612 821 l 524 189 l 777 189 l 750 0 l -8 0 m 360 1124 q 274 1145 306 1124 q 250 1220 242 1167 l 253 1239 q 298 1316 260 1293 q 390 1338 336 1338 q 477 1316 446 1338 q 500 1239 508 1293 l 497 1220 q 452 1145 490 1167 q 360 1124 414 1124 m 688 1124 q 602 1145 634 1124 q 578 1220 571 1167 l 581 1239 q 626 1316 588 1293 q 718 1338 664 1338 q 805 1316 774 1338 q 828 1239 836 1293 l 826 1220 q 780 1145 818 1167 q 688 1124 742 1124 z "},"Ĩ":{"ha":884,"x_min":-8,"x_max":891,"o":"m 0 0 m -8 0 l 19 189 l 271 189 l 360 821 l 107 821 l 134 1010 l 891 1010 l 865 821 l 612 821 l 524 189 l 777 189 l 750 0 l -8 0 m 649 1149 q 557 1168 587 1149 q 509 1208 527 1187 q 477 1249 492 1231 q 438 1268 462 1268 q 399 1249 418 1268 q 372 1173 380 1231 l 371 1162 l 211 1162 l 213 1181 q 292 1356 229 1285 q 448 1427 355 1427 q 539 1408 509 1427 q 587 1367 568 1389 q 621 1326 606 1345 q 657 1307 635 1307 q 696 1325 677 1307 q 722 1402 715 1343 l 723 1413 l 884 1413 l 881 1394 q 804 1220 867 1290 q 649 1149 741 1149 z "},"Ī":{"ha":884,"x_min":-8,"x_max":891,"o":"m 0 0 m -8 0 l 19 189 l 271 189 l 360 821 l 107 821 l 134 1010 l 891 1010 l 865 821 l 612 821 l 524 189 l 777 189 l 750 0 l -8 0 m 246 1168 l 273 1357 l 841 1357 l 814 1168 l 246 1168 z "},"Ĭ":{"ha":884,"x_min":-8,"x_max":904,"o":"m 0 0 m -8 0 l 19 189 l 271 189 l 360 821 l 107 821 l 134 1010 l 891 1010 l 865 821 l 612 821 l 524 189 l 777 189 l 750 0 l -8 0 m 524 1128 q 282 1202 354 1128 q 230 1431 210 1277 l 432 1431 q 447 1311 422 1345 q 545 1278 472 1278 q 654 1311 619 1278 q 702 1431 689 1345 l 904 1431 q 788 1202 881 1277 q 524 1128 694 1128 z "},"Į":{"ha":884,"x_min":-8,"x_max":891,"o":"m 0 0 m -8 0 l 19 189 l 271 189 l 360 821 l 107 821 l 134 1010 l 891 1010 l 865 821 l 612 821 l 524 189 l 777 189 l 750 0 l -8 0 m 453 -283 q 292 -242 347 -283 q 247 -121 236 -202 q 331 20 259 -38 q 482 97 404 77 l 506 29 q 447 -21 460 3 q 432 -67 434 -45 q 446 -116 427 -100 q 516 -131 466 -131 q 570 -128 539 -131 q 639 -119 601 -125 l 617 -265 q 530 -278 572 -274 q 453 -283 489 -283 z "},"İ":{"ha":884,"x_min":-8,"x_max":891,"o":"m 0 0 m -8 0 l 19 189 l 271 189 l 360 821 l 107 821 l 134 1010 l 891 1010 l 865 821 l 612 821 l 524 189 l 777 189 l 750 0 l -8 0 m 524 1124 q 410 1145 452 1124 q 376 1220 369 1167 l 379 1239 q 434 1316 386 1293 q 554 1338 482 1338 q 668 1316 626 1338 q 702 1239 710 1293 l 699 1220 q 643 1145 692 1167 q 524 1124 595 1124 z "},"J":{"ha":884,"x_min":-1,"x_max":866,"o":"m 356 -13 q 78 75 158 -13 q 18 362 -1 163 l 273 376 q 287 215 264 254 q 380 177 311 177 q 474 211 442 177 q 520 341 506 245 l 587 821 l 297 821 l 323 1010 l 866 1010 l 771 328 q 648 78 749 169 q 356 -13 547 -13 z "},"Ĵ":{"ha":884,"x_min":-1,"x_max":943,"o":"m 0 0 m 347 1116 l 284 1222 l 544 1423 l 736 1423 l 943 1222 l 851 1117 l 616 1250 l 347 1116 m 356 -13 q 78 75 158 -13 q 18 362 -1 163 l 273 376 q 287 215 264 254 q 380 177 311 177 q 474 211 442 177 q 520 341 506 245 l 587 821 l 297 821 l 323 1010 l 866 1010 l 771 328 q 648 78 749 169 q 356 -13 547 -13 z "},"K":{"ha":884,"x_min":-8,"x_max":936,"o":"m 304 423 l 245 0 l -8 0 l 134 1010 l 386 1010 l 331 612 l 381 612 l 677 1010 l 936 1010 l 559 543 l 790 0 l 535 0 l 359 423 l 304 423 z "},"Ķ":{"ha":884,"x_min":-8,"x_max":936,"o":"m 0 0 m 304 423 l 245 0 l -8 0 l 134 1010 l 386 1010 l 331 612 l 381 612 l 677 1010 l 936 1010 l 559 543 l 790 0 l 535 0 l 359 423 l 304 423 m 140 -379 l 259 -126 l 574 -126 l 306 -379 l 140 -379 z "},"L":{"ha":884,"x_min":56,"x_max":777,"o":"m 56 0 l 197 1010 l 449 1010 l 335 189 l 777 189 l 750 0 l 56 0 z "},"Ĺ":{"ha":884,"x_min":56,"x_max":777,"o":"m 56 0 m 211 1136 l 380 1389 l 696 1389 l 376 1136 l 211 1136 m 56 0 l 197 1010 l 449 1010 l 335 189 l 777 189 l 750 0 l 56 0 z "},"Ļ":{"ha":884,"x_min":56,"x_max":777,"o":"m 56 0 m 56 0 l 197 1010 l 449 1010 l 335 189 l 777 189 l 750 0 l 56 0 m 168 -379 l 287 -126 l 602 -126 l 333 -379 l 168 -379 z "},"Ľ":{"ha":884,"x_min":56,"x_max":977,"o":"m 56 0 m 549 638 l 665 1010 l 977 1010 l 691 638 l 549 638 m 56 0 l 197 1010 l 449 1010 l 335 189 l 777 189 l 750 0 l 56 0 z "},"M":{"ha":884,"x_min":-20,"x_max":904,"o":"m 337 316 l 264 644 l 201 0 l -20 0 l 121 1010 l 355 1010 l 451 542 l 677 1010 l 904 1010 l 763 0 l 542 0 l 658 636 l 496 316 l 337 316 z "},"N":{"ha":884,"x_min":-8,"x_max":891,"o":"m 456 0 l 301 662 l 207 0 l -8 0 l 134 1010 l 408 1010 l 577 293 l 677 1010 l 891 1010 l 750 0 l 456 0 z "},"Ñ":{"ha":884,"x_min":-8,"x_max":891,"o":"m 0 0 m 649 1149 q 557 1168 587 1149 q 509 1208 527 1187 q 477 1249 492 1231 q 438 1268 462 1268 q 399 1249 418 1268 q 372 1173 380 1231 l 371 1162 l 211 1162 l 213 1181 q 292 1356 229 1285 q 448 1427 355 1427 q 539 1408 509 1427 q 587 1367 568 1389 q 621 1326 606 1345 q 657 1307 635 1307 q 696 1325 677 1307 q 722 1402 715 1343 l 723 1413 l 884 1413 l 881 1394 q 804 1220 867 1290 q 649 1149 741 1149 m 456 0 l 301 662 l 207 0 l -8 0 l 134 1010 l 408 1010 l 577 293 l 677 1010 l 891 1010 l 750 0 l 456 0 z "},"Ń":{"ha":884,"x_min":-8,"x_max":891,"o":"m 0 0 m 394 1136 l 563 1389 l 879 1389 l 559 1136 l 394 1136 m 456 0 l 301 662 l 207 0 l -8 0 l 134 1010 l 408 1010 l 577 293 l 677 1010 l 891 1010 l 750 0 l 456 0 z "},"Ņ":{"ha":884,"x_min":-8,"x_max":891,"o":"m 0 0 m 111 -379 l 230 -126 l 545 -126 l 277 -379 l 111 -379 m 456 0 l 301 662 l 207 0 l -8 0 l 134 1010 l 408 1010 l 577 293 l 677 1010 l 891 1010 l 750 0 l 456 0 z "},"Ň":{"ha":884,"x_min":-8,"x_max":891,"o":"m 0 0 m 432 1141 l 225 1342 l 317 1447 l 552 1314 l 821 1448 l 884 1342 l 624 1141 l 432 1141 m 456 0 l 301 662 l 207 0 l -8 0 l 134 1010 l 408 1010 l 577 293 l 677 1010 l 891 1010 l 750 0 l 456 0 z "},"O":{"ha":884,"x_min":15,"x_max":869,"o":"m 370 -13 q 100 73 184 -13 q 37 312 15 159 l 90 693 q 221 935 111 847 q 516 1023 331 1023 q 785 935 702 1023 q 847 693 869 847 l 794 312 q 664 73 773 159 q 370 -13 556 -13 m 396 177 q 499 213 465 177 q 545 337 533 250 l 591 668 q 580 794 604 755 q 489 833 557 833 q 386 794 420 833 q 338 668 351 755 l 293 337 q 304 213 280 250 q 396 177 328 177 z "},"Ò":{"ha":884,"x_min":15,"x_max":869,"o":"m 15 0 m 501 1136 l 253 1389 l 568 1389 l 667 1136 l 501 1136 m 370 -13 q 100 73 184 -13 q 37 312 15 159 l 90 693 q 221 935 111 847 q 516 1023 331 1023 q 785 935 702 1023 q 847 693 869 847 l 794 312 q 664 73 773 159 q 370 -13 556 -13 m 396 177 q 499 213 465 177 q 545 337 533 250 l 591 668 q 580 794 604 755 q 489 833 557 833 q 386 794 420 833 q 338 668 351 755 l 293 337 q 304 213 280 250 q 396 177 328 177 z "},"Ó":{"ha":884,"x_min":15,"x_max":879,"o":"m 15 0 m 394 1136 l 563 1389 l 879 1389 l 559 1136 l 394 1136 m 370 -13 q 100 73 184 -13 q 37 312 15 159 l 90 693 q 221 935 111 847 q 516 1023 331 1023 q 785 935 702 1023 q 847 693 869 847 l 794 312 q 664 73 773 159 q 370 -13 556 -13 m 396 177 q 499 213 465 177 q 545 337 533 250 l 591 668 q 580 794 604 755 q 489 833 557 833 q 386 794 420 833 q 338 668 351 755 l 293 337 q 304 213 280 250 q 396 177 328 177 z "},"Ô":{"ha":884,"x_min":15,"x_max":869,"o":"m 15 0 m 271 1116 l 208 1222 l 468 1423 l 660 1423 l 867 1222 l 775 1117 l 540 1250 l 271 1116 m 370 -13 q 100 73 184 -13 q 37 312 15 159 l 90 693 q 221 935 111 847 q 516 1023 331 1023 q 785 935 702 1023 q 847 693 869 847 l 794 312 q 664 73 773 159 q 370 -13 556 -13 m 396 177 q 499 213 465 177 q 545 337 533 250 l 591 668 q 580 794 604 755 q 489 833 557 833 q 386 794 420 833 q 338 668 351 755 l 293 337 q 304 213 280 250 q 396 177 328 177 z "},"Õ":{"ha":884,"x_min":15,"x_max":884,"o":"m 15 0 m 649 1149 q 557 1168 587 1149 q 509 1208 527 1187 q 477 1249 492 1231 q 438 1268 462 1268 q 399 1249 418 1268 q 372 1173 380 1231 l 371 1162 l 211 1162 l 213 1181 q 292 1356 229 1285 q 448 1427 355 1427 q 539 1408 509 1427 q 587 1367 568 1389 q 621 1326 606 1345 q 657 1307 635 1307 q 696 1325 677 1307 q 722 1402 715 1343 l 723 1413 l 884 1413 l 881 1394 q 804 1220 867 1290 q 649 1149 741 1149 m 370 -13 q 100 73 184 -13 q 37 312 15 159 l 90 693 q 221 935 111 847 q 516 1023 331 1023 q 785 935 702 1023 q 847 693 869 847 l 794 312 q 664 73 773 159 q 370 -13 556 -13 m 396 177 q 499 213 465 177 q 545 337 533 250 l 591 668 q 580 794 604 755 q 489 833 557 833 q 386 794 420 833 q 338 668 351 755 l 293 337 q 304 213 280 250 q 396 177 328 177 z "},"Ö":{"ha":884,"x_min":15,"x_max":869,"o":"m 15 0 m 360 1124 q 274 1145 306 1124 q 250 1220 242 1167 l 253 1239 q 298 1316 260 1293 q 390 1338 336 1338 q 477 1316 446 1338 q 500 1239 508 1293 l 497 1220 q 452 1145 490 1167 q 360 1124 414 1124 m 688 1124 q 602 1145 634 1124 q 578 1220 571 1167 l 581 1239 q 626 1316 588 1293 q 718 1338 664 1338 q 805 1316 774 1338 q 828 1239 836 1293 l 826 1220 q 780 1145 818 1167 q 688 1124 742 1124 m 370 -13 q 100 73 184 -13 q 37 312 15 159 l 90 693 q 221 935 111 847 q 516 1023 331 1023 q 785 935 702 1023 q 847 693 869 847 l 794 312 q 664 73 773 159 q 370 -13 556 -13 m 396 177 q 499 213 465 177 q 545 337 533 250 l 591 668 q 580 794 604 755 q 489 833 557 833 q 386 794 420 833 q 338 668 351 755 l 293 337 q 304 213 280 250 q 396 177 328 177 z "},"Ō":{"ha":884,"x_min":15,"x_max":869,"o":"m 15 0 m 246 1168 l 273 1357 l 841 1357 l 814 1168 l 246 1168 m 370 -13 q 100 73 184 -13 q 37 312 15 159 l 90 693 q 221 935 111 847 q 516 1023 331 1023 q 785 935 702 1023 q 847 693 869 847 l 794 312 q 664 73 773 159 q 370 -13 556 -13 m 396 177 q 499 213 465 177 q 545 337 533 250 l 591 668 q 580 794 604 755 q 489 833 557 833 q 386 794 420 833 q 338 668 351 755 l 293 337 q 304 213 280 250 q 396 177 328 177 z "},"Ŏ":{"ha":884,"x_min":15,"x_max":904,"o":"m 15 0 m 524 1128 q 282 1202 354 1128 q 230 1431 210 1277 l 432 1431 q 447 1311 422 1345 q 545 1278 472 1278 q 654 1311 619 1278 q 702 1431 689 1345 l 904 1431 q 788 1202 881 1277 q 524 1128 694 1128 m 370 -13 q 100 73 184 -13 q 37 312 15 159 l 90 693 q 221 935 111 847 q 516 1023 331 1023 q 785 935 702 1023 q 847 693 869 847 l 794 312 q 664 73 773 159 q 370 -13 556 -13 m 396 177 q 499 213 465 177 q 545 337 533 250 l 591 668 q 580 794 604 755 q 489 833 557 833 q 386 794 420 833 q 338 668 351 755 l 293 337 q 304 213 280 250 q 396 177 328 177 z "},"Ő":{"ha":884,"x_min":15,"x_max":929,"o":"m 15 0 m 596 1136 l 689 1389 l 929 1389 l 723 1136 l 596 1136 m 306 1136 l 399 1389 l 639 1389 l 433 1136 l 306 1136 m 370 -13 q 100 73 184 -13 q 37 312 15 159 l 90 693 q 221 935 111 847 q 516 1023 331 1023 q 785 935 702 1023 q 847 693 869 847 l 794 312 q 664 73 773 159 q 370 -13 556 -13 m 396 177 q 499 213 465 177 q 545 337 533 250 l 591 668 q 580 794 604 755 q 489 833 557 833 q 386 794 420 833 q 338 668 351 755 l 293 337 q 304 213 280 250 q 396 177 328 177 z "},"P":{"ha":884,"x_min":-8,"x_max":872,"o":"m -8 0 l 134 1010 l 528 1010 q 784 941 696 1010 q 851 721 872 871 l 832 581 q 706 371 812 437 q 431 306 600 306 l 288 306 l 245 0 l -8 0 m 314 492 l 441 492 q 539 514 504 492 q 582 602 573 535 l 596 705 q 578 797 606 773 q 486 821 549 821 l 360 821 l 314 492 z "},"Q":{"ha":884,"x_min":24,"x_max":869,"o":"m 662 -266 q 324 -230 419 -301 q 261 35 230 -159 q 80 141 135 59 q 42 350 24 222 l 90 693 q 221 935 111 847 q 516 1023 331 1023 q 785 935 702 1023 q 847 693 869 847 l 799 350 q 691 129 780 213 q 451 29 602 45 q 492 -64 444 -43 q 665 -64 540 -86 l 662 -266 m 399 202 q 503 244 467 202 q 551 375 538 287 l 591 668 q 580 795 604 756 q 489 833 557 833 q 386 795 420 833 q 338 668 351 756 l 298 375 q 308 244 285 287 q 399 202 331 202 z "},"R":{"ha":884,"x_min":-8,"x_max":859,"o":"m 321 543 l 447 543 q 549 565 518 543 q 588 648 580 587 l 598 716 q 581 797 606 774 q 486 821 557 821 l 360 821 l 321 543 m 245 0 l -8 0 l 134 1010 l 552 1010 q 790 938 721 1010 q 840 731 859 866 l 827 640 q 760 470 813 537 q 617 375 707 403 l 774 0 l 510 0 l 364 354 l 294 354 l 245 0 z "},"Ŕ":{"ha":884,"x_min":-8,"x_max":872,"o":"m 0 0 m 388 1136 l 557 1389 l 872 1389 l 553 1136 l 388 1136 m 321 543 l 447 543 q 549 565 518 543 q 588 648 580 587 l 598 716 q 581 797 606 774 q 486 821 557 821 l 360 821 l 321 543 m 245 0 l -8 0 l 134 1010 l 552 1010 q 790 938 721 1010 q 840 731 859 866 l 827 640 q 760 470 813 537 q 617 375 707 403 l 774 0 l 510 0 l 364 354 l 294 354 l 245 0 z "},"Ŗ":{"ha":884,"x_min":-8,"x_max":859,"o":"m 0 0 m 321 543 l 447 543 q 549 565 518 543 q 588 648 580 587 l 598 716 q 581 797 606 774 q 486 821 557 821 l 360 821 l 321 543 m 245 0 l -8 0 l 134 1010 l 552 1010 q 790 938 721 1010 q 840 731 859 866 l 827 640 q 760 470 813 537 q 617 375 707 403 l 774 0 l 510 0 l 364 354 l 294 354 l 245 0 m 80 -379 l 198 -126 l 514 -126 l 245 -379 l 80 -379 z "},"Ř":{"ha":884,"x_min":-8,"x_max":865,"o":"m 0 0 m 413 1141 l 206 1342 l 298 1447 l 533 1314 l 802 1448 l 865 1342 l 605 1141 l 413 1141 m 321 543 l 447 543 q 549 565 518 543 q 588 648 580 587 l 598 716 q 581 797 606 774 q 486 821 557 821 l 360 821 l 321 543 m 245 0 l -8 0 l 134 1010 l 552 1010 q 790 938 721 1010 q 840 731 859 866 l 827 640 q 760 470 813 537 q 617 375 707 403 l 774 0 l 510 0 l 364 354 l 294 354 l 245 0 z "},"S":{"ha":884,"x_min":-8,"x_max":836,"o":"m 359 -13 q 148 17 236 -13 q -8 90 59 47 l 76 278 q 218 205 145 234 q 389 177 290 177 q 500 205 463 177 q 543 279 537 232 q 513 359 552 337 q 375 403 473 380 q 146 510 207 442 q 105 707 86 578 q 227 931 122 840 q 519 1023 331 1023 q 698 991 610 1023 q 836 927 787 958 l 766 747 q 631 808 696 785 q 492 831 567 831 q 398 807 431 831 q 360 736 366 783 q 385 662 354 689 q 529 610 417 634 q 757 503 697 573 q 798 294 817 432 q 661 68 777 148 q 359 -13 545 -13 z "},"":{"ha":884,"x_min":-8,"x_max":836,"o":"m 359 -13 q 148 17 236 -13 q -8 90 59 47 l 76 278 q 218 205 145 234 q 389 177 290 177 q 500 205 463 177 q 543 279 537 232 q 513 359 552 337 q 375 403 473 380 q 146 510 207 442 q 105 707 86 578 q 227 931 122 840 q 519 1023 331 1023 q 698 991 610 1023 q 836 927 787 958 l 766 747 q 631 808 696 785 q 492 831 567 831 q 398 807 431 831 q 360 736 366 783 q 385 662 354 689 q 529 610 417 634 q 757 503 697 573 q 798 294 817 432 q 661 68 777 148 q 359 -13 545 -13 z "},"Ś":{"ha":884,"x_min":-8,"x_max":838,"o":"m 0 0 m 359 -13 q 148 17 236 -13 q -8 90 59 47 l 76 278 q 218 205 145 234 q 389 177 290 177 q 500 205 463 177 q 543 279 537 232 q 513 359 552 337 q 375 403 473 380 q 146 510 207 442 q 105 707 86 578 q 227 931 122 840 q 519 1023 331 1023 q 698 991 610 1023 q 836 927 787 958 l 766 747 q 631 808 696 785 q 492 831 567 831 q 398 807 431 831 q 360 736 366 783 q 385 662 354 689 q 529 610 417 634 q 757 503 697 573 q 798 294 817 432 q 661 68 777 148 q 359 -13 545 -13 m 354 1136 l 523 1389 l 838 1389 l 519 1136 l 354 1136 z "},"Ŝ":{"ha":884,"x_min":-8,"x_max":865,"o":"m 0 0 m 269 1116 l 206 1222 l 466 1423 l 658 1423 l 865 1222 l 773 1117 l 538 1250 l 269 1116 m 359 -13 q 148 17 236 -13 q -8 90 59 47 l 76 278 q 218 205 145 234 q 389 177 290 177 q 500 205 463 177 q 543 279 537 232 q 513 359 552 337 q 375 403 473 380 q 146 510 207 442 q 105 707 86 578 q 227 931 122 840 q 519 1023 331 1023 q 698 991 610 1023 q 836 927 787 958 l 766 747 q 631 808 696 785 q 492 831 567 831 q 398 807 431 831 q 360 736 366 783 q 385 662 354 689 q 529 610 417 634 q 757 503 697 573 q 798 294 817 432 q 661 68 777 148 q 359 -13 545 -13 z "},"Ş":{"ha":884,"x_min":-8,"x_max":836,"o":"m 0 0 m 359 -13 q 148 17 236 -13 q -8 90 59 47 l 76 278 q 218 205 145 234 q 389 177 290 177 q 500 205 463 177 q 543 279 537 232 q 513 359 552 337 q 375 403 473 380 q 146 510 207 442 q 105 707 86 578 q 227 931 122 840 q 519 1023 331 1023 q 698 991 610 1023 q 836 927 787 958 l 766 747 q 631 808 696 785 q 492 831 567 831 q 398 807 431 831 q 360 736 366 783 q 385 662 354 689 q 529 610 417 634 q 757 503 697 573 q 798 294 817 432 q 661 68 777 148 q 359 -13 545 -13 m 331 0 l 364 53 q 534 8 471 43 q 586 -111 597 -27 q 482 -246 572 -206 q 288 -285 391 -285 q 95 -246 167 -285 q 30 -114 24 -206 l 245 -101 q 256 -134 244 -125 q 298 -144 268 -144 q 351 -131 332 -144 q 376 -74 370 -117 q 371 -26 380 -43 q 331 0 362 -9 z "},"Š":{"ha":884,"x_min":-8,"x_max":881,"o":"m 0 0 m 429 1141 l 222 1342 l 314 1447 l 549 1314 l 818 1448 l 881 1342 l 621 1141 l 429 1141 m 359 -13 q 148 17 236 -13 q -8 90 59 47 l 76 278 q 218 205 145 234 q 389 177 290 177 q 500 205 463 177 q 543 279 537 232 q 513 359 552 337 q 375 403 473 380 q 146 510 207 442 q 105 707 86 578 q 227 931 122 840 q 519 1023 331 1023 q 698 991 610 1023 q 836 927 787 958 l 766 747 q 631 808 696 785 q 492 831 567 831 q 398 807 431 831 q 360 736 366 783 q 385 662 354 689 q 529 610 417 634 q 757 503 697 573 q 798 294 817 432 q 661 68 777 148 q 359 -13 545 -13 z "},"Ș":{"ha":884,"x_min":-8,"x_max":836,"o":"m 0 0 m 359 -13 q 148 17 236 -13 q -8 90 59 47 l 76 278 q 218 205 145 234 q 389 177 290 177 q 500 205 463 177 q 543 279 537 232 q 513 359 552 337 q 375 403 473 380 q 146 510 207 442 q 105 707 86 578 q 227 931 122 840 q 519 1023 331 1023 q 698 991 610 1023 q 836 927 787 958 l 766 747 q 631 808 696 785 q 492 831 567 831 q 398 807 431 831 q 360 736 366 783 q 385 662 354 689 q 529 610 417 634 q 757 503 697 573 q 798 294 817 432 q 661 68 777 148 q 359 -13 545 -13 m 86 -379 l 205 -126 l 520 -126 l 251 -379 l 86 -379 z "},"T":{"ha":884,"x_min":82,"x_max":917,"o":"m 245 0 l 360 821 l 82 821 l 109 1010 l 917 1010 l 890 821 l 612 821 l 497 0 l 245 0 z "},"Ţ":{"ha":884,"x_min":14,"x_max":917,"o":"m 14 0 m 245 0 l 360 821 l 82 821 l 109 1010 l 917 1010 l 890 821 l 612 821 l 497 0 l 245 0 m 321 0 l 354 53 q 524 8 461 43 q 576 -111 587 -27 q 472 -246 562 -206 q 278 -285 381 -285 q 85 -246 157 -285 q 20 -114 14 -206 l 235 -101 q 246 -134 234 -125 q 288 -144 258 -144 q 341 -131 322 -144 q 366 -74 360 -117 q 361 -26 370 -43 q 321 0 352 -9 z "},"Ť":{"ha":884,"x_min":82,"x_max":917,"o":"m 82 0 m 432 1141 l 225 1342 l 317 1447 l 552 1314 l 821 1448 l 884 1342 l 624 1141 l 432 1141 m 245 0 l 360 821 l 82 821 l 109 1010 l 917 1010 l 890 821 l 612 821 l 497 0 l 245 0 z "},"Ț":{"ha":884,"x_min":82,"x_max":917,"o":"m 82 0 m 245 0 l 360 821 l 82 821 l 109 1010 l 917 1010 l 890 821 l 612 821 l 497 0 l 245 0 m 98 -379 l 217 -126 l 533 -126 l 264 -379 l 98 -379 z "},"U":{"ha":884,"x_min":15,"x_max":891,"o":"m 370 -13 q 95 76 176 -13 q 42 350 15 164 l 134 1010 l 386 1010 l 295 362 q 306 225 282 261 q 398 189 330 189 q 500 225 466 189 q 548 362 534 261 l 639 1010 l 891 1010 l 799 350 q 669 76 773 164 q 370 -13 564 -13 z "},"Ù":{"ha":884,"x_min":15,"x_max":891,"o":"m 15 0 m 501 1136 l 253 1389 l 568 1389 l 667 1136 l 501 1136 m 370 -13 q 95 76 176 -13 q 42 350 15 164 l 134 1010 l 386 1010 l 295 362 q 306 225 282 261 q 398 189 330 189 q 500 225 466 189 q 548 362 534 261 l 639 1010 l 891 1010 l 799 350 q 669 76 773 164 q 370 -13 564 -13 z "},"Ú":{"ha":884,"x_min":15,"x_max":891,"o":"m 15 0 m 356 1136 l 525 1389 l 841 1389 l 521 1136 l 356 1136 m 370 -13 q 95 76 176 -13 q 42 350 15 164 l 134 1010 l 386 1010 l 295 362 q 306 225 282 261 q 398 189 330 189 q 500 225 466 189 q 548 362 534 261 l 639 1010 l 891 1010 l 799 350 q 669 76 773 164 q 370 -13 564 -13 z "},"Û":{"ha":884,"x_min":15,"x_max":891,"o":"m 15 0 m 271 1116 l 208 1222 l 468 1423 l 660 1423 l 867 1222 l 775 1117 l 540 1250 l 271 1116 m 370 -13 q 95 76 176 -13 q 42 350 15 164 l 134 1010 l 386 1010 l 295 362 q 306 225 282 261 q 398 189 330 189 q 500 225 466 189 q 548 362 534 261 l 639 1010 l 891 1010 l 799 350 q 669 76 773 164 q 370 -13 564 -13 z "},"Ü":{"ha":884,"x_min":15,"x_max":891,"o":"m 15 0 m 370 -13 q 95 76 176 -13 q 42 350 15 164 l 134 1010 l 386 1010 l 295 362 q 306 225 282 261 q 398 189 330 189 q 500 225 466 189 q 548 362 534 261 l 639 1010 l 891 1010 l 799 350 q 669 76 773 164 q 370 -13 564 -13 m 360 1124 q 274 1145 306 1124 q 250 1220 242 1167 l 253 1239 q 298 1316 260 1293 q 390 1338 336 1338 q 477 1316 446 1338 q 500 1239 508 1293 l 497 1220 q 452 1145 490 1167 q 360 1124 414 1124 m 688 1124 q 602 1145 634 1124 q 578 1220 571 1167 l 581 1239 q 626 1316 588 1293 q 718 1338 664 1338 q 805 1316 774 1338 q 828 1239 836 1293 l 826 1220 q 780 1145 818 1167 q 688 1124 742 1124 z "},"Ũ":{"ha":884,"x_min":15,"x_max":891,"o":"m 15 0 m 370 -13 q 95 76 176 -13 q 42 350 15 164 l 134 1010 l 386 1010 l 295 362 q 306 225 282 261 q 398 189 330 189 q 500 225 466 189 q 548 362 534 261 l 639 1010 l 891 1010 l 799 350 q 669 76 773 164 q 370 -13 564 -13 m 649 1149 q 557 1168 587 1149 q 509 1208 527 1187 q 477 1249 492 1231 q 438 1268 462 1268 q 399 1249 418 1268 q 372 1173 380 1231 l 371 1162 l 211 1162 l 213 1181 q 292 1356 229 1285 q 448 1427 355 1427 q 539 1408 509 1427 q 587 1367 568 1389 q 621 1326 606 1345 q 657 1307 635 1307 q 696 1325 677 1307 q 722 1402 715 1343 l 723 1413 l 884 1413 l 881 1394 q 804 1220 867 1290 q 649 1149 741 1149 z "},"Ū":{"ha":884,"x_min":15,"x_max":891,"o":"m 15 0 m 370 -13 q 95 76 176 -13 q 42 350 15 164 l 134 1010 l 386 1010 l 295 362 q 306 225 282 261 q 398 189 330 189 q 500 225 466 189 q 548 362 534 261 l 639 1010 l 891 1010 l 799 350 q 669 76 773 164 q 370 -13 564 -13 m 246 1168 l 273 1357 l 841 1357 l 814 1168 l 246 1168 z "},"Ŭ":{"ha":884,"x_min":15,"x_max":904,"o":"m 15 0 m 370 -13 q 95 76 176 -13 q 42 350 15 164 l 134 1010 l 386 1010 l 295 362 q 306 225 282 261 q 398 189 330 189 q 500 225 466 189 q 548 362 534 261 l 639 1010 l 891 1010 l 799 350 q 669 76 773 164 q 370 -13 564 -13 m 524 1128 q 282 1202 354 1128 q 230 1431 210 1277 l 432 1431 q 447 1311 422 1345 q 545 1278 472 1278 q 654 1311 619 1278 q 702 1431 689 1345 l 904 1431 q 788 1202 881 1277 q 524 1128 694 1128 z "},"Ů":{"ha":884,"x_min":15,"x_max":891,"o":"m 15 0 m 370 -13 q 95 76 176 -13 q 42 350 15 164 l 134 1010 l 386 1010 l 295 362 q 306 225 282 261 q 398 189 330 189 q 500 225 466 189 q 548 362 534 261 l 639 1010 l 891 1010 l 799 350 q 669 76 773 164 q 370 -13 564 -13 m 521 1105 q 336 1153 403 1105 q 284 1301 270 1201 l 289 1341 q 383 1491 303 1442 q 582 1540 463 1540 q 768 1491 702 1540 q 819 1341 833 1442 l 814 1301 q 720 1153 801 1201 q 521 1105 640 1105 m 538 1220 q 608 1238 582 1220 q 640 1301 634 1256 l 645 1341 q 631 1405 652 1384 q 567 1426 611 1426 q 496 1405 521 1426 q 463 1341 470 1384 l 458 1301 q 472 1238 452 1256 q 538 1220 492 1220 z "},"Ű":{"ha":884,"x_min":15,"x_max":942,"o":"m 15 0 m 609 1136 l 702 1389 l 942 1389 l 736 1136 l 609 1136 m 318 1136 l 412 1389 l 652 1389 l 446 1136 l 318 1136 m 370 -13 q 95 76 176 -13 q 42 350 15 164 l 134 1010 l 386 1010 l 295 362 q 306 225 282 261 q 398 189 330 189 q 500 225 466 189 q 548 362 534 261 l 639 1010 l 891 1010 l 799 350 q 669 76 773 164 q 370 -13 564 -13 z "},"Ų":{"ha":884,"x_min":15,"x_max":891,"o":"m 15 0 m 428 -283 q 266 -242 322 -283 q 222 -121 211 -202 q 306 20 234 -38 q 457 97 379 77 l 481 29 q 422 -21 434 3 q 407 -67 409 -45 q 421 -116 402 -100 q 491 -131 441 -131 q 545 -128 514 -131 q 614 -119 576 -125 l 592 -265 q 505 -278 547 -274 q 428 -283 463 -283 m 370 -13 q 95 76 176 -13 q 42 350 15 164 l 134 1010 l 386 1010 l 295 362 q 306 225 282 261 q 398 189 330 189 q 500 225 466 189 q 548 362 534 261 l 639 1010 l 891 1010 l 799 350 q 669 76 773 164 q 370 -13 564 -13 z "},"V":{"ha":884,"x_min":83,"x_max":943,"o":"m 539 0 l 205 0 l 83 1010 l 333 1010 l 396 181 l 703 1010 l 943 1010 l 539 0 z "},"W":{"ha":884,"x_min":71,"x_max":943,"o":"m 457 0 l 436 438 l 290 0 l 71 0 l 82 1010 l 295 1010 l 241 277 l 391 758 l 561 758 l 583 295 l 730 1010 l 943 1010 l 672 0 l 457 0 z "},"Ŵ":{"ha":884,"x_min":71,"x_max":943,"o":"m 71 0 m 271 1116 l 208 1222 l 468 1423 l 660 1423 l 867 1222 l 775 1117 l 540 1250 l 271 1116 m 457 0 l 436 438 l 290 0 l 71 0 l 82 1010 l 295 1010 l 241 277 l 391 758 l 561 758 l 583 295 l 730 1010 l 943 1010 l 672 0 l 457 0 z "},"Ẁ":{"ha":884,"x_min":71,"x_max":943,"o":"m 71 0 m 501 1136 l 253 1389 l 568 1389 l 667 1136 l 501 1136 m 457 0 l 436 438 l 290 0 l 71 0 l 82 1010 l 295 1010 l 241 277 l 391 758 l 561 758 l 583 295 l 730 1010 l 943 1010 l 672 0 l 457 0 z "},"Ẃ":{"ha":884,"x_min":71,"x_max":943,"o":"m 71 0 m 356 1136 l 525 1389 l 841 1389 l 521 1136 l 356 1136 m 457 0 l 436 438 l 290 0 l 71 0 l 82 1010 l 295 1010 l 241 277 l 391 758 l 561 758 l 583 295 l 730 1010 l 943 1010 l 672 0 l 457 0 z "},"Ẅ":{"ha":884,"x_min":71,"x_max":943,"o":"m 71 0 m 372 1124 q 287 1145 318 1124 q 263 1220 255 1167 l 265 1239 q 311 1316 273 1293 q 403 1338 348 1338 q 489 1316 458 1338 q 513 1239 520 1293 l 510 1220 q 465 1145 503 1167 q 372 1124 427 1124 m 701 1124 q 615 1145 646 1124 q 591 1220 583 1167 l 593 1239 q 639 1316 601 1293 q 731 1338 677 1338 q 818 1316 787 1338 q 841 1239 848 1293 l 838 1220 q 793 1145 831 1167 q 701 1124 755 1124 m 457 0 l 436 438 l 290 0 l 71 0 l 82 1010 l 295 1010 l 241 277 l 391 758 l 561 758 l 583 295 l 730 1010 l 943 1010 l 672 0 l 457 0 z "},"X":{"ha":884,"x_min":-40,"x_max":924,"o":"m 534 0 l 409 314 l 201 0 l -40 0 l 328 520 l 133 1010 l 390 1010 l 497 731 l 683 1010 l 924 1010 l 578 521 l 779 0 l 534 0 z "},"Y":{"ha":884,"x_min":88,"x_max":936,"o":"m 497 0 l 245 0 l 298 379 l 88 1010 l 340 1010 l 453 593 l 686 1010 l 936 1010 l 551 379 l 497 0 z "},"Ý":{"ha":884,"x_min":88,"x_max":936,"o":"m 88 0 m 497 0 l 245 0 l 298 379 l 88 1010 l 340 1010 l 453 593 l 686 1010 l 936 1010 l 551 379 l 497 0 m 356 1136 l 525 1389 l 841 1389 l 521 1136 l 356 1136 z "},"Ŷ":{"ha":884,"x_min":88,"x_max":936,"o":"m 88 0 m 497 0 l 245 0 l 298 379 l 88 1010 l 340 1010 l 453 593 l 686 1010 l 936 1010 l 551 379 l 497 0 m 271 1116 l 208 1222 l 468 1423 l 660 1423 l 867 1222 l 775 1117 l 540 1250 l 271 1116 z "},"Ÿ":{"ha":884,"x_min":88,"x_max":936,"o":"m 88 0 m 497 0 l 245 0 l 298 379 l 88 1010 l 340 1010 l 453 593 l 686 1010 l 936 1010 l 551 379 l 497 0 m 360 1124 q 274 1145 306 1124 q 250 1220 242 1167 l 253 1239 q 298 1316 260 1293 q 390 1338 336 1338 q 477 1316 446 1338 q 500 1239 508 1293 l 497 1220 q 452 1145 490 1167 q 360 1124 414 1124 m 688 1124 q 602 1145 634 1124 q 578 1220 571 1167 l 581 1239 q 626 1316 588 1293 q 718 1338 664 1338 q 805 1316 774 1338 q 828 1239 836 1293 l 826 1220 q 780 1145 818 1167 q 688 1124 742 1124 z "},"Ỳ":{"ha":884,"x_min":88,"x_max":936,"o":"m 88 0 m 497 0 l 245 0 l 298 379 l 88 1010 l 340 1010 l 453 593 l 686 1010 l 936 1010 l 551 379 l 497 0 m 501 1136 l 253 1389 l 568 1389 l 667 1136 l 501 1136 z "},"Z":{"ha":884,"x_min":-8,"x_max":891,"o":"m 750 0 l -8 0 l 19 189 l 602 821 l 107 821 l 134 1010 l 891 1010 l 865 821 l 287 189 l 777 189 l 750 0 z "},"Ź":{"ha":884,"x_min":-8,"x_max":891,"o":"m 0 0 m 394 1136 l 563 1389 l 879 1389 l 559 1136 l 394 1136 m 750 0 l -8 0 l 19 189 l 602 821 l 107 821 l 134 1010 l 891 1010 l 865 821 l 287 189 l 777 189 l 750 0 z "},"Ż":{"ha":884,"x_min":-8,"x_max":891,"o":"m 0 0 m 750 0 l -8 0 l 19 189 l 602 821 l 107 821 l 134 1010 l 891 1010 l 865 821 l 287 189 l 777 189 l 750 0 m 524 1124 q 410 1145 452 1124 q 376 1220 369 1167 l 379 1239 q 434 1316 386 1293 q 554 1338 482 1338 q 668 1316 626 1338 q 702 1239 710 1293 l 699 1220 q 643 1145 692 1167 q 524 1124 595 1124 z "},"Ž":{"ha":884,"x_min":-8,"x_max":891,"o":"m 0 0 m 432 1141 l 225 1342 l 317 1447 l 552 1314 l 821 1448 l 884 1342 l 624 1141 l 432 1141 m 750 0 l -8 0 l 19 189 l 602 821 l 107 821 l 134 1010 l 891 1010 l 865 821 l 287 189 l 777 189 l 750 0 z "},"Æ":{"ha":884,"x_min":-58,"x_max":929,"o":"m 437 833 l 273 404 l 403 404 l 463 833 l 437 833 m 378 227 l 205 227 l 119 0 l -58 0 l 340 1010 l 929 1010 l 905 833 l 678 833 l 649 631 l 851 631 l 827 455 l 625 455 l 586 177 l 813 177 l 788 0 l 346 0 l 378 227 z "},"Ǽ":{"ha":884,"x_min":-58,"x_max":992,"o":"m 0 0 m 508 1136 l 677 1389 l 992 1389 l 673 1136 l 508 1136 m 437 833 l 273 404 l 403 404 l 463 833 l 437 833 m 378 227 l 205 227 l 119 0 l -58 0 l 340 1010 l 929 1010 l 905 833 l 678 833 l 649 631 l 851 631 l 827 455 l 625 455 l 586 177 l 813 177 l 788 0 l 346 0 l 378 227 z "},"Ð":{"ha":884,"x_min":-8,"x_max":864,"o":"m -8 0 l 59 480 l -4 480 l 18 631 l 81 631 l 134 1010 l 514 1010 q 777 910 691 1010 q 841 643 864 809 l 801 362 q 664 98 778 197 q 371 0 549 0 l -8 0 m 271 189 l 372 189 q 497 232 458 189 q 552 388 537 275 l 585 617 q 574 777 601 732 q 461 821 547 821 l 360 821 l 333 631 l 460 631 l 438 480 l 312 480 l 271 189 z "},"Ø":{"ha":884,"x_min":13,"x_max":871,"o":"m 265 318 l 540 828 q 516 832 528 831 q 489 833 504 833 q 364 789 403 833 q 311 643 324 745 l 270 362 q 268 339 269 350 q 265 318 266 328 m 396 177 q 521 218 484 177 q 573 362 559 260 l 614 643 q 616 667 615 655 q 619 689 617 678 l 342 182 q 368 178 355 179 q 396 177 381 177 m 370 -13 q 310 -10 338 -13 q 256 -3 282 -8 l 189 -126 l 13 -126 l 115 64 q 47 178 66 109 q 40 337 28 247 l 86 668 q 220 929 110 835 q 516 1023 331 1023 q 574 1020 547 1023 q 628 1013 602 1018 l 694 1136 l 871 1136 l 769 946 q 838 830 819 900 q 843 668 856 759 l 798 337 q 665 80 774 172 q 370 -13 556 -13 z "},"Ǿ":{"ha":884,"x_min":13,"x_max":879,"o":"m 13 0 m 265 318 l 540 828 q 516 832 528 831 q 489 833 504 833 q 364 789 403 833 q 311 643 324 745 l 270 362 q 268 339 269 350 q 265 318 266 328 m 396 177 q 521 218 484 177 q 573 362 559 260 l 614 643 q 616 667 615 655 q 619 689 617 678 l 342 182 q 368 178 355 179 q 396 177 381 177 m 370 -13 q 310 -10 338 -13 q 256 -3 282 -8 l 189 -126 l 13 -126 l 115 64 q 47 178 66 109 q 40 337 28 247 l 86 668 q 220 929 110 835 q 516 1023 331 1023 q 574 1020 547 1023 q 628 1013 602 1018 l 694 1136 l 871 1136 l 769 946 q 838 830 819 900 q 843 668 856 759 l 798 337 q 665 80 774 172 q 370 -13 556 -13 m 394 1136 l 563 1389 l 879 1389 l 559 1136 l 394 1136 z "},"Þ":{"ha":884,"x_min":-8,"x_max":850,"o":"m -8 0 l 134 1010 l 386 1010 l 366 859 l 508 859 q 767 783 684 859 q 830 567 850 708 l 811 427 q 688 225 792 295 q 409 154 585 154 l 266 154 l 245 0 l -8 0 m 293 341 l 407 341 q 516 364 480 341 q 559 437 552 386 l 577 567 q 555 645 585 621 q 452 669 525 669 l 338 669 l 293 341 z "},"Đ":{"ha":884,"x_min":-8,"x_max":864,"o":"m -8 0 l 59 480 l -4 480 l 18 631 l 81 631 l 134 1010 l 514 1010 q 777 910 691 1010 q 841 643 864 809 l 801 362 q 664 98 778 197 q 371 0 549 0 l -8 0 m 271 189 l 372 189 q 497 232 458 189 q 552 388 537 275 l 585 617 q 574 777 601 732 q 461 821 547 821 l 360 821 l 333 631 l 460 631 l 438 480 l 312 480 l 271 189 z "},"Ħ":{"ha":884,"x_min":5,"x_max":932,"o":"m 332 530 l 559 530 l 582 694 l 355 694 l 332 530 m 306 341 l 258 0 l 5 0 l 102 694 l 27 694 l 48 846 l 124 846 l 146 1010 l 399 1010 l 376 846 l 604 846 l 626 1010 l 879 1010 l 856 846 l 932 846 l 910 694 l 835 694 l 737 0 l 485 0 l 533 341 l 306 341 z "},"Ĳ":{"ha":884,"x_min":-20,"x_max":904,"o":"m 169 0 l -20 0 l 121 1010 l 311 1010 l 169 0 m 521 -13 q 333 68 389 -13 q 306 337 278 149 l 496 351 q 485 190 479 229 q 538 152 492 152 q 585 177 568 152 q 612 278 602 203 l 692 846 l 528 846 l 551 1010 l 904 1010 l 801 265 q 712 61 782 135 q 521 -13 643 -13 z "},"Ŀ":{"ha":884,"x_min":56,"x_max":982,"o":"m 56 0 m 797 480 q 683 501 725 480 q 649 576 641 523 l 652 595 q 707 672 659 649 q 827 694 755 694 q 941 672 899 694 q 975 595 982 649 l 972 576 q 916 501 965 523 q 797 480 867 480 m 56 0 l 197 1010 l 449 1010 l 335 189 l 777 189 l 750 0 l 56 0 z "},"Ł":{"ha":884,"x_min":20,"x_max":777,"o":"m 56 0 l 112 407 l 20 379 l 42 530 l 134 558 l 197 1010 l 449 1010 l 398 639 l 702 732 l 681 581 l 376 487 l 335 189 l 777 189 l 750 0 l 56 0 z "},"Ŋ":{"ha":884,"x_min":-8,"x_max":876,"o":"m 394 -265 q 308 -257 351 -265 q 226 -236 265 -249 l 273 -77 q 333 -94 304 -87 q 385 -101 361 -101 q 461 -73 432 -101 q 500 19 491 -45 l 596 699 q 586 799 605 764 q 528 833 568 833 q 444 801 486 833 q 343 699 402 768 l 245 0 l -8 0 l 134 1010 l 386 1010 l 364 846 l 402 846 q 521 978 452 933 q 670 1023 591 1023 q 819 958 761 1023 q 859 769 876 894 l 750 -3 q 624 -203 730 -141 q 394 -265 518 -265 z "},"Œ":{"ha":884,"x_min":-5,"x_max":929,"o":"m 282 0 q 64 100 134 0 q 19 367 -5 201 l 58 648 q 179 912 82 813 q 424 1010 275 1010 l 929 1010 l 905 833 l 678 833 l 649 631 l 813 631 l 789 455 l 625 455 l 586 177 l 813 177 l 788 0 l 282 0 m 335 189 l 372 189 l 461 821 l 423 821 q 314 774 345 821 q 269 622 284 727 l 237 393 q 239 239 222 289 q 335 189 256 189 z "},"Ŧ":{"ha":884,"x_min":82,"x_max":917,"o":"m 245 0 l 297 366 l 95 366 l 116 518 l 318 518 l 360 821 l 82 821 l 109 1010 l 917 1010 l 890 821 l 612 821 l 571 518 l 773 518 l 751 366 l 549 366 l 497 0 l 245 0 z "},"Α":{"ha":884,"x_min":-58,"x_max":802,"o":"m 0 0 m 528 417 l 494 828 l 332 417 l 528 417 m 564 0 l 544 227 l 258 227 l 169 0 l -58 0 l 359 1010 l 668 1010 l 802 0 l 564 0 z "},"Ά":{"ha":884,"x_min":-58,"x_max":802,"o":"m 0 0 m 528 417 l 494 828 l 332 417 l 528 417 m 564 0 l 544 227 l 258 227 l 169 0 l -58 0 l 359 1010 l 668 1010 l 802 0 l 564 0 m 11 884 l 105 1136 l 408 1136 l 164 884 l 11 884 z "},"Β":{"ha":884,"x_min":-8,"x_max":848,"o":"m 0 0 m -8 0 l 134 1010 l 530 1010 q 775 952 701 1010 q 831 773 848 894 l 824 730 q 772 607 813 646 q 650 553 731 567 l 644 516 q 768 458 729 508 q 797 332 807 408 l 788 266 q 670 66 769 131 q 385 0 572 0 l -8 0 m 330 606 l 448 606 q 535 625 508 606 q 569 691 563 644 l 578 751 q 563 815 585 797 q 481 833 540 833 l 362 833 l 330 606 m 270 177 l 384 177 q 494 199 460 177 q 537 279 529 222 l 545 345 q 525 422 553 399 q 420 444 496 444 l 307 444 l 270 177 z "},"Γ":{"ha":884,"x_min":56,"x_max":917,"o":"m 56 0 l 197 1010 l 917 1010 l 890 821 l 423 821 l 308 0 l 56 0 z "},"Δ":{"ha":884,"x_min":-33,"x_max":802,"o":"m -33 0 l -6 189 l 340 1010 l 699 1010 l 802 189 l 775 0 l -33 0 m 567 189 l 491 856 l 218 189 l 567 189 z "},"Ε":{"ha":884,"x_min":-8,"x_max":891,"o":"m 0 0 m -8 0 l 134 1010 l 891 1010 l 865 821 l 360 821 l 333 631 l 775 631 l 749 442 l 307 442 l 271 189 l 777 189 l 750 0 l -8 0 z "},"Έ":{"ha":884,"x_min":-178,"x_max":891,"o":"m 0 0 m -8 0 l 134 1010 l 891 1010 l 865 821 l 360 821 l 333 631 l 775 631 l 749 442 l 307 442 l 271 189 l 777 189 l 750 0 l -8 0 m -178 884 l -85 1136 l 218 1136 l -25 884 l -178 884 z "},"Ζ":{"ha":884,"x_min":-8,"x_max":891,"o":"m 0 0 m 750 0 l -8 0 l 19 189 l 602 821 l 107 821 l 134 1010 l 891 1010 l 865 821 l 287 189 l 777 189 l 750 0 z "},"Η":{"ha":884,"x_min":-8,"x_max":891,"o":"m 0 0 m -8 0 l 134 1010 l 386 1010 l 337 657 l 590 657 l 639 1010 l 891 1010 l 750 0 l 497 0 l 563 467 l 311 467 l 245 0 l -8 0 z "},"Ή":{"ha":884,"x_min":-203,"x_max":891,"o":"m 0 0 m -203 884 l -110 1136 l 193 1136 l -51 884 l -203 884 m -8 0 l 134 1010 l 386 1010 l 337 657 l 590 657 l 639 1010 l 891 1010 l 750 0 l 497 0 l 563 467 l 311 467 l 245 0 l -8 0 z "},"Θ":{"ha":884,"x_min":16,"x_max":867,"o":"m 370 -13 q 102 78 188 -13 q 40 337 16 169 l 86 668 q 222 930 110 837 q 516 1023 335 1023 q 782 930 697 1023 q 843 668 867 837 l 798 337 q 663 78 774 169 q 370 -13 552 -13 m 396 177 q 525 220 477 177 q 586 362 572 263 l 626 643 q 605 788 640 742 q 489 833 571 833 q 359 788 407 833 q 298 643 312 742 l 258 362 q 280 220 244 263 q 396 177 316 177 m 331 429 l 354 593 l 556 593 l 533 429 l 331 429 z "},"Ι":{"ha":884,"x_min":-8,"x_max":891,"o":"m 0 0 m -8 0 l 19 189 l 271 189 l 360 821 l 107 821 l 134 1010 l 891 1010 l 865 821 l 612 821 l 524 189 l 777 189 l 750 0 l -8 0 z "},"Ί":{"ha":884,"x_min":-203,"x_max":891,"o":"m 0 0 m -203 884 l -110 1136 l 193 1136 l -51 884 l -203 884 m -8 0 l 19 189 l 271 189 l 360 821 l 107 821 l 134 1010 l 891 1010 l 865 821 l 612 821 l 524 189 l 777 189 l 750 0 l -8 0 z "},"Ϊ":{"ha":884,"x_min":-8,"x_max":891,"o":"m 0 0 m -8 0 l 19 189 l 271 189 l 360 821 l 107 821 l 134 1010 l 891 1010 l 865 821 l 612 821 l 524 189 l 777 189 l 750 0 l -8 0 m 360 1124 q 274 1145 306 1124 q 250 1220 242 1167 l 253 1239 q 298 1316 260 1293 q 390 1338 336 1338 q 477 1316 446 1338 q 500 1239 508 1293 l 497 1220 q 452 1145 490 1167 q 360 1124 414 1124 m 688 1124 q 602 1145 634 1124 q 578 1220 571 1167 l 581 1239 q 626 1316 588 1293 q 718 1338 664 1338 q 805 1316 774 1338 q 828 1239 836 1293 l 826 1220 q 780 1145 818 1167 q 688 1124 742 1124 z "},"Κ":{"ha":884,"x_min":-8,"x_max":936,"o":"m 0 0 m 304 423 l 245 0 l -8 0 l 134 1010 l 386 1010 l 331 612 l 381 612 l 677 1010 l 936 1010 l 559 543 l 790 0 l 535 0 l 359 423 l 304 423 z "},"Λ":{"ha":884,"x_min":-58,"x_max":802,"o":"m 564 0 l 494 828 l 169 0 l -58 0 l 359 1010 l 668 1010 l 802 0 l 564 0 z "},"Μ":{"ha":884,"x_min":-20,"x_max":904,"o":"m 0 0 m 337 316 l 264 644 l 201 0 l -20 0 l 121 1010 l 355 1010 l 451 542 l 677 1010 l 904 1010 l 763 0 l 542 0 l 658 636 l 496 316 l 337 316 z "},"Ν":{"ha":884,"x_min":-8,"x_max":891,"o":"m 0 0 m 456 0 l 301 662 l 207 0 l -8 0 l 134 1010 l 408 1010 l 577 293 l 677 1010 l 891 1010 l 750 0 l 456 0 z "},"Ξ":{"ha":884,"x_min":-8,"x_max":891,"o":"m 107 821 l 134 1010 l 891 1010 l 865 821 l 107 821 m 86 442 l 112 631 l 807 631 l 780 442 l 86 442 m -8 0 l 19 189 l 777 189 l 750 0 l -8 0 z "},"Ο":{"ha":884,"x_min":15,"x_max":869,"o":"m 15 0 m 370 -13 q 100 73 184 -13 q 37 312 15 159 l 90 693 q 221 935 111 847 q 516 1023 331 1023 q 785 935 702 1023 q 847 693 869 847 l 794 312 q 664 73 773 159 q 370 -13 556 -13 m 396 177 q 499 213 465 177 q 545 337 533 250 l 591 668 q 580 794 604 755 q 489 833 557 833 q 386 794 420 833 q 338 668 351 755 l 293 337 q 304 213 280 250 q 396 177 328 177 z "},"Ό":{"ha":884,"x_min":-52,"x_max":869,"o":"m 0 0 m -52 884 l 42 1136 l 345 1136 l 101 884 l -52 884 m 370 -13 q 100 73 184 -13 q 37 312 15 159 l 90 693 q 221 935 111 847 q 516 1023 331 1023 q 785 935 702 1023 q 847 693 869 847 l 794 312 q 664 73 773 159 q 370 -13 556 -13 m 396 177 q 499 213 465 177 q 545 337 533 250 l 591 668 q 580 794 604 755 q 489 833 557 833 q 386 794 420 833 q 338 668 351 755 l 293 337 q 304 213 280 250 q 396 177 328 177 z "},"Π":{"ha":884,"x_min":-8,"x_max":891,"o":"m -8 0 l 134 1010 l 891 1010 l 750 0 l 497 0 l 612 821 l 360 821 l 245 0 l -8 0 z "},"Ρ":{"ha":884,"x_min":-8,"x_max":872,"o":"m 0 0 m -8 0 l 134 1010 l 528 1010 q 784 941 696 1010 q 851 721 872 871 l 832 581 q 706 371 812 437 q 431 306 600 306 l 288 306 l 245 0 l -8 0 m 314 492 l 441 492 q 539 514 504 492 q 582 602 573 535 l 596 705 q 578 797 606 773 q 486 821 549 821 l 360 821 l 314 492 z "},"Σ":{"ha":884,"x_min":18,"x_max":854,"o":"m 712 0 l 18 0 l 44 189 l 465 516 l 133 821 l 159 1010 l 854 1010 l 827 821 l 388 821 l 645 600 l 624 451 l 284 189 l 739 189 l 712 0 z "},"Τ":{"ha":884,"x_min":82,"x_max":917,"o":"m 82 0 m 245 0 l 360 821 l 82 821 l 109 1010 l 917 1010 l 890 821 l 612 821 l 497 0 l 245 0 z "},"Υ":{"ha":884,"x_min":88,"x_max":936,"o":"m 88 0 m 497 0 l 245 0 l 298 379 l 88 1010 l 340 1010 l 453 593 l 686 1010 l 936 1010 l 551 379 l 497 0 z "},"Ύ":{"ha":884,"x_min":-203,"x_max":936,"o":"m 0 0 m 497 0 l 245 0 l 298 379 l 88 1010 l 340 1010 l 453 593 l 686 1010 l 936 1010 l 551 379 l 497 0 m -203 884 l -110 1136 l 193 1136 l -51 884 l -203 884 z "},"Ϋ":{"ha":884,"x_min":88,"x_max":936,"o":"m 88 0 m 497 0 l 245 0 l 298 379 l 88 1010 l 340 1010 l 453 593 l 686 1010 l 936 1010 l 551 379 l 497 0 m 360 1124 q 274 1145 306 1124 q 250 1220 242 1167 l 253 1239 q 298 1316 260 1293 q 390 1338 336 1338 q 477 1316 446 1338 q 500 1239 508 1293 l 497 1220 q 452 1145 490 1167 q 360 1124 414 1124 m 688 1124 q 602 1145 634 1124 q 578 1220 571 1167 l 581 1239 q 626 1316 588 1293 q 718 1338 664 1338 q 805 1316 774 1338 q 828 1239 836 1293 l 826 1220 q 780 1145 818 1167 q 688 1124 742 1124 z "},"Φ":{"ha":884,"x_min":16,"x_max":867,"o":"m 16 0 m 496 114 l 487 114 l 470 -13 l 269 -13 l 287 114 l 278 114 q 79 201 141 114 q 39 451 16 289 l 54 554 q 165 807 77 717 q 390 896 253 896 l 396 896 l 414 1023 l 615 1023 l 597 896 l 606 896 q 805 807 742 896 q 845 554 867 717 l 830 451 q 720 201 807 289 q 496 114 633 114 m 593 720 l 566 720 l 505 290 l 533 290 q 593 333 572 290 q 624 451 614 376 l 639 554 q 641 674 649 628 q 593 720 633 720 m 297 290 l 317 290 l 378 720 l 357 720 q 292 674 314 720 q 259 554 269 628 l 244 451 q 244 333 234 376 q 297 290 254 290 z "},"Χ":{"ha":884,"x_min":-40,"x_max":924,"o":"m 0 0 m 534 0 l 409 314 l 201 0 l -40 0 l 328 520 l 133 1010 l 390 1010 l 497 731 l 683 1010 l 924 1010 l 578 521 l 779 0 l 534 0 z "},"Ψ":{"ha":884,"x_min":38,"x_max":907,"o":"m 472 0 l 270 0 l 303 235 q 101 343 164 256 q 58 577 38 431 l 119 1010 l 323 1010 l 265 590 q 270 472 254 514 q 330 420 285 429 l 412 1010 l 614 1010 l 532 420 q 605 472 578 429 q 644 590 633 514 l 702 1010 l 907 1010 l 846 577 q 739 343 826 431 q 505 235 652 256 l 472 0 z "},"Ω":{"ha":884,"x_min":-20,"x_max":881,"o":"m 333 0 l -20 0 l 1 152 l 140 152 l 157 265 q 68 368 95 303 q 53 519 40 433 l 73 668 q 212 932 98 841 q 515 1023 326 1023 q 793 932 705 1023 q 856 668 881 841 l 836 519 q 778 368 823 433 q 662 265 734 303 l 645 152 l 784 152 l 763 0 l 409 0 l 449 290 q 535 364 501 306 q 583 519 569 423 l 606 681 q 586 799 617 764 q 489 833 556 833 q 381 799 422 833 q 328 681 340 764 l 306 519 q 309 364 292 423 q 374 290 327 306 l 333 0 z "},"Ώ":{"ha":884,"x_min":-102,"x_max":881,"o":"m 0 0 m -102 884 l -9 1136 l 294 1136 l 51 884 l -102 884 m 333 0 l -20 0 l 1 152 l 140 152 l 157 265 q 68 368 95 303 q 53 519 40 433 l 73 668 q 212 932 98 841 q 515 1023 326 1023 q 793 932 705 1023 q 856 668 881 841 l 836 519 q 778 368 823 433 q 662 265 734 303 l 645 152 l 784 152 l 763 0 l 409 0 l 449 290 q 535 364 501 306 q 583 519 569 423 l 606 681 q 586 799 617 764 q 489 833 556 833 q 381 799 422 833 q 328 681 340 764 l 306 519 q 309 364 292 423 q 374 290 327 306 l 333 0 z "},"Ω":{"ha":884,"x_min":-20,"x_max":881,"o":"m 0 0 m 333 0 l -20 0 l 1 152 l 140 152 l 157 265 q 68 368 95 303 q 53 519 40 433 l 73 668 q 212 932 98 841 q 515 1023 326 1023 q 793 932 705 1023 q 856 668 881 841 l 836 519 q 778 368 823 433 q 662 265 734 303 l 645 152 l 784 152 l 763 0 l 409 0 l 449 290 q 535 364 501 306 q 583 519 569 423 l 606 681 q 586 799 617 764 q 489 833 556 833 q 381 799 422 833 q 328 681 340 764 l 306 519 q 309 364 292 423 q 374 290 327 306 l 333 0 z "},"Ђ":{"ha":884,"x_min":57,"x_max":833,"o":"m 81 0 l 196 821 l 57 821 l 83 1010 l 664 1010 l 638 821 l 448 821 l 426 657 l 514 657 q 756 582 679 657 q 812 352 833 508 l 804 301 q 685 73 783 146 q 422 0 587 0 l 448 187 q 527 213 497 187 q 566 303 557 239 l 572 350 q 559 443 581 415 q 487 470 537 470 l 399 470 l 333 0 l 81 0 z "},"Є":{"ha":884,"x_min":14,"x_max":888,"o":"m 824 350 q 686 72 788 157 q 383 -13 583 -13 q 101 69 188 -13 q 37 312 14 150 l 90 693 q 223 940 112 857 q 529 1023 335 1023 q 807 942 726 1023 q 867 655 888 861 l 614 643 q 601 794 621 754 q 501 833 581 833 q 388 795 426 833 q 338 667 351 758 l 333 631 l 523 631 l 496 442 l 307 442 l 293 337 q 307 213 280 250 q 409 177 333 177 q 519 213 489 177 q 573 362 549 250 l 824 350 z "},"Ѕ":{"ha":884,"x_min":-8,"x_max":836,"o":"m 0 0 m 359 -13 q 148 17 236 -13 q -8 90 59 47 l 76 278 q 218 205 145 234 q 389 177 290 177 q 500 205 463 177 q 543 279 537 232 q 513 359 552 337 q 375 403 473 380 q 146 510 207 442 q 105 707 86 578 q 227 931 122 840 q 519 1023 331 1023 q 698 991 610 1023 q 836 927 787 958 l 766 747 q 631 808 696 785 q 492 831 567 831 q 398 807 431 831 q 360 736 366 783 q 385 662 354 689 q 529 610 417 634 q 757 503 697 573 q 798 294 817 432 q 661 68 777 148 q 359 -13 545 -13 z "},"І":{"ha":884,"x_min":-8,"x_max":891,"o":"m 0 0 m -8 0 l 19 189 l 271 189 l 360 821 l 107 821 l 134 1010 l 891 1010 l 865 821 l 612 821 l 524 189 l 777 189 l 750 0 l -8 0 z "},"Ї":{"ha":884,"x_min":-8,"x_max":891,"o":"m 0 0 m 360 1124 q 274 1145 306 1124 q 250 1220 242 1167 l 253 1239 q 298 1316 260 1293 q 390 1338 336 1338 q 477 1316 446 1338 q 500 1239 508 1293 l 497 1220 q 452 1145 490 1167 q 360 1124 414 1124 m 688 1124 q 602 1145 634 1124 q 578 1220 571 1167 l 581 1239 q 626 1316 588 1293 q 718 1338 664 1338 q 805 1316 774 1338 q 828 1239 836 1293 l 826 1220 q 780 1145 818 1167 q 688 1124 742 1124 m -8 0 l 19 189 l 271 189 l 360 821 l 107 821 l 134 1010 l 891 1010 l 865 821 l 612 821 l 524 189 l 777 189 l 750 0 l -8 0 z "},"Ј":{"ha":884,"x_min":-1,"x_max":866,"o":"m 0 0 m 356 -13 q 78 75 158 -13 q 18 362 -1 163 l 273 376 q 287 215 264 254 q 380 177 311 177 q 474 211 442 177 q 520 341 506 245 l 587 821 l 297 821 l 323 1010 l 866 1010 l 771 328 q 648 78 749 169 q 356 -13 547 -13 z "},"Љ":{"ha":884,"x_min":-90,"x_max":848,"o":"m 220 169 q 151 39 206 83 q 1 -6 96 -6 q -44 -3 -21 -6 q -90 5 -67 0 l -40 183 q -23 180 -32 182 q -6 179 -15 178 q 23 193 10 179 q 43 242 37 206 l 159 1010 l 624 1010 l 581 705 l 654 705 q 801 645 753 705 q 835 481 848 586 l 801 241 q 718 64 784 128 q 554 0 653 0 l 293 0 l 412 846 l 321 846 l 220 169 m 505 164 l 537 164 q 588 188 569 164 q 615 266 607 212 l 640 447 q 634 520 646 497 q 590 543 622 543 l 558 543 l 505 164 z "},"Њ":{"ha":884,"x_min":-23,"x_max":850,"o":"m 505 164 l 537 164 q 588 188 571 164 q 615 266 606 211 l 640 447 q 636 521 648 499 q 590 543 624 543 l 558 543 l 505 164 m 232 467 l 167 0 l -23 0 l 119 1010 l 308 1010 l 259 657 l 385 657 l 434 1010 l 624 1010 l 581 705 l 654 705 q 804 648 758 705 q 835 481 850 591 l 801 241 q 721 61 784 122 q 554 0 658 0 l 293 0 l 359 467 l 232 467 z "},"Ћ":{"ha":884,"x_min":57,"x_max":831,"o":"m 333 0 l 81 0 l 196 821 l 57 821 l 83 1010 l 677 1010 l 650 821 l 448 821 l 422 631 l 510 631 q 758 560 684 631 q 811 340 831 489 l 763 0 l 510 0 l 558 337 q 547 418 566 391 q 484 444 529 444 l 395 444 l 333 0 z "},"Џ":{"ha":884,"x_min":-8,"x_max":891,"o":"m 218 -189 l 245 0 l -8 0 l 134 1010 l 386 1010 l 271 189 l 524 189 l 639 1010 l 891 1010 l 750 0 l 497 0 l 471 -189 l 218 -189 z "},"А":{"ha":884,"x_min":-58,"x_max":802,"o":"m 0 0 m 528 417 l 494 828 l 332 417 l 528 417 m 564 0 l 544 227 l 258 227 l 169 0 l -58 0 l 359 1010 l 668 1010 l 802 0 l 564 0 z "},"Б":{"ha":884,"x_min":-8,"x_max":841,"o":"m -8 0 l 134 1010 l 841 1010 l 814 821 l 360 821 l 336 644 l 505 644 q 758 571 677 644 q 818 364 838 499 l 809 295 q 688 76 789 153 q 415 0 586 0 l -8 0 m 271 189 l 415 189 q 518 219 486 189 q 558 304 551 249 l 563 345 q 547 428 571 399 q 453 457 524 457 l 309 457 l 271 189 z "},"В":{"ha":884,"x_min":-8,"x_max":848,"o":"m 0 0 m -8 0 l 134 1010 l 530 1010 q 775 952 701 1010 q 831 773 848 894 l 824 730 q 772 607 813 646 q 650 553 731 567 l 644 516 q 768 458 729 508 q 797 332 807 408 l 788 266 q 670 66 769 131 q 385 0 572 0 l -8 0 m 330 606 l 448 606 q 535 625 508 606 q 569 691 563 644 l 578 751 q 563 815 585 797 q 481 833 540 833 l 362 833 l 330 606 m 270 177 l 384 177 q 494 199 460 177 q 537 279 529 222 l 545 345 q 525 422 553 399 q 420 444 496 444 l 307 444 l 270 177 z "},"Г":{"ha":884,"x_min":56,"x_max":917,"o":"m 56 0 m 56 0 l 197 1010 l 917 1010 l 890 821 l 423 821 l 308 0 l 56 0 z "},"Ѓ":{"ha":884,"x_min":56,"x_max":917,"o":"m 56 0 m 400 1136 l 569 1389 l 885 1389 l 566 1136 l 400 1136 m 56 0 l 197 1010 l 917 1010 l 890 821 l 423 821 l 308 0 l 56 0 z "},"Д":{"ha":884,"x_min":-97,"x_max":828,"o":"m 287 213 l 283 189 l 486 189 l 574 821 l 424 821 l 360 385 q 331 280 350 326 q 287 213 313 235 m 157 0 l 130 -189 l -97 -189 l -44 189 l 56 189 q 101 251 82 207 q 134 389 120 294 l 229 1010 l 828 1010 l 713 189 l 814 189 l 761 -189 l 534 -189 l 561 0 l 157 0 z "},"Е":{"ha":884,"x_min":-8,"x_max":891,"o":"m 0 0 m -8 0 l 134 1010 l 891 1010 l 865 821 l 360 821 l 333 631 l 775 631 l 749 442 l 307 442 l 271 189 l 777 189 l 750 0 l -8 0 z "},"Ѐ":{"ha":884,"x_min":-8,"x_max":891,"o":"m 0 0 m 476 1136 l 227 1389 l 543 1389 l 641 1136 l 476 1136 m -8 0 l 134 1010 l 891 1010 l 865 821 l 360 821 l 333 631 l 775 631 l 749 442 l 307 442 l 271 189 l 777 189 l 750 0 l -8 0 z "},"Ё":{"ha":884,"x_min":-8,"x_max":891,"o":"m 0 0 m -8 0 l 134 1010 l 891 1010 l 865 821 l 360 821 l 333 631 l 775 631 l 749 442 l 307 442 l 271 189 l 777 189 l 750 0 l -8 0 m 372 1124 q 287 1145 318 1124 q 263 1220 255 1167 l 265 1239 q 311 1316 273 1293 q 403 1338 348 1338 q 489 1316 458 1338 q 513 1239 520 1293 l 510 1220 q 465 1145 503 1167 q 372 1124 427 1124 m 701 1124 q 615 1145 646 1124 q 591 1220 583 1167 l 593 1239 q 639 1316 601 1293 q 731 1338 677 1338 q 818 1316 787 1338 q 841 1239 848 1293 l 838 1220 q 793 1145 831 1167 q 701 1124 755 1124 z "},"Ж":{"ha":884,"x_min":-48,"x_max":936,"o":"m 289 436 l 144 0 l -48 0 l 165 576 l 90 1010 l 285 1010 l 322 600 l 367 600 l 424 1010 l 601 1010 l 544 600 l 590 600 l 740 1010 l 936 1010 l 746 568 l 790 0 l 598 0 l 574 436 l 520 436 l 460 0 l 283 0 l 343 436 l 289 436 z "},"З":{"ha":884,"x_min":8,"x_max":852,"o":"m 374 -13 q 92 62 177 -13 q 21 293 8 136 l 275 306 q 302 200 273 226 q 398 174 331 174 q 497 201 466 174 q 537 283 529 227 l 542 317 q 522 407 551 380 q 432 434 494 434 l 293 434 l 319 620 l 458 620 q 537 638 509 620 q 571 702 564 655 l 577 742 q 561 815 583 794 q 489 836 539 836 q 407 813 438 836 q 360 730 376 789 l 110 742 q 237 954 139 885 q 503 1023 336 1023 q 775 963 697 1023 q 833 769 852 904 l 830 746 q 762 614 818 667 q 616 551 706 562 l 611 514 q 756 448 708 505 q 792 298 804 390 l 789 277 q 670 56 768 124 q 374 -13 572 -13 z "},"И":{"ha":884,"x_min":-8,"x_max":891,"o":"m 529 0 l 621 659 l 287 0 l -8 0 l 134 1010 l 355 1010 l 255 295 l 617 1010 l 891 1010 l 750 0 l 529 0 z "},"Ѝ":{"ha":884,"x_min":-8,"x_max":891,"o":"m 0 0 m 476 1136 l 227 1389 l 543 1389 l 641 1136 l 476 1136 m 529 0 l 621 659 l 287 0 l -8 0 l 134 1010 l 355 1010 l 255 295 l 617 1010 l 891 1010 l 750 0 l 529 0 z "},"Й":{"ha":884,"x_min":-8,"x_max":896,"o":"m 0 0 m 529 0 l 621 659 l 287 0 l -8 0 l 134 1010 l 355 1010 l 255 295 l 617 1010 l 891 1010 l 750 0 l 529 0 m 524 1128 q 301 1193 391 1128 q 235 1418 210 1258 l 451 1431 q 458 1313 438 1348 q 545 1278 477 1278 q 643 1313 614 1278 q 683 1431 673 1348 l 896 1418 q 766 1193 876 1258 q 524 1128 657 1128 z "},"К":{"ha":884,"x_min":-8,"x_max":936,"o":"m 0 0 m 304 423 l 245 0 l -8 0 l 134 1010 l 386 1010 l 331 612 l 381 612 l 677 1010 l 936 1010 l 559 543 l 790 0 l 535 0 l 359 423 l 304 423 z "},"Ќ":{"ha":884,"x_min":-8,"x_max":936,"o":"m 0 0 m 444 1136 l 614 1389 l 929 1389 l 610 1136 l 444 1136 m 304 423 l 245 0 l -8 0 l 134 1010 l 386 1010 l 331 612 l 381 612 l 677 1010 l 936 1010 l 559 543 l 790 0 l 535 0 l 359 423 l 304 423 z "},"Л":{"ha":884,"x_min":-68,"x_max":891,"o":"m 497 0 l 612 821 l 455 821 l 379 299 q 277 62 356 141 q 63 -18 197 -18 q -1 -11 32 -18 q -68 5 -34 -4 l -16 196 q 15 188 -1 192 q 44 184 30 184 q 97 210 74 184 q 131 314 119 236 l 234 1010 l 891 1010 l 750 0 l 497 0 z "},"М":{"ha":884,"x_min":-20,"x_max":904,"o":"m 0 0 m 337 316 l 264 644 l 201 0 l -20 0 l 121 1010 l 355 1010 l 451 542 l 677 1010 l 904 1010 l 763 0 l 542 0 l 658 636 l 496 316 l 337 316 z "},"Н":{"ha":884,"x_min":-8,"x_max":891,"o":"m 0 0 m -8 0 l 134 1010 l 386 1010 l 337 657 l 590 657 l 639 1010 l 891 1010 l 750 0 l 497 0 l 563 467 l 311 467 l 245 0 l -8 0 z "},"О":{"ha":884,"x_min":15,"x_max":869,"o":"m 15 0 m 370 -13 q 100 73 184 -13 q 37 312 15 159 l 90 693 q 221 935 111 847 q 516 1023 331 1023 q 785 935 702 1023 q 847 693 869 847 l 794 312 q 664 73 773 159 q 370 -13 556 -13 m 396 177 q 499 213 465 177 q 545 337 533 250 l 591 668 q 580 794 604 755 q 489 833 557 833 q 386 794 420 833 q 338 668 351 755 l 293 337 q 304 213 280 250 q 396 177 328 177 z "},"П":{"ha":884,"x_min":-8,"x_max":891,"o":"m 0 0 m -8 0 l 134 1010 l 891 1010 l 750 0 l 497 0 l 612 821 l 360 821 l 245 0 l -8 0 z "},"Р":{"ha":884,"x_min":-8,"x_max":872,"o":"m 0 0 m -8 0 l 134 1010 l 528 1010 q 784 941 696 1010 q 851 721 872 871 l 832 581 q 706 371 812 437 q 431 306 600 306 l 288 306 l 245 0 l -8 0 m 314 492 l 441 492 q 539 514 504 492 q 582 602 573 535 l 596 705 q 578 797 606 773 q 486 821 549 821 l 360 821 l 314 492 z "},"С":{"ha":884,"x_min":14,"x_max":886,"o":"m 14 0 m 383 -13 q 100 69 187 -13 q 37 312 14 150 l 90 693 q 223 941 114 859 q 529 1023 333 1023 q 807 937 729 1023 q 867 655 886 851 l 614 643 q 600 797 622 760 q 501 833 578 833 q 389 795 427 833 q 338 667 351 756 l 293 337 q 307 214 280 251 q 409 177 335 177 q 517 213 485 177 q 573 362 549 249 l 824 350 q 686 71 788 155 q 383 -13 583 -13 z "},"Т":{"ha":884,"x_min":82,"x_max":917,"o":"m 82 0 m 245 0 l 360 821 l 82 821 l 109 1010 l 917 1010 l 890 821 l 612 821 l 497 0 l 245 0 z "},"У":{"ha":884,"x_min":-34,"x_max":923,"o":"m 149 -9 q 58 -3 105 -9 q -34 11 11 3 l 14 201 q 95 187 58 192 q 163 182 133 182 q 261 204 221 182 q 332 292 302 226 l 343 316 l 247 316 l 101 1010 l 347 1010 l 442 519 l 676 1010 l 923 1010 l 543 244 q 382 54 479 116 q 149 -9 285 -9 z "},"Ў":{"ha":884,"x_min":-34,"x_max":923,"o":"m 0 0 m 149 -9 q 58 -3 105 -9 q -34 11 11 3 l 14 201 q 95 187 58 192 q 163 182 133 182 q 261 204 221 182 q 332 292 302 226 l 343 316 l 247 316 l 101 1010 l 347 1010 l 442 519 l 676 1010 l 923 1010 l 543 244 q 382 54 479 116 q 149 -9 285 -9 m 524 1128 q 301 1193 391 1128 q 235 1418 210 1258 l 451 1431 q 458 1313 438 1348 q 545 1278 477 1278 q 643 1313 614 1278 q 683 1431 673 1348 l 896 1418 q 766 1193 876 1258 q 524 1128 657 1128 z "},"Ф":{"ha":884,"x_min":16,"x_max":867,"o":"m 496 114 l 487 114 l 470 -13 l 269 -13 l 287 114 l 278 114 q 79 201 141 114 q 39 451 16 289 l 54 554 q 165 807 77 717 q 390 896 253 896 l 396 896 l 414 1023 l 615 1023 l 597 896 l 606 896 q 805 807 742 896 q 845 554 867 717 l 830 451 q 720 201 807 289 q 496 114 633 114 m 593 720 l 566 720 l 505 290 l 533 290 q 593 333 572 290 q 624 451 614 376 l 639 554 q 641 674 649 628 q 593 720 633 720 m 297 290 l 317 290 l 378 720 l 357 720 q 292 674 314 720 q 259 554 269 628 l 244 451 q 244 333 234 376 q 297 290 254 290 z "},"Х":{"ha":884,"x_min":-40,"x_max":924,"o":"m 0 0 m 534 0 l 409 314 l 201 0 l -40 0 l 328 520 l 133 1010 l 390 1010 l 497 731 l 683 1010 l 924 1010 l 578 521 l 779 0 l 534 0 z "},"Ц":{"ha":884,"x_min":-8,"x_max":854,"o":"m 534 -189 l 561 0 l -8 0 l 134 1010 l 386 1010 l 271 189 l 486 189 l 601 1010 l 854 1010 l 739 189 l 840 189 l 787 -189 l 534 -189 z "},"Ч":{"ha":884,"x_min":53,"x_max":885,"o":"m 885 1010 l 744 0 l 491 0 l 535 316 l 409 316 q 135 396 217 316 q 77 645 53 477 l 128 1010 l 380 1010 l 330 648 q 345 539 319 574 q 436 503 371 503 l 562 503 l 633 1010 l 885 1010 z "},"Ш":{"ha":884,"x_min":-24,"x_max":908,"o":"m -24 0 l 117 1010 l 323 1010 l 207 177 l 297 177 l 413 1010 l 611 1010 l 495 177 l 586 177 l 702 1010 l 908 1010 l 766 0 l -24 0 z "},"Щ":{"ha":884,"x_min":-24,"x_max":908,"o":"m 784 -253 l 572 -253 l 607 0 l -24 0 l 117 1010 l 323 1010 l 207 177 l 297 177 l 413 1010 l 611 1010 l 495 177 l 586 177 l 702 1010 l 908 1010 l 792 177 l 845 177 l 784 -253 z "},"Ъ":{"ha":884,"x_min":44,"x_max":843,"o":"m 437 0 l 93 0 l 208 821 l 44 821 l 71 1010 l 481 1010 l 438 705 l 537 705 q 771 639 698 705 q 824 443 843 573 l 802 279 q 691 70 783 140 q 437 0 598 0 m 366 189 l 429 189 q 521 216 491 189 q 559 304 551 242 l 574 409 q 560 492 582 467 q 476 518 538 518 l 413 518 l 366 189 z "},"Ы":{"ha":884,"x_min":-24,"x_max":908,"o":"m -24 0 l 117 1010 l 323 1010 l 280 705 l 309 705 q 506 643 446 705 q 548 456 566 581 l 521 266 q 425 66 503 133 q 210 0 347 0 l -24 0 m 561 0 l 702 1010 l 908 1010 l 766 0 l 561 0 m 207 177 l 232 177 q 297 203 275 177 q 326 292 318 230 l 345 422 q 338 505 352 480 q 282 530 324 530 l 256 530 l 207 177 z "},"Ь":{"ha":884,"x_min":-8,"x_max":869,"o":"m -8 0 l 134 1010 l 386 1010 l 343 705 l 524 705 q 785 638 701 705 q 850 443 869 571 l 827 279 q 705 71 808 143 q 424 0 602 0 l -8 0 m 271 189 l 410 189 q 530 216 491 189 q 578 304 569 242 l 593 409 q 569 492 601 467 q 457 518 538 518 l 318 518 l 271 189 z "},"Э":{"ha":884,"x_min":-1,"x_max":870,"o":"m 357 -13 q 79 73 159 -13 q 16 350 -1 158 l 270 362 q 284 213 264 250 q 384 177 304 177 q 504 220 475 177 q 545 337 534 263 l 559 442 l 370 442 l 396 631 l 586 631 l 591 667 q 578 794 604 755 q 476 833 553 833 q 365 794 396 833 q 311 643 333 754 l 59 655 q 199 936 96 850 q 501 1023 303 1023 q 783 939 696 1023 q 847 693 870 856 l 794 312 q 661 69 771 152 q 357 -13 551 -13 z "},"Ю":{"ha":884,"x_min":-24,"x_max":889,"o":"m 515 -13 q 342 60 394 -13 q 307 261 289 133 l 332 442 l 242 442 l 181 0 l -24 0 l 117 1010 l 322 1010 l 269 631 l 359 631 l 375 744 q 467 949 393 875 q 662 1023 540 1023 q 836 949 784 1023 q 871 744 889 875 l 803 261 q 712 60 785 133 q 515 -13 639 -13 m 542 177 q 581 199 569 177 q 597 261 592 222 l 665 744 q 666 809 670 784 q 634 833 662 833 q 594 809 606 833 q 577 744 582 784 l 509 261 q 509 199 504 222 q 542 177 514 177 z "},"Я":{"ha":884,"x_min":-32,"x_max":891,"o":"m 447 543 l 573 543 l 612 821 l 486 821 q 384 798 415 821 q 346 715 354 775 l 336 649 q 352 566 327 588 q 447 543 376 543 m 547 354 l 467 354 l 232 0 l -32 0 l 223 379 q 114 476 148 410 q 95 640 81 542 l 107 731 q 220 938 126 866 q 473 1010 314 1010 l 891 1010 l 750 0 l 497 0 l 547 354 z "},"Ґ":{"ha":884,"x_min":56,"x_max":944,"o":"m 56 0 l 197 1010 l 664 1010 l 692 1199 l 944 1199 l 890 821 l 423 821 l 308 0 l 56 0 z "},"a":{"ha":884,"x_min":-5,"x_max":813,"o":"m 306 139 q 383 149 345 139 q 460 176 422 159 l 476 299 l 324 299 q 265 282 285 299 q 237 213 245 265 q 248 158 232 177 q 306 139 264 139 m 218 -13 q 52 47 109 -13 q 9 208 -5 106 q 107 371 24 316 q 323 426 191 426 l 494 426 l 506 511 q 489 583 514 564 q 409 601 463 601 q 322 579 352 601 q 271 497 292 557 l 73 529 q 201 717 120 664 q 442 770 283 770 q 690 706 615 770 q 746 513 765 643 l 708 240 q 729 180 701 191 q 813 176 758 169 l 789 6 q 619 8 679 -19 q 544 114 558 34 l 506 114 q 382 25 458 63 q 218 -13 306 -13 z "},"à":{"ha":884,"x_min":-5,"x_max":813,"o":"m 0 0 m 306 139 q 383 149 345 139 q 460 176 422 159 l 476 299 l 324 299 q 265 282 285 299 q 237 213 245 265 q 248 158 232 177 q 306 139 264 139 m 218 -13 q 52 47 109 -13 q 9 208 -5 106 q 107 371 24 316 q 323 426 191 426 l 494 426 l 506 511 q 489 583 514 564 q 409 601 463 601 q 322 579 352 601 q 271 497 292 557 l 73 529 q 201 717 120 664 q 442 770 283 770 q 690 706 615 770 q 746 513 765 643 l 708 240 q 729 180 701 191 q 813 176 758 169 l 789 6 q 619 8 679 -19 q 544 114 558 34 l 506 114 q 382 25 458 63 q 218 -13 306 -13 m 458 884 l 210 1136 l 525 1136 l 624 884 l 458 884 z "},"á":{"ha":884,"x_min":-5,"x_max":813,"o":"m 0 0 m 306 139 q 383 149 345 139 q 460 176 422 159 l 476 299 l 324 299 q 265 282 285 299 q 237 213 245 265 q 248 158 232 177 q 306 139 264 139 m 218 -13 q 52 47 109 -13 q 9 208 -5 106 q 107 371 24 316 q 323 426 191 426 l 494 426 l 506 511 q 489 583 514 564 q 409 601 463 601 q 322 579 352 601 q 271 497 292 557 l 73 529 q 201 717 120 664 q 442 770 283 770 q 690 706 615 770 q 746 513 765 643 l 708 240 q 729 180 701 191 q 813 176 758 169 l 789 6 q 619 8 679 -19 q 544 114 558 34 l 506 114 q 382 25 458 63 q 218 -13 306 -13 m 313 884 l 482 1136 l 798 1136 l 479 884 l 313 884 z "},"â":{"ha":884,"x_min":-5,"x_max":824,"o":"m 0 0 m 306 139 q 383 149 345 139 q 460 176 422 159 l 476 299 l 324 299 q 265 282 285 299 q 237 213 245 265 q 248 158 232 177 q 306 139 264 139 m 218 -13 q 52 47 109 -13 q 9 208 -5 106 q 107 371 24 316 q 323 426 191 426 l 494 426 l 506 511 q 489 583 514 564 q 409 601 463 601 q 322 579 352 601 q 271 497 292 557 l 73 529 q 201 717 120 664 q 442 770 283 770 q 690 706 615 770 q 746 513 765 643 l 708 240 q 729 180 701 191 q 813 176 758 169 l 789 6 q 619 8 679 -19 q 544 114 558 34 l 506 114 q 382 25 458 63 q 218 -13 306 -13 m 229 864 l 165 970 l 426 1170 l 617 1170 l 824 970 l 732 865 l 497 997 l 229 864 z "},"ã":{"ha":884,"x_min":-5,"x_max":841,"o":"m 0 0 m 306 139 q 383 149 345 139 q 460 176 422 159 l 476 299 l 324 299 q 265 282 285 299 q 237 213 245 265 q 248 158 232 177 q 306 139 264 139 m 218 -13 q 52 47 109 -13 q 9 208 -5 106 q 107 371 24 316 q 323 426 191 426 l 494 426 l 506 511 q 489 583 514 564 q 409 601 463 601 q 322 579 352 601 q 271 497 292 557 l 73 529 q 201 717 120 664 q 442 770 283 770 q 690 706 615 770 q 746 513 765 643 l 708 240 q 729 180 701 191 q 813 176 758 169 l 789 6 q 619 8 679 -19 q 544 114 558 34 l 506 114 q 382 25 458 63 q 218 -13 306 -13 m 606 896 q 514 915 544 896 q 466 956 484 934 q 434 997 449 979 q 395 1015 419 1015 q 356 997 375 1015 q 330 920 337 979 l 328 909 l 168 909 l 170 928 q 249 1104 186 1033 q 405 1174 312 1174 q 496 1155 466 1174 q 544 1115 525 1136 q 578 1073 563 1092 q 614 1054 592 1054 q 653 1073 634 1054 q 679 1149 672 1091 l 681 1160 l 841 1160 l 838 1141 q 761 967 824 1038 q 606 896 698 896 z "},"ä":{"ha":884,"x_min":-5,"x_max":813,"o":"m 0 0 m 306 139 q 383 149 345 139 q 460 176 422 159 l 476 299 l 324 299 q 265 282 285 299 q 237 213 245 265 q 248 158 232 177 q 306 139 264 139 m 218 -13 q 52 47 109 -13 q 9 208 -5 106 q 107 371 24 316 q 323 426 191 426 l 494 426 l 506 511 q 489 583 514 564 q 409 601 463 601 q 322 579 352 601 q 271 497 292 557 l 73 529 q 201 717 120 664 q 442 770 283 770 q 690 706 615 770 q 746 513 765 643 l 708 240 q 729 180 701 191 q 813 176 758 169 l 789 6 q 619 8 679 -19 q 544 114 558 34 l 506 114 q 382 25 458 63 q 218 -13 306 -13 m 317 871 q 231 893 263 871 q 207 967 199 914 l 210 986 q 255 1063 217 1040 q 347 1086 293 1086 q 434 1063 403 1086 q 457 986 465 1040 l 455 967 q 409 893 447 914 q 317 871 371 871 m 645 871 q 559 893 591 871 q 535 967 528 914 l 538 986 q 583 1063 545 1040 q 676 1086 621 1086 q 762 1063 731 1086 q 785 986 793 1040 l 783 967 q 737 893 775 914 q 645 871 699 871 z "},"å":{"ha":884,"x_min":-5,"x_max":813,"o":"m 0 0 m 306 139 q 383 149 345 139 q 460 176 422 159 l 476 299 l 324 299 q 265 282 285 299 q 237 213 245 265 q 248 158 232 177 q 306 139 264 139 m 218 -13 q 52 47 109 -13 q 9 208 -5 106 q 107 371 24 316 q 323 426 191 426 l 494 426 l 506 511 q 489 583 514 564 q 409 601 463 601 q 322 579 352 601 q 271 497 292 557 l 73 529 q 201 717 120 664 q 442 770 283 770 q 690 706 615 770 q 746 513 765 643 l 708 240 q 729 180 701 191 q 813 176 758 169 l 789 6 q 619 8 679 -19 q 544 114 558 34 l 506 114 q 382 25 458 63 q 218 -13 306 -13 m 466 852 q 281 900 347 852 q 229 1048 215 948 l 234 1088 q 328 1239 247 1189 q 527 1288 408 1288 q 712 1239 646 1288 q 764 1088 778 1189 l 759 1048 q 665 900 745 948 q 466 852 585 852 m 482 967 q 552 985 527 967 q 585 1048 578 1004 l 590 1088 q 576 1152 596 1131 q 511 1173 556 1173 q 440 1152 466 1173 q 408 1088 414 1131 l 403 1048 q 417 985 396 1004 q 482 967 437 967 z "},"ā":{"ha":884,"x_min":-5,"x_max":813,"o":"m 0 0 m 306 139 q 383 149 345 139 q 460 176 422 159 l 476 299 l 324 299 q 265 282 285 299 q 237 213 245 265 q 248 158 232 177 q 306 139 264 139 m 218 -13 q 52 47 109 -13 q 9 208 -5 106 q 107 371 24 316 q 323 426 191 426 l 494 426 l 506 511 q 489 583 514 564 q 409 601 463 601 q 322 579 352 601 q 271 497 292 557 l 73 529 q 201 717 120 664 q 442 770 283 770 q 690 706 615 770 q 746 513 765 643 l 708 240 q 729 180 701 191 q 813 176 758 169 l 789 6 q 619 8 679 -19 q 544 114 558 34 l 506 114 q 382 25 458 63 q 218 -13 306 -13 m 191 915 l 217 1105 l 785 1105 l 759 915 l 191 915 z "},"ă":{"ha":884,"x_min":-5,"x_max":848,"o":"m 0 0 m 306 139 q 383 149 345 139 q 460 176 422 159 l 476 299 l 324 299 q 265 282 285 299 q 237 213 245 265 q 248 158 232 177 q 306 139 264 139 m 218 -13 q 52 47 109 -13 q 9 208 -5 106 q 107 371 24 316 q 323 426 191 426 l 494 426 l 506 511 q 489 583 514 564 q 409 601 463 601 q 322 579 352 601 q 271 497 292 557 l 73 529 q 201 717 120 664 q 442 770 283 770 q 690 706 615 770 q 746 513 765 643 l 708 240 q 729 180 701 191 q 813 176 758 169 l 789 6 q 619 8 679 -19 q 544 114 558 34 l 506 114 q 382 25 458 63 q 218 -13 306 -13 m 468 875 q 226 949 298 875 q 174 1178 154 1024 l 376 1178 q 391 1059 366 1092 q 490 1025 417 1025 q 598 1059 563 1025 q 646 1178 634 1092 l 848 1178 q 732 949 826 1024 q 468 875 639 875 z "},"ą":{"ha":884,"x_min":-5,"x_max":835,"o":"m 0 0 m 306 139 q 383 149 345 139 q 460 176 422 159 l 476 299 l 324 299 q 265 282 285 299 q 237 213 245 265 q 248 158 232 177 q 306 139 264 139 m 218 -13 q 52 47 109 -13 q 9 208 -5 106 q 107 371 24 316 q 323 426 191 426 l 494 426 l 506 511 q 489 583 514 564 q 409 601 463 601 q 322 579 352 601 q 271 497 292 557 l 73 529 q 201 717 120 664 q 442 770 283 770 q 690 706 615 770 q 746 513 765 643 l 708 240 q 729 180 701 191 q 813 176 758 169 l 789 6 q 619 8 679 -19 q 544 114 558 34 l 506 114 q 382 25 458 63 q 218 -13 306 -13 m 649 -283 q 487 -242 543 -283 q 443 -121 432 -202 q 527 20 455 -38 q 678 97 600 77 l 702 29 q 643 -21 655 3 q 628 -67 630 -45 q 642 -116 622 -100 q 712 -131 662 -131 q 766 -128 735 -131 q 835 -119 797 -125 l 813 -265 q 726 -278 768 -274 q 649 -283 684 -283 z "},"ǻ":{"ha":884,"x_min":-5,"x_max":848,"o":"m 0 0 m 306 139 q 383 149 345 139 q 460 176 422 159 l 476 299 l 324 299 q 265 282 285 299 q 237 213 245 265 q 248 158 232 177 q 306 139 264 139 m 218 -13 q 52 47 109 -13 q 9 208 -5 106 q 107 371 24 316 q 323 426 191 426 l 494 426 l 506 511 q 489 583 514 564 q 409 601 463 601 q 322 579 352 601 q 271 497 292 557 l 73 529 q 201 717 120 664 q 442 770 283 770 q 690 706 615 770 q 746 513 765 643 l 708 240 q 729 180 701 191 q 813 176 758 169 l 789 6 q 619 8 679 -19 q 544 114 558 34 l 506 114 q 382 25 458 63 q 218 -13 306 -13 m 466 852 q 281 900 347 852 q 229 1048 215 948 l 234 1088 q 328 1239 247 1189 q 527 1288 408 1288 q 712 1239 646 1288 q 764 1088 778 1189 l 759 1048 q 665 900 745 948 q 466 852 585 852 m 482 967 q 552 985 527 967 q 585 1048 578 1004 l 590 1088 q 576 1152 596 1131 q 511 1173 556 1173 q 440 1152 466 1173 q 408 1088 414 1131 l 403 1048 q 417 985 396 1004 q 482 967 437 967 m 364 1263 l 533 1515 l 848 1515 l 529 1263 l 364 1263 z "},"b":{"ha":884,"x_min":18,"x_max":826,"o":"m 361 -8 q 182 17 270 -8 q 18 88 95 42 l 146 1010 l 399 1010 l 345 619 l 383 619 q 487 731 422 692 q 633 770 552 770 q 778 701 730 770 q 811 518 826 633 l 777 277 q 650 65 756 138 q 361 -8 544 -8 m 400 168 q 484 193 453 168 q 524 278 515 217 l 551 468 q 539 554 559 527 q 479 581 518 581 q 407 565 443 581 q 331 518 371 549 l 285 199 q 342 176 314 183 q 400 168 369 168 z "},"":{"ha":884,"x_min":18,"x_max":826,"o":"m 361 -8 q 182 17 270 -8 q 18 88 95 42 l 146 1010 l 399 1010 l 345 619 l 383 619 q 487 731 422 692 q 633 770 552 770 q 778 701 730 770 q 811 518 826 633 l 777 277 q 650 65 756 138 q 361 -8 544 -8 m 400 168 q 484 193 453 168 q 524 278 515 217 l 551 468 q 539 554 559 527 q 479 581 518 581 q 407 565 443 581 q 331 518 371 549 l 285 199 q 342 176 314 183 q 400 168 369 168 z "},"c":{"ha":884,"x_min":25,"x_max":807,"o":"m 381 -13 q 112 64 198 -13 q 45 287 25 141 l 72 476 q 201 693 92 616 q 490 770 309 770 q 735 695 664 770 q 807 485 807 620 l 561 465 q 542 564 564 537 q 457 592 519 592 q 362 563 393 592 q 322 458 332 533 l 299 299 q 311 194 289 223 q 399 164 333 164 q 490 187 461 164 q 533 268 519 210 l 774 247 q 664 55 747 122 q 381 -13 580 -13 z "},"ç":{"ha":884,"x_min":25,"x_max":807,"o":"m 25 0 m 381 -13 q 112 64 198 -13 q 45 287 25 141 l 72 476 q 201 693 92 616 q 490 770 309 770 q 735 695 664 770 q 807 485 807 620 l 561 465 q 542 564 564 537 q 457 592 519 592 q 362 563 393 592 q 322 458 332 533 l 299 299 q 311 194 289 223 q 399 164 333 164 q 490 187 461 164 q 533 268 519 210 l 774 247 q 664 55 747 122 q 381 -13 580 -13 m 391 0 l 424 53 q 595 8 532 43 q 646 -111 658 -27 q 542 -246 633 -206 q 348 -285 452 -285 q 156 -246 227 -285 q 91 -114 85 -206 l 306 -101 q 316 -134 304 -125 q 359 -144 328 -144 q 412 -131 393 -144 q 437 -74 431 -117 q 432 -26 441 -43 q 391 0 423 -9 z "},"ć":{"ha":884,"x_min":25,"x_max":869,"o":"m 25 0 m 381 -13 q 112 64 198 -13 q 45 287 25 141 l 72 476 q 201 693 92 616 q 490 770 309 770 q 735 695 664 770 q 807 485 807 620 l 561 465 q 542 564 564 537 q 457 592 519 592 q 362 563 393 592 q 322 458 332 533 l 299 299 q 311 194 289 223 q 399 164 333 164 q 490 187 461 164 q 533 268 519 210 l 774 247 q 664 55 747 122 q 381 -13 580 -13 m 384 884 l 553 1136 l 869 1136 l 549 884 l 384 884 z "},"ĉ":{"ha":884,"x_min":25,"x_max":845,"o":"m 25 0 m 249 864 l 186 970 l 446 1170 l 638 1170 l 845 970 l 753 865 l 518 997 l 249 864 m 381 -13 q 112 64 198 -13 q 45 287 25 141 l 72 476 q 201 693 92 616 q 490 770 309 770 q 735 695 664 770 q 807 485 807 620 l 561 465 q 542 564 564 537 q 457 592 519 592 q 362 563 393 592 q 322 458 332 533 l 299 299 q 311 194 289 223 q 399 164 333 164 q 490 187 461 164 q 533 268 519 210 l 774 247 q 664 55 747 122 q 381 -13 580 -13 z "},"ċ":{"ha":884,"x_min":25,"x_max":807,"o":"m 25 0 m 381 -13 q 112 64 198 -13 q 45 287 25 141 l 72 476 q 201 693 92 616 q 490 770 309 770 q 735 695 664 770 q 807 485 807 620 l 561 465 q 542 564 564 537 q 457 592 519 592 q 362 563 393 592 q 322 458 332 533 l 299 299 q 311 194 289 223 q 399 164 333 164 q 490 187 461 164 q 533 268 519 210 l 774 247 q 664 55 747 122 q 381 -13 580 -13 m 501 871 q 388 893 429 871 q 354 967 346 914 l 356 986 q 412 1063 364 1040 q 532 1086 460 1086 q 645 1063 604 1086 q 679 986 687 1040 l 677 967 q 621 893 669 914 q 501 871 572 871 z "},"č":{"ha":884,"x_min":25,"x_max":861,"o":"m 25 0 m 409 889 l 202 1090 l 294 1194 l 529 1062 l 798 1196 l 861 1090 l 601 889 l 409 889 m 381 -13 q 112 64 198 -13 q 45 287 25 141 l 72 476 q 201 693 92 616 q 490 770 309 770 q 735 695 664 770 q 807 485 807 620 l 561 465 q 542 564 564 537 q 457 592 519 592 q 362 563 393 592 q 322 458 332 533 l 299 299 q 311 194 289 223 q 399 164 333 164 q 490 187 461 164 q 533 268 519 210 l 774 247 q 664 55 747 122 q 381 -13 580 -13 z "},"d":{"ha":884,"x_min":24,"x_max":879,"o":"m 371 177 q 442 193 407 177 q 519 240 477 208 l 563 558 q 510 581 539 572 q 449 590 481 590 q 364 563 395 590 q 324 480 333 535 l 298 289 q 311 204 290 231 q 371 177 332 177 m 466 139 q 362 27 427 67 q 217 -13 297 -13 q 68 62 112 -13 q 39 240 24 138 l 73 481 q 185 689 91 614 q 426 765 279 765 q 513 758 472 765 q 588 736 554 750 l 626 1010 l 879 1010 l 737 0 l 485 0 l 504 139 l 466 139 z "},"ď":{"ha":884,"x_min":24,"x_max":1326,"o":"m 24 0 m 898 890 l 1014 1263 l 1326 1263 l 1039 890 l 898 890 m 371 177 q 442 193 407 177 q 519 240 477 208 l 563 558 q 510 581 539 572 q 449 590 481 590 q 364 563 395 590 q 324 480 333 535 l 298 289 q 311 204 290 231 q 371 177 332 177 m 466 139 q 362 27 427 67 q 217 -13 297 -13 q 68 62 112 -13 q 39 240 24 138 l 73 481 q 185 689 91 614 q 426 765 279 765 q 513 758 472 765 q 588 736 554 750 l 626 1010 l 879 1010 l 737 0 l 485 0 l 504 139 l 466 139 z "},"e":{"ha":884,"x_min":24,"x_max":823,"o":"m 780 179 q 628 28 715 69 q 375 -13 542 -13 q 121 59 218 -13 q 44 278 24 131 l 72 479 q 199 693 91 615 q 481 770 308 770 q 738 693 653 770 q 804 476 823 615 l 784 328 l 304 328 l 294 260 q 311 176 287 207 q 404 145 335 145 q 501 162 458 145 q 581 234 543 179 l 780 179 m 328 504 l 322 455 l 549 455 l 554 492 q 545 591 564 563 q 458 619 527 619 q 364 593 390 619 q 328 504 337 567 z "},"è":{"ha":884,"x_min":24,"x_max":823,"o":"m 24 0 m 477 884 l 229 1136 l 544 1136 l 643 884 l 477 884 m 780 179 q 628 28 715 69 q 375 -13 542 -13 q 121 59 218 -13 q 44 278 24 131 l 72 479 q 199 693 91 615 q 481 770 308 770 q 738 693 653 770 q 804 476 823 615 l 784 328 l 304 328 l 294 260 q 311 176 287 207 q 404 145 335 145 q 501 162 458 145 q 581 234 543 179 l 780 179 m 328 504 l 322 455 l 549 455 l 554 492 q 545 591 564 563 q 458 619 527 619 q 364 593 390 619 q 328 504 337 567 z "},"é":{"ha":884,"x_min":24,"x_max":842,"o":"m 24 0 m 357 884 l 527 1136 l 842 1136 l 523 884 l 357 884 m 780 179 q 628 28 715 69 q 375 -13 542 -13 q 121 59 218 -13 q 44 278 24 131 l 72 479 q 199 693 91 615 q 481 770 308 770 q 738 693 653 770 q 804 476 823 615 l 784 328 l 304 328 l 294 260 q 311 176 287 207 q 404 145 335 145 q 501 162 458 145 q 581 234 543 179 l 780 179 m 328 504 l 322 455 l 549 455 l 554 492 q 545 591 564 563 q 458 619 527 619 q 364 593 390 619 q 328 504 337 567 z "},"ê":{"ha":884,"x_min":24,"x_max":843,"o":"m 24 0 m 247 864 l 184 970 l 444 1170 l 636 1170 l 843 970 l 751 865 l 516 997 l 247 864 m 780 179 q 628 28 715 69 q 375 -13 542 -13 q 121 59 218 -13 q 44 278 24 131 l 72 479 q 199 693 91 615 q 481 770 308 770 q 738 693 653 770 q 804 476 823 615 l 784 328 l 304 328 l 294 260 q 311 176 287 207 q 404 145 335 145 q 501 162 458 145 q 581 234 543 179 l 780 179 m 328 504 l 322 455 l 549 455 l 554 492 q 545 591 564 563 q 458 619 527 619 q 364 593 390 619 q 328 504 337 567 z "},"ë":{"ha":884,"x_min":24,"x_max":823,"o":"m 24 0 m 780 179 q 628 28 715 69 q 375 -13 542 -13 q 121 59 218 -13 q 44 278 24 131 l 72 479 q 199 693 91 615 q 481 770 308 770 q 738 693 653 770 q 804 476 823 615 l 784 328 l 304 328 l 294 260 q 311 176 287 207 q 404 145 335 145 q 501 162 458 145 q 581 234 543 179 l 780 179 m 328 504 l 322 455 l 549 455 l 554 492 q 545 591 564 563 q 458 619 527 619 q 364 593 390 619 q 328 504 337 567 m 336 871 q 250 893 282 871 q 226 967 218 914 l 229 986 q 274 1063 236 1040 q 366 1086 312 1086 q 453 1063 422 1086 q 476 986 484 1040 l 473 967 q 428 893 466 914 q 336 871 390 871 m 664 871 q 578 893 610 871 q 554 967 547 914 l 557 986 q 602 1063 564 1040 q 694 1086 640 1086 q 781 1063 750 1086 q 804 986 812 1040 l 802 967 q 756 893 794 914 q 664 871 718 871 z "},"ē":{"ha":884,"x_min":24,"x_max":823,"o":"m 24 0 m 780 179 q 628 28 715 69 q 375 -13 542 -13 q 121 59 218 -13 q 44 278 24 131 l 72 479 q 199 693 91 615 q 481 770 308 770 q 738 693 653 770 q 804 476 823 615 l 784 328 l 304 328 l 294 260 q 311 176 287 207 q 404 145 335 145 q 501 162 458 145 q 581 234 543 179 l 780 179 m 328 504 l 322 455 l 549 455 l 554 492 q 545 591 564 563 q 458 619 527 619 q 364 593 390 619 q 328 504 337 567 m 222 915 l 249 1105 l 817 1105 l 790 915 l 222 915 z "},"ĕ":{"ha":884,"x_min":24,"x_max":867,"o":"m 24 0 m 780 179 q 628 28 715 69 q 375 -13 542 -13 q 121 59 218 -13 q 44 278 24 131 l 72 479 q 199 693 91 615 q 481 770 308 770 q 738 693 653 770 q 804 476 823 615 l 784 328 l 304 328 l 294 260 q 311 176 287 207 q 404 145 335 145 q 501 162 458 145 q 581 234 543 179 l 780 179 m 328 504 l 322 455 l 549 455 l 554 492 q 545 591 564 563 q 458 619 527 619 q 364 593 390 619 q 328 504 337 567 m 487 875 q 245 949 317 875 q 193 1178 173 1024 l 395 1178 q 410 1059 385 1092 q 509 1025 436 1025 q 617 1059 582 1025 q 665 1178 653 1092 l 867 1178 q 751 949 845 1024 q 487 875 658 875 z "},"ė":{"ha":884,"x_min":24,"x_max":823,"o":"m 24 0 m 500 871 q 386 893 428 871 q 352 967 345 914 l 355 986 q 410 1063 362 1040 q 530 1086 458 1086 q 644 1063 602 1086 q 678 986 686 1040 l 676 967 q 619 893 668 914 q 500 871 571 871 m 780 179 q 628 28 715 69 q 375 -13 542 -13 q 121 59 218 -13 q 44 278 24 131 l 72 479 q 199 693 91 615 q 481 770 308 770 q 738 693 653 770 q 804 476 823 615 l 784 328 l 304 328 l 294 260 q 311 176 287 207 q 404 145 335 145 q 501 162 458 145 q 581 234 543 179 l 780 179 m 328 504 l 322 455 l 549 455 l 554 492 q 545 591 564 563 q 458 619 527 619 q 364 593 390 619 q 328 504 337 567 z "},"ę":{"ha":884,"x_min":24,"x_max":823,"o":"m 24 0 m 518 -283 q 356 -242 412 -283 q 312 -121 301 -202 q 396 20 323 -38 q 547 97 468 77 l 571 29 q 511 -21 524 3 q 496 -67 499 -45 q 511 -116 491 -100 q 581 -131 530 -131 q 634 -128 604 -131 q 703 -119 665 -125 l 682 -265 q 595 -278 636 -274 q 518 -283 553 -283 m 780 179 q 628 28 715 69 q 375 -13 542 -13 q 121 59 218 -13 q 44 278 24 131 l 72 479 q 199 693 91 615 q 481 770 308 770 q 738 693 653 770 q 804 476 823 615 l 784 328 l 304 328 l 294 260 q 311 176 287 207 q 404 145 335 145 q 501 162 458 145 q 581 234 543 179 l 780 179 m 328 504 l 322 455 l 549 455 l 554 492 q 545 591 564 563 q 458 619 527 619 q 364 593 390 619 q 328 504 337 567 z "},"ě":{"ha":884,"x_min":24,"x_max":860,"o":"m 24 0 m 408 889 l 201 1090 l 293 1194 l 528 1062 l 797 1196 l 860 1090 l 600 889 l 408 889 m 780 179 q 628 28 715 69 q 375 -13 542 -13 q 121 59 218 -13 q 44 278 24 131 l 72 479 q 199 693 91 615 q 481 770 308 770 q 738 693 653 770 q 804 476 823 615 l 784 328 l 304 328 l 294 260 q 311 176 287 207 q 404 145 335 145 q 501 162 458 145 q 581 234 543 179 l 780 179 m 328 504 l 322 455 l 549 455 l 554 492 q 545 591 564 563 q 458 619 527 619 q 364 593 390 619 q 328 504 337 567 z "},"f":{"ha":884,"x_min":87,"x_max":894,"o":"m 172 -253 l 289 581 l 87 581 l 111 758 l 313 758 l 319 797 q 436 987 336 915 q 687 1059 537 1059 q 793 1053 740 1059 q 894 1030 846 1047 l 846 871 q 767 890 804 884 q 697 895 730 895 q 611 867 645 895 q 568 775 577 840 l 566 758 l 843 758 l 819 581 l 542 581 l 424 -253 l 172 -253 z "},"g":{"ha":884,"x_min":-56,"x_max":881,"o":"m 770 -33 q 668 -201 756 -136 q 444 -265 580 -265 l 227 -265 q 11 -213 77 -265 q -45 -88 -56 -160 q 9 15 -37 -24 q 115 59 56 53 l 117 85 q 45 129 73 100 q 25 218 18 158 q 92 333 35 289 q 222 385 149 376 l 226 410 q 132 463 163 427 q 109 557 101 500 l 109 559 q 215 707 122 657 q 428 758 307 758 l 881 758 l 862 619 l 658 641 l 655 616 q 725 569 699 604 q 745 490 750 534 l 744 485 q 638 342 731 391 q 419 292 544 292 l 308 292 q 241 278 266 292 q 211 232 215 264 q 228 187 206 201 q 292 173 250 173 l 514 173 q 715 122 645 173 q 770 -33 785 71 m 409 405 q 485 427 460 405 q 515 484 510 448 l 524 547 q 509 600 528 578 q 439 621 490 621 q 364 600 389 621 q 335 547 338 578 l 326 484 q 339 427 321 448 q 409 405 357 405 m 250 -126 l 462 -126 q 530 -115 503 -126 q 564 -62 558 -104 q 545 -9 571 -20 q 480 1 520 1 l 205 1 l 197 -57 q 205 -108 192 -90 q 250 -126 218 -126 z "},"ĝ":{"ha":884,"x_min":-56,"x_max":881,"o":"m 0 0 m 254 864 l 191 970 l 451 1170 l 643 1170 l 850 970 l 758 865 l 523 997 l 254 864 m 770 -33 q 668 -201 756 -136 q 444 -265 580 -265 l 227 -265 q 11 -213 77 -265 q -45 -88 -56 -160 q 9 15 -37 -24 q 115 59 56 53 l 117 85 q 45 129 73 100 q 25 218 18 158 q 92 333 35 289 q 222 385 149 376 l 226 410 q 132 463 163 427 q 109 557 101 500 l 109 559 q 215 707 122 657 q 428 758 307 758 l 881 758 l 862 619 l 658 641 l 655 616 q 725 569 699 604 q 745 490 750 534 l 744 485 q 638 342 731 391 q 419 292 544 292 l 308 292 q 241 278 266 292 q 211 232 215 264 q 228 187 206 201 q 292 173 250 173 l 514 173 q 715 122 645 173 q 770 -33 785 71 m 409 405 q 485 427 460 405 q 515 484 510 448 l 524 547 q 509 600 528 578 q 439 621 490 621 q 364 600 389 621 q 335 547 338 578 l 326 484 q 339 427 321 448 q 409 405 357 405 m 250 -126 l 462 -126 q 530 -115 503 -126 q 564 -62 558 -104 q 545 -9 571 -20 q 480 1 520 1 l 205 1 l 197 -57 q 205 -108 192 -90 q 250 -126 218 -126 z "},"ğ":{"ha":884,"x_min":-56,"x_max":881,"o":"m 0 0 m 494 875 q 251 949 323 875 q 199 1178 179 1024 l 402 1178 q 417 1059 391 1092 q 515 1025 442 1025 q 624 1059 588 1025 q 672 1178 659 1092 l 874 1178 q 758 949 851 1024 q 494 875 664 875 m 770 -33 q 668 -201 756 -136 q 444 -265 580 -265 l 227 -265 q 11 -213 77 -265 q -45 -88 -56 -160 q 9 15 -37 -24 q 115 59 56 53 l 117 85 q 45 129 73 100 q 25 218 18 158 q 92 333 35 289 q 222 385 149 376 l 226 410 q 132 463 163 427 q 109 557 101 500 l 109 559 q 215 707 122 657 q 428 758 307 758 l 881 758 l 862 619 l 658 641 l 655 616 q 725 569 699 604 q 745 490 750 534 l 744 485 q 638 342 731 391 q 419 292 544 292 l 308 292 q 241 278 266 292 q 211 232 215 264 q 228 187 206 201 q 292 173 250 173 l 514 173 q 715 122 645 173 q 770 -33 785 71 m 409 405 q 485 427 460 405 q 515 484 510 448 l 524 547 q 509 600 528 578 q 439 621 490 621 q 364 600 389 621 q 335 547 338 578 l 326 484 q 339 427 321 448 q 409 405 357 405 m 250 -126 l 462 -126 q 530 -115 503 -126 q 564 -62 558 -104 q 545 -9 571 -20 q 480 1 520 1 l 205 1 l 197 -57 q 205 -108 192 -90 q 250 -126 218 -126 z "},"ġ":{"ha":884,"x_min":-56,"x_max":881,"o":"m 0 0 m 494 871 q 380 893 422 871 q 346 967 338 914 l 348 986 q 404 1063 356 1040 q 524 1086 452 1086 q 638 1063 596 1086 q 672 986 679 1040 l 669 967 q 613 893 662 914 q 494 871 564 871 m 770 -33 q 668 -201 756 -136 q 444 -265 580 -265 l 227 -265 q 11 -213 77 -265 q -45 -88 -56 -160 q 9 15 -37 -24 q 115 59 56 53 l 117 85 q 45 129 73 100 q 25 218 18 158 q 92 333 35 289 q 222 385 149 376 l 226 410 q 132 463 163 427 q 109 557 101 500 l 109 559 q 215 707 122 657 q 428 758 307 758 l 881 758 l 862 619 l 658 641 l 655 616 q 725 569 699 604 q 745 490 750 534 l 744 485 q 638 342 731 391 q 419 292 544 292 l 308 292 q 241 278 266 292 q 211 232 215 264 q 228 187 206 201 q 292 173 250 173 l 514 173 q 715 122 645 173 q 770 -33 785 71 m 409 405 q 485 427 460 405 q 515 484 510 448 l 524 547 q 509 600 528 578 q 439 621 490 621 q 364 600 389 621 q 335 547 338 578 l 326 484 q 339 427 321 448 q 409 405 357 405 m 250 -126 l 462 -126 q 530 -115 503 -126 q 564 -62 558 -104 q 545 -9 571 -20 q 480 1 520 1 l 205 1 l 197 -57 q 205 -108 192 -90 q 250 -126 218 -126 z "},"ģ":{"ha":884,"x_min":-56,"x_max":881,"o":"m 0 0 m 770 -33 q 668 -201 756 -136 q 444 -265 580 -265 l 227 -265 q 11 -213 77 -265 q -45 -88 -56 -160 q 9 15 -37 -24 q 115 59 56 53 l 117 85 q 45 129 73 100 q 25 218 18 158 q 92 333 35 289 q 222 385 149 376 l 226 410 q 132 463 163 427 q 109 557 101 500 l 109 559 q 215 707 122 657 q 428 758 307 758 l 881 758 l 862 619 l 658 641 l 655 616 q 725 569 699 604 q 745 490 750 534 l 744 485 q 638 342 731 391 q 419 292 544 292 l 308 292 q 241 278 266 292 q 211 232 215 264 q 228 187 206 201 q 292 173 250 173 l 514 173 q 715 122 645 173 q 770 -33 785 71 m 409 405 q 485 427 460 405 q 515 484 510 448 l 524 547 q 509 600 528 578 q 439 621 490 621 q 364 600 389 621 q 335 547 338 578 l 326 484 q 339 427 321 448 q 409 405 357 405 m 250 -126 l 462 -126 q 530 -115 503 -126 q 564 -62 558 -104 q 545 -9 571 -20 q 480 1 520 1 l 205 1 l 197 -57 q 205 -108 192 -90 q 250 -126 218 -126 m 326 884 l 595 1136 l 760 1136 l 641 884 l 326 884 z "},"h":{"ha":884,"x_min":5,"x_max":828,"o":"m 5 0 l 146 1010 l 399 1010 l 345 619 l 383 619 q 491 730 424 691 q 635 770 557 770 q 780 708 731 770 q 813 542 828 645 l 737 0 l 485 0 l 552 472 q 543 553 558 525 q 492 581 528 581 q 410 551 453 581 q 324 472 366 521 l 258 0 l 5 0 z "},"ĥ":{"ha":884,"x_min":-24,"x_max":828,"o":"m 0 0 m 5 0 l 146 1010 l 399 1010 l 345 619 l 383 619 q 491 730 424 691 q 635 770 557 770 q 780 708 731 770 q 813 542 828 645 l 737 0 l 485 0 l 552 472 q 543 553 558 525 q 492 581 528 581 q 410 551 453 581 q 324 472 366 521 l 258 0 l 5 0 m 39 1116 l -24 1222 l 236 1423 l 428 1423 l 635 1222 l 543 1117 l 308 1250 l 39 1116 z "},"i":{"ha":884,"x_min":18,"x_max":750,"o":"m 18 0 m 18 0 l 43 177 l 270 177 l 327 581 l 100 581 l 124 758 l 604 758 l 523 177 l 750 177 l 725 0 l 18 0 m 508 871 q 394 893 436 871 q 360 967 352 914 l 362 986 q 418 1063 370 1040 q 538 1086 466 1086 q 652 1063 610 1086 q 686 986 693 1040 l 683 967 q 627 893 676 914 q 508 871 578 871 z "},"ì":{"ha":884,"x_min":18,"x_max":750,"o":"m 18 0 m 496 884 l 247 1136 l 563 1136 l 662 884 l 496 884 m 18 0 l 43 177 l 270 177 l 327 581 l 100 581 l 124 758 l 604 758 l 523 177 l 750 177 l 725 0 l 18 0 z "},"í":{"ha":884,"x_min":18,"x_max":811,"o":"m 18 0 m 326 884 l 495 1136 l 811 1136 l 491 884 l 326 884 m 18 0 l 43 177 l 270 177 l 327 581 l 100 581 l 124 758 l 604 758 l 523 177 l 750 177 l 725 0 l 18 0 z "},"î":{"ha":884,"x_min":18,"x_max":837,"o":"m 18 0 m 241 864 l 178 970 l 438 1170 l 630 1170 l 837 970 l 745 865 l 510 997 l 241 864 m 18 0 l 43 177 l 270 177 l 327 581 l 100 581 l 124 758 l 604 758 l 523 177 l 750 177 l 725 0 l 18 0 z "},"ï":{"ha":884,"x_min":18,"x_max":806,"o":"m 18 0 m 18 0 l 43 177 l 270 177 l 327 581 l 100 581 l 124 758 l 604 758 l 523 177 l 750 177 l 725 0 l 18 0 m 330 871 q 244 893 275 871 q 220 967 212 914 l 222 986 q 268 1063 230 1040 q 360 1086 306 1086 q 446 1063 415 1086 q 470 986 477 1040 l 467 967 q 422 893 460 914 q 330 871 384 871 m 658 871 q 572 893 604 871 q 548 967 540 914 l 551 986 q 596 1063 558 1040 q 688 1086 634 1086 q 775 1063 744 1086 q 798 986 806 1040 l 795 967 q 750 893 788 914 q 658 871 712 871 z "},"ĩ":{"ha":884,"x_min":18,"x_max":854,"o":"m 18 0 m 18 0 l 43 177 l 270 177 l 327 581 l 100 581 l 124 758 l 604 758 l 523 177 l 750 177 l 725 0 l 18 0 m 619 896 q 527 915 557 896 q 479 956 496 934 q 447 997 462 979 q 408 1015 432 1015 q 369 997 388 1015 q 342 920 350 979 l 341 909 l 181 909 l 183 928 q 261 1104 198 1033 q 418 1174 324 1174 q 508 1155 479 1174 q 557 1115 538 1136 q 590 1073 576 1092 q 626 1054 605 1054 q 665 1073 646 1054 q 692 1149 684 1091 l 693 1160 l 854 1160 l 851 1141 q 774 967 837 1038 q 619 896 711 896 z "},"ī":{"ha":884,"x_min":18,"x_max":811,"o":"m 18 0 m 18 0 l 43 177 l 270 177 l 327 581 l 100 581 l 124 758 l 604 758 l 523 177 l 750 177 l 725 0 l 18 0 m 216 915 l 242 1105 l 811 1105 l 784 915 l 216 915 z "},"ĭ":{"ha":884,"x_min":18,"x_max":874,"o":"m 18 0 m 18 0 l 43 177 l 270 177 l 327 581 l 100 581 l 124 758 l 604 758 l 523 177 l 750 177 l 725 0 l 18 0 m 494 875 q 251 949 323 875 q 199 1178 179 1024 l 402 1178 q 417 1059 391 1092 q 515 1025 442 1025 q 624 1059 588 1025 q 672 1178 659 1092 l 874 1178 q 758 949 851 1024 q 494 875 664 875 z "},"į":{"ha":884,"x_min":18,"x_max":750,"o":"m 18 0 m 508 871 q 394 893 436 871 q 360 967 352 914 l 362 986 q 418 1063 370 1040 q 538 1086 466 1086 q 652 1063 610 1086 q 686 986 693 1040 l 683 967 q 627 893 676 914 q 508 871 578 871 m 18 0 l 43 177 l 270 177 l 327 581 l 100 581 l 124 758 l 604 758 l 523 177 l 750 177 l 725 0 l 18 0 m 415 -283 q 254 -242 309 -283 q 210 -121 198 -202 q 294 20 221 -38 q 444 97 366 77 l 468 29 q 409 -21 422 3 q 394 -67 396 -45 q 408 -116 389 -100 q 479 -131 428 -131 q 532 -128 501 -131 q 601 -119 563 -125 l 580 -265 q 492 -278 534 -274 q 415 -283 451 -283 z "},"j":{"ha":884,"x_min":-39,"x_max":780,"o":"m 0 0 m 192 -265 q 73 -259 133 -265 q -39 -236 14 -254 l 8 -77 q 100 -97 57 -92 q 183 -101 144 -101 q 306 -73 259 -101 q 361 19 352 -45 l 441 581 l 126 581 l 150 758 l 717 758 l 611 -3 q 482 -195 593 -125 q 192 -265 370 -265 m 595 871 q 481 893 523 871 q 447 967 439 914 l 449 986 q 505 1063 457 1040 q 625 1086 553 1086 q 739 1063 697 1086 q 773 986 780 1040 l 770 967 q 714 893 763 914 q 595 871 665 871 z "},"ĵ":{"ha":884,"x_min":-39,"x_max":907,"o":"m 0 0 m 192 -265 q 73 -259 133 -265 q -39 -236 14 -254 l 8 -77 q 100 -97 57 -92 q 183 -101 144 -101 q 306 -73 259 -101 q 361 19 352 -45 l 441 581 l 126 581 l 150 758 l 717 758 l 611 -3 q 482 -195 593 -125 q 192 -265 370 -265 m 311 864 l 247 970 l 508 1170 l 699 1170 l 907 970 l 814 865 l 580 997 l 311 864 z "},"k":{"ha":884,"x_min":18,"x_max":875,"o":"m 313 309 l 270 0 l 18 0 l 159 1010 l 412 1010 l 337 473 l 384 473 l 616 758 l 875 758 l 585 417 l 765 0 l 497 0 l 360 309 l 313 309 z "},"ķ":{"ha":884,"x_min":18,"x_max":875,"o":"m 18 0 m 313 309 l 270 0 l 18 0 l 159 1010 l 412 1010 l 337 473 l 384 473 l 616 758 l 875 758 l 585 417 l 765 0 l 497 0 l 360 309 l 313 309 m 140 -379 l 259 -126 l 574 -126 l 306 -379 l 140 -379 z "},"l":{"ha":884,"x_min":30,"x_max":775,"o":"m 30 0 l 56 177 l 295 177 l 388 833 l 148 833 l 172 1010 l 664 1010 l 548 177 l 775 177 l 750 0 l 30 0 z "},"ĺ":{"ha":884,"x_min":30,"x_max":804,"o":"m 30 0 m 319 1136 l 489 1389 l 804 1389 l 485 1136 l 319 1136 m 30 0 l 56 177 l 295 177 l 388 833 l 148 833 l 172 1010 l 664 1010 l 548 177 l 775 177 l 750 0 l 30 0 z "},"ļ":{"ha":884,"x_min":30,"x_max":775,"o":"m 30 0 m 30 0 l 56 177 l 295 177 l 388 833 l 148 833 l 172 1010 l 664 1010 l 548 177 l 775 177 l 750 0 l 30 0 m 92 -379 l 211 -126 l 527 -126 l 258 -379 l 92 -379 z "},"ľ":{"ha":884,"x_min":30,"x_max":1136,"o":"m 30 0 m 708 890 l 824 1263 l 1136 1263 l 850 890 l 708 890 m 30 0 l 56 177 l 295 177 l 388 833 l 148 833 l 172 1010 l 664 1010 l 548 177 l 775 177 l 750 0 l 30 0 z "},"m":{"ha":884,"x_min":-24,"x_max":861,"o":"m 256 535 l 181 0 l -24 0 l 82 758 l 284 758 l 270 657 l 309 657 q 377 737 341 710 q 455 764 413 764 q 523 737 495 764 q 557 657 552 711 l 592 657 q 663 737 621 710 q 756 764 705 764 q 836 717 811 764 q 850 592 861 670 l 766 0 l 562 0 l 639 548 q 637 591 643 576 q 619 606 631 606 q 583 588 602 606 q 547 535 563 569 l 471 0 l 271 0 l 348 548 q 347 591 352 576 q 328 606 341 606 q 292 588 312 606 q 256 535 273 569 z "},"n":{"ha":884,"x_min":5,"x_max":828,"o":"m 5 0 l 111 758 l 364 758 l 345 619 l 383 619 q 493 730 423 691 q 648 770 563 770 q 785 710 742 770 q 813 542 828 650 l 737 0 l 485 0 l 554 497 q 544 559 561 538 q 492 581 528 581 q 408 560 453 581 q 327 497 364 539 l 258 0 l 5 0 z "},"ñ":{"ha":884,"x_min":5,"x_max":879,"o":"m 5 0 m 644 896 q 552 915 582 896 q 504 956 521 934 q 472 997 487 979 q 433 1015 457 1015 q 394 997 413 1015 q 367 920 375 979 l 366 909 l 206 909 l 208 928 q 287 1104 223 1033 q 443 1174 350 1174 q 533 1155 504 1174 q 582 1115 563 1136 q 616 1073 601 1092 q 652 1054 630 1054 q 691 1073 672 1054 q 717 1149 710 1091 l 718 1160 l 879 1160 l 876 1141 q 799 967 862 1038 q 644 896 736 896 m 5 0 l 111 758 l 364 758 l 345 619 l 383 619 q 493 730 423 691 q 648 770 563 770 q 785 710 742 770 q 813 542 828 650 l 737 0 l 485 0 l 554 497 q 544 559 561 538 q 492 581 528 581 q 408 560 453 581 q 327 497 364 539 l 258 0 l 5 0 z "},"ń":{"ha":884,"x_min":5,"x_max":836,"o":"m 5 0 m 351 884 l 520 1136 l 836 1136 l 516 884 l 351 884 m 5 0 l 111 758 l 364 758 l 345 619 l 383 619 q 493 730 423 691 q 648 770 563 770 q 785 710 742 770 q 813 542 828 650 l 737 0 l 485 0 l 554 497 q 544 559 561 538 q 492 581 528 581 q 408 560 453 581 q 327 497 364 539 l 258 0 l 5 0 z "},"ņ":{"ha":884,"x_min":5,"x_max":828,"o":"m 5 0 m 111 -379 l 230 -126 l 545 -126 l 277 -379 l 111 -379 m 5 0 l 111 758 l 364 758 l 345 619 l 383 619 q 493 730 423 691 q 648 770 563 770 q 785 710 742 770 q 813 542 828 650 l 737 0 l 485 0 l 554 497 q 544 559 561 538 q 492 581 528 581 q 408 560 453 581 q 327 497 364 539 l 258 0 l 5 0 z "},"ň":{"ha":884,"x_min":5,"x_max":879,"o":"m 5 0 m 427 889 l 220 1090 l 312 1194 l 547 1062 l 816 1196 l 879 1090 l 619 889 l 427 889 m 5 0 l 111 758 l 364 758 l 345 619 l 383 619 q 493 730 423 691 q 648 770 563 770 q 785 710 742 770 q 813 542 828 650 l 737 0 l 485 0 l 554 497 q 544 559 561 538 q 492 581 528 581 q 408 560 453 581 q 327 497 364 539 l 258 0 l 5 0 z "},"o":{"ha":884,"x_min":24,"x_max":823,"o":"m 370 -13 q 111 63 198 -13 q 43 274 24 139 l 72 479 q 199 693 91 615 q 481 770 308 770 q 738 691 653 770 q 804 472 823 611 l 775 268 q 649 62 756 136 q 370 -13 542 -13 m 394 164 q 485 193 455 164 q 525 287 516 222 l 551 467 q 537 564 559 534 q 455 593 515 593 q 363 564 394 593 q 323 470 332 534 l 299 293 q 311 194 289 225 q 394 164 333 164 z "},"ò":{"ha":884,"x_min":24,"x_max":823,"o":"m 24 0 m 471 884 l 222 1136 l 538 1136 l 636 884 l 471 884 m 370 -13 q 111 63 198 -13 q 43 274 24 139 l 72 479 q 199 693 91 615 q 481 770 308 770 q 738 691 653 770 q 804 472 823 611 l 775 268 q 649 62 756 136 q 370 -13 542 -13 m 394 164 q 485 193 455 164 q 525 287 516 222 l 551 467 q 537 564 559 534 q 455 593 515 593 q 363 564 394 593 q 323 470 332 534 l 299 293 q 311 194 289 225 q 394 164 333 164 z "},"ó":{"ha":884,"x_min":24,"x_max":823,"o":"m 24 0 m 326 884 l 495 1136 l 811 1136 l 491 884 l 326 884 m 370 -13 q 111 63 198 -13 q 43 274 24 139 l 72 479 q 199 693 91 615 q 481 770 308 770 q 738 691 653 770 q 804 472 823 611 l 775 268 q 649 62 756 136 q 370 -13 542 -13 m 394 164 q 485 193 455 164 q 525 287 516 222 l 551 467 q 537 564 559 534 q 455 593 515 593 q 363 564 394 593 q 323 470 332 534 l 299 293 q 311 194 289 225 q 394 164 333 164 z "},"ô":{"ha":884,"x_min":24,"x_max":837,"o":"m 24 0 m 241 864 l 178 970 l 438 1170 l 630 1170 l 837 970 l 745 865 l 510 997 l 241 864 m 370 -13 q 111 63 198 -13 q 43 274 24 139 l 72 479 q 199 693 91 615 q 481 770 308 770 q 738 691 653 770 q 804 472 823 611 l 775 268 q 649 62 756 136 q 370 -13 542 -13 m 394 164 q 485 193 455 164 q 525 287 516 222 l 551 467 q 537 564 559 534 q 455 593 515 593 q 363 564 394 593 q 323 470 332 534 l 299 293 q 311 194 289 225 q 394 164 333 164 z "},"õ":{"ha":884,"x_min":24,"x_max":854,"o":"m 24 0 m 619 896 q 527 915 557 896 q 479 956 496 934 q 447 997 462 979 q 408 1015 432 1015 q 369 997 388 1015 q 342 920 350 979 l 341 909 l 181 909 l 183 928 q 261 1104 198 1033 q 418 1174 324 1174 q 508 1155 479 1174 q 557 1115 538 1136 q 590 1073 576 1092 q 626 1054 605 1054 q 665 1073 646 1054 q 692 1149 684 1091 l 693 1160 l 854 1160 l 851 1141 q 774 967 837 1038 q 619 896 711 896 m 370 -13 q 111 63 198 -13 q 43 274 24 139 l 72 479 q 199 693 91 615 q 481 770 308 770 q 738 691 653 770 q 804 472 823 611 l 775 268 q 649 62 756 136 q 370 -13 542 -13 m 394 164 q 485 193 455 164 q 525 287 516 222 l 551 467 q 537 564 559 534 q 455 593 515 593 q 363 564 394 593 q 323 470 332 534 l 299 293 q 311 194 289 225 q 394 164 333 164 z "},"ö":{"ha":884,"x_min":24,"x_max":823,"o":"m 24 0 m 330 871 q 244 893 275 871 q 220 967 212 914 l 222 986 q 268 1063 230 1040 q 360 1086 306 1086 q 446 1063 415 1086 q 470 986 477 1040 l 467 967 q 422 893 460 914 q 330 871 384 871 m 658 871 q 572 893 604 871 q 548 967 540 914 l 551 986 q 596 1063 558 1040 q 688 1086 634 1086 q 775 1063 744 1086 q 798 986 806 1040 l 795 967 q 750 893 788 914 q 658 871 712 871 m 370 -13 q 111 63 198 -13 q 43 274 24 139 l 72 479 q 199 693 91 615 q 481 770 308 770 q 738 691 653 770 q 804 472 823 611 l 775 268 q 649 62 756 136 q 370 -13 542 -13 m 394 164 q 485 193 455 164 q 525 287 516 222 l 551 467 q 537 564 559 534 q 455 593 515 593 q 363 564 394 593 q 323 470 332 534 l 299 293 q 311 194 289 225 q 394 164 333 164 z "},"ō":{"ha":884,"x_min":24,"x_max":823,"o":"m 24 0 m 216 915 l 242 1105 l 811 1105 l 784 915 l 216 915 m 370 -13 q 111 63 198 -13 q 43 274 24 139 l 72 479 q 199 693 91 615 q 481 770 308 770 q 738 691 653 770 q 804 472 823 611 l 775 268 q 649 62 756 136 q 370 -13 542 -13 m 394 164 q 485 193 455 164 q 525 287 516 222 l 551 467 q 537 564 559 534 q 455 593 515 593 q 363 564 394 593 q 323 470 332 534 l 299 293 q 311 194 289 225 q 394 164 333 164 z "},"ŏ":{"ha":884,"x_min":24,"x_max":886,"o":"m 24 0 m 506 875 q 264 949 336 875 q 212 1178 192 1024 l 414 1178 q 429 1059 404 1092 q 528 1025 455 1025 q 636 1059 601 1025 q 684 1178 672 1092 l 886 1178 q 770 949 864 1024 q 506 875 677 875 m 370 -13 q 111 63 198 -13 q 43 274 24 139 l 72 479 q 199 693 91 615 q 481 770 308 770 q 738 691 653 770 q 804 472 823 611 l 775 268 q 649 62 756 136 q 370 -13 542 -13 m 394 164 q 485 193 455 164 q 525 287 516 222 l 551 467 q 537 564 559 534 q 455 593 515 593 q 363 564 394 593 q 323 470 332 534 l 299 293 q 311 194 289 225 q 394 164 333 164 z "},"ő":{"ha":884,"x_min":24,"x_max":886,"o":"m 24 0 m 553 884 l 646 1136 l 886 1136 l 681 884 l 553 884 m 263 884 l 356 1136 l 596 1136 l 390 884 l 263 884 m 370 -13 q 111 63 198 -13 q 43 274 24 139 l 72 479 q 199 693 91 615 q 481 770 308 770 q 738 691 653 770 q 804 472 823 611 l 775 268 q 649 62 756 136 q 370 -13 542 -13 m 394 164 q 485 193 455 164 q 525 287 516 222 l 551 467 q 537 564 559 534 q 455 593 515 593 q 363 564 394 593 q 323 470 332 534 l 299 293 q 311 194 289 225 q 394 164 333 164 z "},"p":{"ha":884,"x_min":-30,"x_max":827,"o":"m 400 168 q 484 193 453 168 q 524 278 515 218 l 551 468 q 539 554 559 527 q 479 581 518 581 q 407 565 443 581 q 331 518 371 549 l 285 201 q 340 176 316 184 q 400 168 365 168 m 423 -8 q 337 0 380 -8 q 260 21 294 8 l 222 -253 l -30 -253 l 111 758 l 364 758 l 345 619 l 383 619 q 487 729 420 688 q 633 770 554 770 q 779 702 731 770 q 811 518 827 634 l 777 277 q 662 69 758 145 q 423 -8 567 -8 z "},"q":{"ha":884,"x_min":24,"x_max":835,"o":"m 449 -253 l 504 139 l 466 139 q 373 34 434 81 q 217 -13 312 -13 q 68 62 112 -13 q 39 240 24 138 l 73 481 q 199 691 92 617 q 487 765 307 765 q 678 746 574 765 q 835 694 782 727 l 702 -253 l 449 -253 m 371 177 q 442 193 407 177 q 519 240 477 208 l 563 558 q 516 580 543 571 q 449 590 489 590 q 365 565 396 590 q 324 480 333 540 l 298 289 q 311 204 290 231 q 371 177 332 177 z "},"r":{"ha":884,"x_min":30,"x_max":842,"o":"m 30 0 l 136 758 l 389 758 l 370 619 l 408 619 q 513 734 447 698 q 660 770 578 770 q 801 714 759 770 q 828 556 842 658 l 808 414 l 581 414 l 591 484 q 581 554 597 528 q 515 581 566 581 q 429 561 472 581 q 352 492 385 542 l 283 0 l 30 0 z "},"ŕ":{"ha":884,"x_min":30,"x_max":842,"o":"m 30 0 m 357 884 l 527 1136 l 842 1136 l 523 884 l 357 884 m 30 0 l 136 758 l 389 758 l 370 619 l 408 619 q 513 734 447 698 q 660 770 578 770 q 801 714 759 770 q 828 556 842 658 l 808 414 l 581 414 l 591 484 q 581 554 597 528 q 515 581 566 581 q 429 561 472 581 q 352 492 385 542 l 283 0 l 30 0 z "},"ŗ":{"ha":884,"x_min":-85,"x_max":842,"o":"m 0 0 m 30 0 l 136 758 l 389 758 l 370 619 l 408 619 q 513 734 447 698 q 660 770 578 770 q 801 714 759 770 q 828 556 842 658 l 808 414 l 581 414 l 591 484 q 581 554 597 528 q 515 581 566 581 q 429 561 472 581 q 352 492 385 542 l 283 0 l 30 0 m -85 -379 l 34 -126 l 350 -126 l 81 -379 l -85 -379 z "},"ř":{"ha":884,"x_min":30,"x_max":885,"o":"m 30 0 m 433 889 l 226 1090 l 318 1194 l 553 1062 l 822 1196 l 885 1090 l 625 889 l 433 889 m 30 0 l 136 758 l 389 758 l 370 619 l 408 619 q 513 734 447 698 q 660 770 578 770 q 801 714 759 770 q 828 556 842 658 l 808 414 l 581 414 l 591 484 q 581 554 597 528 q 515 581 566 581 q 429 561 472 581 q 352 492 385 542 l 283 0 l 30 0 z "},"s":{"ha":884,"x_min":18,"x_max":780,"o":"m 371 -8 q 177 18 273 -8 q 18 90 82 44 l 96 240 q 248 170 165 193 q 399 146 331 146 q 480 164 455 146 q 510 215 505 181 q 491 272 515 254 q 407 297 467 290 q 167 360 247 313 q 104 518 87 407 q 218 702 120 634 q 471 770 317 770 q 631 748 548 770 q 777 687 715 726 l 713 545 q 582 599 646 582 q 460 616 518 616 q 388 599 412 616 q 359 551 364 582 q 390 495 354 510 q 505 470 426 480 q 717 398 653 451 q 765 244 780 346 q 647 60 749 128 q 371 -8 545 -8 z "},"":{"ha":884,"x_min":18,"x_max":780,"o":"m 371 -8 q 177 18 273 -8 q 18 90 82 44 l 96 240 q 248 170 165 193 q 399 146 331 146 q 480 164 455 146 q 510 215 505 181 q 491 272 515 254 q 407 297 467 290 q 167 360 247 313 q 104 518 87 407 q 218 702 120 634 q 471 770 317 770 q 631 748 548 770 q 777 687 715 726 l 713 545 q 582 599 646 582 q 460 616 518 616 q 388 599 412 616 q 359 551 364 582 q 390 495 354 510 q 505 470 426 480 q 717 398 653 451 q 765 244 780 346 q 647 60 749 128 q 371 -8 545 -8 z "},"ś":{"ha":884,"x_min":18,"x_max":821,"o":"m 18 0 m 371 -8 q 177 18 273 -8 q 18 90 82 44 l 96 240 q 248 170 165 193 q 399 146 331 146 q 480 164 455 146 q 510 215 505 181 q 491 272 515 254 q 407 297 467 290 q 167 360 247 313 q 104 518 87 407 q 218 702 120 634 q 471 770 317 770 q 631 748 548 770 q 777 687 715 726 l 713 545 q 582 599 646 582 q 460 616 518 616 q 388 599 412 616 q 359 551 364 582 q 390 495 354 510 q 505 470 426 480 q 717 398 653 451 q 765 244 780 346 q 647 60 749 128 q 371 -8 545 -8 m 336 884 l 505 1136 l 821 1136 l 501 884 l 336 884 z "},"ŝ":{"ha":884,"x_min":18,"x_max":835,"o":"m 18 0 m 239 864 l 176 970 l 436 1170 l 628 1170 l 835 970 l 742 865 l 508 997 l 239 864 m 371 -8 q 177 18 273 -8 q 18 90 82 44 l 96 240 q 248 170 165 193 q 399 146 331 146 q 480 164 455 146 q 510 215 505 181 q 491 272 515 254 q 407 297 467 290 q 167 360 247 313 q 104 518 87 407 q 218 702 120 634 q 471 770 317 770 q 631 748 548 770 q 777 687 715 726 l 713 545 q 582 599 646 582 q 460 616 518 616 q 388 599 412 616 q 359 551 364 582 q 390 495 354 510 q 505 470 426 480 q 717 398 653 451 q 765 244 780 346 q 647 60 749 128 q 371 -8 545 -8 z "},"ş":{"ha":884,"x_min":11,"x_max":780,"o":"m 11 0 m 371 -8 q 177 18 273 -8 q 18 90 82 44 l 96 240 q 248 170 165 193 q 399 146 331 146 q 480 164 455 146 q 510 215 505 181 q 491 272 515 254 q 407 297 467 290 q 167 360 247 313 q 104 518 87 407 q 218 702 120 634 q 471 770 317 770 q 631 748 548 770 q 777 687 715 726 l 713 545 q 582 599 646 582 q 460 616 518 616 q 388 599 412 616 q 359 551 364 582 q 390 495 354 510 q 505 470 426 480 q 717 398 653 451 q 765 244 780 346 q 647 60 749 128 q 371 -8 545 -8 m 318 0 l 351 53 q 521 8 458 43 q 573 -111 585 -27 q 469 -246 559 -206 q 275 -285 379 -285 q 83 -246 154 -285 q 18 -114 11 -206 l 232 -101 q 243 -134 231 -125 q 285 -144 255 -144 q 338 -131 319 -144 q 364 -74 357 -117 q 359 -26 367 -43 q 318 0 350 -9 z "},"š":{"ha":884,"x_min":18,"x_max":851,"o":"m 18 0 m 399 889 l 192 1090 l 284 1194 l 519 1062 l 788 1196 l 851 1090 l 591 889 l 399 889 m 371 -8 q 177 18 273 -8 q 18 90 82 44 l 96 240 q 248 170 165 193 q 399 146 331 146 q 480 164 455 146 q 510 215 505 181 q 491 272 515 254 q 407 297 467 290 q 167 360 247 313 q 104 518 87 407 q 218 702 120 634 q 471 770 317 770 q 631 748 548 770 q 777 687 715 726 l 713 545 q 582 599 646 582 q 460 616 518 616 q 388 599 412 616 q 359 551 364 582 q 390 495 354 510 q 505 470 426 480 q 717 398 653 451 q 765 244 780 346 q 647 60 749 128 q 371 -8 545 -8 z "},"ș":{"ha":884,"x_min":18,"x_max":780,"o":"m 18 0 m 371 -8 q 177 18 273 -8 q 18 90 82 44 l 96 240 q 248 170 165 193 q 399 146 331 146 q 480 164 455 146 q 510 215 505 181 q 491 272 515 254 q 407 297 467 290 q 167 360 247 313 q 104 518 87 407 q 218 702 120 634 q 471 770 317 770 q 631 748 548 770 q 777 687 715 726 l 713 545 q 582 599 646 582 q 460 616 518 616 q 388 599 412 616 q 359 551 364 582 q 390 495 354 510 q 505 470 426 480 q 717 398 653 451 q 765 244 780 346 q 647 60 749 128 q 371 -8 545 -8 m 98 -379 l 217 -126 l 533 -126 l 264 -379 l 98 -379 z "},"t":{"ha":884,"x_min":87,"x_max":818,"o":"m 508 -14 q 275 58 350 -14 q 218 263 199 130 l 264 581 l 87 581 l 111 758 l 288 758 l 323 1010 l 576 1010 l 540 758 l 818 758 l 794 581 l 516 581 l 476 298 q 492 195 466 226 q 572 164 519 164 q 641 169 601 164 q 725 189 681 173 l 726 18 q 640 -4 699 6 q 508 -14 580 -14 z "},"ţ":{"ha":884,"x_min":81,"x_max":818,"o":"m 81 0 m 508 -14 q 275 58 350 -14 q 218 263 199 130 l 264 581 l 87 581 l 111 758 l 288 758 l 323 1010 l 576 1010 l 540 758 l 818 758 l 794 581 l 516 581 l 476 298 q 492 195 466 226 q 572 164 519 164 q 641 169 601 164 q 725 189 681 173 l 726 18 q 640 -4 699 6 q 508 -14 580 -14 m 388 0 l 420 53 q 591 8 528 43 q 643 -111 654 -27 q 539 -246 629 -206 q 345 -285 448 -285 q 152 -246 223 -285 q 87 -114 81 -206 l 302 -101 q 313 -134 301 -125 q 355 -144 324 -144 q 408 -131 389 -144 q 433 -74 427 -117 q 428 -26 437 -43 q 388 0 419 -9 z "},"ť":{"ha":884,"x_min":87,"x_max":1073,"o":"m 87 0 m 645 890 l 761 1263 l 1073 1263 l 787 890 l 645 890 m 508 -14 q 275 58 350 -14 q 218 263 199 130 l 264 581 l 87 581 l 111 758 l 288 758 l 323 1010 l 576 1010 l 540 758 l 818 758 l 794 581 l 516 581 l 476 298 q 492 195 466 226 q 572 164 519 164 q 641 169 601 164 q 725 189 681 173 l 726 18 q 640 -4 699 6 q 508 -14 580 -14 z "},"ț":{"ha":884,"x_min":87,"x_max":818,"o":"m 87 0 m 508 -14 q 275 58 350 -14 q 218 263 199 130 l 264 581 l 87 581 l 111 758 l 288 758 l 323 1010 l 576 1010 l 540 758 l 818 758 l 794 581 l 516 581 l 476 298 q 492 195 466 226 q 572 164 519 164 q 641 169 601 164 q 725 189 681 173 l 726 18 q 640 -4 699 6 q 508 -14 580 -14 m 149 -379 l 268 -126 l 583 -126 l 314 -379 l 149 -379 z "},"u":{"ha":884,"x_min":19,"x_max":843,"o":"m 215 -13 q 73 45 128 -13 q 35 216 19 102 l 111 758 l 364 758 l 298 285 q 306 205 290 232 q 357 177 322 177 q 439 206 396 177 q 525 285 482 236 l 591 758 l 843 758 l 737 0 l 485 0 l 504 139 l 466 139 q 348 22 420 57 q 215 -13 277 -13 z "},"ù":{"ha":884,"x_min":19,"x_max":843,"o":"m 19 0 m 484 884 l 235 1136 l 551 1136 l 649 884 l 484 884 m 215 -13 q 73 45 128 -13 q 35 216 19 102 l 111 758 l 364 758 l 298 285 q 306 205 290 232 q 357 177 322 177 q 439 206 396 177 q 525 285 482 236 l 591 758 l 843 758 l 737 0 l 485 0 l 504 139 l 466 139 q 348 22 420 57 q 215 -13 277 -13 z "},"ú":{"ha":884,"x_min":19,"x_max":874,"o":"m 19 0 m 389 884 l 558 1136 l 874 1136 l 554 884 l 389 884 m 215 -13 q 73 45 128 -13 q 35 216 19 102 l 111 758 l 364 758 l 298 285 q 306 205 290 232 q 357 177 322 177 q 439 206 396 177 q 525 285 482 236 l 591 758 l 843 758 l 737 0 l 485 0 l 504 139 l 466 139 q 348 22 420 57 q 215 -13 277 -13 z "},"û":{"ha":884,"x_min":19,"x_max":850,"o":"m 19 0 m 254 864 l 191 970 l 451 1170 l 643 1170 l 850 970 l 758 865 l 523 997 l 254 864 m 215 -13 q 73 45 128 -13 q 35 216 19 102 l 111 758 l 364 758 l 298 285 q 306 205 290 232 q 357 177 322 177 q 439 206 396 177 q 525 285 482 236 l 591 758 l 843 758 l 737 0 l 485 0 l 504 139 l 466 139 q 348 22 420 57 q 215 -13 277 -13 z "},"ü":{"ha":884,"x_min":19,"x_max":843,"o":"m 19 0 m 215 -13 q 73 45 128 -13 q 35 216 19 102 l 111 758 l 364 758 l 298 285 q 306 205 290 232 q 357 177 322 177 q 439 206 396 177 q 525 285 482 236 l 591 758 l 843 758 l 737 0 l 485 0 l 504 139 l 466 139 q 348 22 420 57 q 215 -13 277 -13 m 342 871 q 256 893 288 871 q 232 967 225 914 l 235 986 q 280 1063 242 1040 q 372 1086 318 1086 q 459 1063 428 1086 q 482 986 490 1040 l 480 967 q 434 893 472 914 q 342 871 396 871 m 670 871 q 585 893 616 871 q 561 967 553 914 l 563 986 q 609 1063 571 1040 q 701 1086 646 1086 q 787 1063 756 1086 q 811 986 818 1040 l 808 967 q 763 893 801 914 q 670 871 725 871 z "},"ũ":{"ha":884,"x_min":19,"x_max":854,"o":"m 19 0 m 215 -13 q 73 45 128 -13 q 35 216 19 102 l 111 758 l 364 758 l 298 285 q 306 205 290 232 q 357 177 322 177 q 439 206 396 177 q 525 285 482 236 l 591 758 l 843 758 l 737 0 l 485 0 l 504 139 l 466 139 q 348 22 420 57 q 215 -13 277 -13 m 619 896 q 527 915 557 896 q 479 956 496 934 q 447 997 462 979 q 408 1015 432 1015 q 369 997 388 1015 q 342 920 350 979 l 341 909 l 181 909 l 183 928 q 261 1104 198 1033 q 418 1174 324 1174 q 508 1155 479 1174 q 557 1115 538 1136 q 590 1073 576 1092 q 626 1054 605 1054 q 665 1073 646 1054 q 692 1149 684 1091 l 693 1160 l 854 1160 l 851 1141 q 774 967 837 1038 q 619 896 711 896 z "},"ū":{"ha":884,"x_min":19,"x_max":843,"o":"m 19 0 m 215 -13 q 73 45 128 -13 q 35 216 19 102 l 111 758 l 364 758 l 298 285 q 306 205 290 232 q 357 177 322 177 q 439 206 396 177 q 525 285 482 236 l 591 758 l 843 758 l 737 0 l 485 0 l 504 139 l 466 139 q 348 22 420 57 q 215 -13 277 -13 m 216 915 l 242 1105 l 811 1105 l 784 915 l 216 915 z "},"ŭ":{"ha":884,"x_min":19,"x_max":886,"o":"m 19 0 m 215 -13 q 73 45 128 -13 q 35 216 19 102 l 111 758 l 364 758 l 298 285 q 306 205 290 232 q 357 177 322 177 q 439 206 396 177 q 525 285 482 236 l 591 758 l 843 758 l 737 0 l 485 0 l 504 139 l 466 139 q 348 22 420 57 q 215 -13 277 -13 m 506 875 q 264 949 336 875 q 212 1178 192 1024 l 414 1178 q 429 1059 404 1092 q 528 1025 455 1025 q 636 1059 601 1025 q 684 1178 672 1092 l 886 1178 q 770 949 864 1024 q 506 875 677 875 z "},"ů":{"ha":884,"x_min":19,"x_max":843,"o":"m 19 0 m 215 -13 q 73 45 128 -13 q 35 216 19 102 l 111 758 l 364 758 l 298 285 q 306 205 290 232 q 357 177 322 177 q 439 206 396 177 q 525 285 482 236 l 591 758 l 843 758 l 737 0 l 485 0 l 504 139 l 466 139 q 348 22 420 57 q 215 -13 277 -13 m 504 852 q 319 900 385 852 q 266 1048 253 948 l 271 1088 q 366 1239 285 1189 q 564 1288 446 1288 q 750 1239 684 1288 q 802 1088 816 1189 l 797 1048 q 703 900 783 948 q 504 852 622 852 m 520 967 q 590 985 564 967 q 622 1048 616 1004 l 628 1088 q 614 1152 634 1131 q 549 1173 593 1173 q 478 1152 504 1173 q 446 1088 452 1131 l 441 1048 q 455 985 434 1004 q 520 967 475 967 z "},"ű":{"ha":884,"x_min":19,"x_max":886,"o":"m 19 0 m 553 884 l 646 1136 l 886 1136 l 681 884 l 553 884 m 263 884 l 356 1136 l 596 1136 l 390 884 l 263 884 m 215 -13 q 73 45 128 -13 q 35 216 19 102 l 111 758 l 364 758 l 298 285 q 306 205 290 232 q 357 177 322 177 q 439 206 396 177 q 525 285 482 236 l 591 758 l 843 758 l 737 0 l 485 0 l 504 139 l 466 139 q 348 22 420 57 q 215 -13 277 -13 z "},"ų":{"ha":884,"x_min":19,"x_max":843,"o":"m 19 0 m 605 -283 q 443 -242 499 -283 q 399 -121 388 -202 q 483 20 410 -38 q 634 97 556 77 l 658 29 q 598 -21 611 3 q 583 -67 586 -45 q 598 -116 578 -100 q 668 -131 617 -131 q 722 -128 691 -131 q 790 -119 753 -125 l 769 -265 q 682 -278 723 -274 q 605 -283 640 -283 m 215 -13 q 73 45 128 -13 q 35 216 19 102 l 111 758 l 364 758 l 298 285 q 306 205 290 232 q 357 177 322 177 q 439 206 396 177 q 525 285 482 236 l 591 758 l 843 758 l 737 0 l 485 0 l 504 139 l 466 139 q 348 22 420 57 q 215 -13 277 -13 z "},"v":{"ha":884,"x_min":91,"x_max":862,"o":"m 538 0 l 203 0 l 91 758 l 328 758 l 404 196 l 635 758 l 862 758 l 538 0 z "},"w":{"ha":884,"x_min":47,"x_max":908,"o":"m 470 0 l 422 361 l 278 0 l 58 0 l 47 758 l 260 758 l 253 265 l 384 619 l 528 619 l 569 275 l 694 758 l 908 758 l 684 0 l 470 0 z "},"":{"ha":884,"x_min":47,"x_max":908,"o":"m 470 0 l 422 361 l 278 0 l 58 0 l 47 758 l 260 758 l 253 265 l 384 619 l 528 619 l 569 275 l 694 758 l 908 758 l 684 0 l 470 0 z "},"ŵ":{"ha":884,"x_min":47,"x_max":908,"o":"m 47 0 m 254 864 l 191 970 l 451 1170 l 643 1170 l 850 970 l 758 865 l 523 997 l 254 864 m 470 0 l 422 361 l 278 0 l 58 0 l 47 758 l 260 758 l 253 265 l 384 619 l 528 619 l 569 275 l 694 758 l 908 758 l 684 0 l 470 0 z "},"ẁ":{"ha":884,"x_min":47,"x_max":908,"o":"m 47 0 m 471 884 l 222 1136 l 538 1136 l 636 884 l 471 884 m 470 0 l 422 361 l 278 0 l 58 0 l 47 758 l 260 758 l 253 265 l 384 619 l 528 619 l 569 275 l 694 758 l 908 758 l 684 0 l 470 0 z "},"ẃ":{"ha":884,"x_min":47,"x_max":908,"o":"m 47 0 m 389 884 l 558 1136 l 874 1136 l 554 884 l 389 884 m 470 0 l 422 361 l 278 0 l 58 0 l 47 758 l 260 758 l 253 265 l 384 619 l 528 619 l 569 275 l 694 758 l 908 758 l 684 0 l 470 0 z "},"ẅ":{"ha":884,"x_min":47,"x_max":908,"o":"m 47 0 m 342 871 q 256 893 288 871 q 232 967 225 914 l 235 986 q 280 1063 242 1040 q 372 1086 318 1086 q 459 1063 428 1086 q 482 986 490 1040 l 480 967 q 434 893 472 914 q 342 871 396 871 m 670 871 q 585 893 616 871 q 561 967 553 914 l 563 986 q 609 1063 571 1040 q 701 1086 646 1086 q 787 1063 756 1086 q 811 986 818 1040 l 808 967 q 763 893 801 914 q 670 871 725 871 m 470 0 l 422 361 l 278 0 l 58 0 l 47 758 l 260 758 l 253 265 l 384 619 l 528 619 l 569 275 l 694 758 l 908 758 l 684 0 l 470 0 z "},"x":{"ha":884,"x_min":-25,"x_max":848,"o":"m 511 0 l 391 223 l 223 0 l -25 0 l 303 386 l 102 758 l 354 758 l 460 563 l 600 758 l 848 758 l 551 395 l 765 0 l 511 0 z "},"y":{"ha":884,"x_min":-59,"x_max":888,"o":"m 138 -268 q 46 -264 95 -268 q -59 -253 -3 -260 l -21 -76 q 73 -90 32 -85 q 145 -96 114 -96 q 256 -68 218 -96 q 330 43 294 -40 l 333 51 l 173 51 l 66 758 l 322 758 l 396 197 l 641 758 l 888 758 l 551 20 q 386 -205 477 -141 q 138 -268 295 -268 z "},"":{"ha":884,"x_min":-59,"x_max":888,"o":"m 138 -268 q 46 -264 95 -268 q -59 -253 -3 -260 l -21 -76 q 73 -90 32 -85 q 145 -96 114 -96 q 256 -68 218 -96 q 330 43 294 -40 l 333 51 l 173 51 l 66 758 l 322 758 l 396 197 l 641 758 l 888 758 l 551 20 q 386 -205 477 -141 q 138 -268 295 -268 z "},"ý":{"ha":884,"x_min":-59,"x_max":888,"o":"m 0 0 m 138 -268 q 46 -264 95 -268 q -59 -253 -3 -260 l -21 -76 q 73 -90 32 -85 q 145 -96 114 -96 q 256 -68 218 -96 q 330 43 294 -40 l 333 51 l 173 51 l 66 758 l 322 758 l 396 197 l 641 758 l 888 758 l 551 20 q 386 -205 477 -141 q 138 -268 295 -268 m 326 884 l 495 1136 l 811 1136 l 491 884 l 326 884 z "},"ÿ":{"ha":884,"x_min":-59,"x_max":888,"o":"m 0 0 m 138 -268 q 46 -264 95 -268 q -59 -253 -3 -260 l -21 -76 q 73 -90 32 -85 q 145 -96 114 -96 q 256 -68 218 -96 q 330 43 294 -40 l 333 51 l 173 51 l 66 758 l 322 758 l 396 197 l 641 758 l 888 758 l 551 20 q 386 -205 477 -141 q 138 -268 295 -268 m 330 871 q 244 893 275 871 q 220 967 212 914 l 222 986 q 268 1063 230 1040 q 360 1086 306 1086 q 446 1063 415 1086 q 470 986 477 1040 l 467 967 q 422 893 460 914 q 330 871 384 871 m 658 871 q 572 893 604 871 q 548 967 540 914 l 551 986 q 596 1063 558 1040 q 688 1086 634 1086 q 775 1063 744 1086 q 798 986 806 1040 l 795 967 q 750 893 788 914 q 658 871 712 871 z "},"ŷ":{"ha":884,"x_min":-59,"x_max":888,"o":"m 0 0 m 138 -268 q 46 -264 95 -268 q -59 -253 -3 -260 l -21 -76 q 73 -90 32 -85 q 145 -96 114 -96 q 256 -68 218 -96 q 330 43 294 -40 l 333 51 l 173 51 l 66 758 l 322 758 l 396 197 l 641 758 l 888 758 l 551 20 q 386 -205 477 -141 q 138 -268 295 -268 m 241 864 l 178 970 l 438 1170 l 630 1170 l 837 970 l 745 865 l 510 997 l 241 864 z "},"ỳ":{"ha":884,"x_min":-59,"x_max":888,"o":"m 0 0 m 138 -268 q 46 -264 95 -268 q -59 -253 -3 -260 l -21 -76 q 73 -90 32 -85 q 145 -96 114 -96 q 256 -68 218 -96 q 330 43 294 -40 l 333 51 l 173 51 l 66 758 l 322 758 l 396 197 l 641 758 l 888 758 l 551 20 q 386 -205 477 -141 q 138 -268 295 -268 m 471 884 l 222 1136 l 538 1136 l 636 884 l 471 884 z "},"z":{"ha":884,"x_min":18,"x_max":831,"o":"m 725 0 l 18 0 l 43 177 l 542 581 l 100 581 l 124 758 l 831 758 l 807 581 l 308 177 l 750 177 l 725 0 z "},"ź":{"ha":884,"x_min":18,"x_max":874,"o":"m 18 0 m 389 884 l 558 1136 l 874 1136 l 554 884 l 389 884 m 725 0 l 18 0 l 43 177 l 542 581 l 100 581 l 124 758 l 831 758 l 807 581 l 308 177 l 750 177 l 725 0 z "},"ż":{"ha":884,"x_min":18,"x_max":831,"o":"m 18 0 m 481 871 q 367 893 409 871 q 333 967 326 914 l 336 986 q 391 1063 343 1040 q 511 1086 439 1086 q 625 1063 583 1086 q 659 986 667 1040 l 657 967 q 600 893 649 914 q 481 871 552 871 m 725 0 l 18 0 l 43 177 l 542 581 l 100 581 l 124 758 l 831 758 l 807 581 l 308 177 l 750 177 l 725 0 z "},"ž":{"ha":884,"x_min":18,"x_max":854,"o":"m 18 0 m 402 889 l 194 1090 l 287 1194 l 521 1062 l 790 1196 l 854 1090 l 593 889 l 402 889 m 725 0 l 18 0 l 43 177 l 542 581 l 100 581 l 124 758 l 831 758 l 807 581 l 308 177 l 750 177 l 725 0 z "},"ª":{"ha":884,"x_min":72,"x_max":856,"o":"m 361 486 q 439 494 400 486 q 513 518 479 503 l 527 622 l 376 622 q 318 608 338 622 q 292 549 298 593 q 304 502 288 518 q 361 486 319 486 m 297 357 q 143 400 215 357 q 86 535 72 442 q 176 682 100 634 q 375 730 253 730 l 542 730 l 549 782 q 533 859 557 840 q 460 879 510 879 q 384 860 413 879 q 332 790 356 842 l 141 818 q 261 977 182 931 q 487 1023 341 1023 q 710 970 636 1023 q 764 783 783 917 l 737 593 q 761 523 730 535 q 856 518 793 510 l 836 374 q 681 368 745 354 q 593 455 617 383 l 562 455 q 451 385 524 413 q 297 357 378 357 z "},"º":{"ha":884,"x_min":116,"x_max":819,"o":"m 422 357 q 201 417 287 357 q 134 601 116 476 l 158 775 q 278 961 176 900 q 516 1023 380 1023 q 735 961 652 1023 q 802 775 819 900 l 778 601 q 659 417 760 476 q 422 357 558 357 m 442 508 q 530 533 503 508 q 566 617 557 559 l 587 770 q 574 846 593 819 q 494 872 554 872 q 406 845 433 872 q 371 768 379 818 l 351 617 q 362 533 342 559 q 442 508 381 508 z "},"ß":{"ha":884,"x_min":-56,"x_max":816,"o":"m 506 -8 q 383 13 448 -8 q 278 69 318 33 l 348 210 q 426 155 388 173 q 505 136 463 136 q 563 152 540 136 q 590 198 586 168 q 553 251 595 234 q 461 292 511 269 q 366 371 394 323 q 346 484 337 419 q 414 629 359 572 q 561 703 468 686 q 538 816 569 783 q 458 848 506 848 q 371 814 413 848 q 318 698 330 779 l 184 -253 l -56 -253 l 81 717 q 206 941 101 862 q 485 1020 312 1020 q 725 928 643 1020 q 788 692 808 836 l 774 596 q 612 578 654 597 q 566 527 569 558 q 601 466 559 486 q 693 422 643 446 q 787 340 759 389 q 807 223 816 290 q 708 56 792 120 q 506 -8 624 -8 z "},"æ":{"ha":884,"x_min":-32,"x_max":876,"o":"m 813 192 q 705 40 773 92 q 545 -13 636 -13 q 441 16 484 -13 q 380 101 399 44 l 340 101 q 266 18 316 48 q 155 -13 217 -13 q 15 43 61 -13 q -18 197 -32 98 q 69 369 -1 313 q 247 426 139 426 l 355 426 l 366 499 q 362 579 374 557 q 317 601 350 601 q 268 579 285 601 q 221 497 250 557 l 48 529 q 160 712 93 654 q 322 770 226 770 q 420 747 381 770 q 475 670 460 725 q 566 746 513 721 q 677 770 619 770 q 824 698 771 770 q 855 476 876 626 l 835 328 l 532 328 l 521 260 q 522 176 514 207 q 562 145 530 145 q 609 165 587 145 q 645 225 630 184 l 813 192 m 556 504 l 549 455 l 676 455 l 682 501 q 680 592 691 566 q 638 619 669 619 q 585 593 606 619 q 556 504 564 567 m 321 176 l 337 299 l 274 299 q 215 280 236 299 q 187 213 193 261 q 192 158 182 177 q 230 139 202 139 q 274 149 253 139 q 321 176 295 159 z "},"ǽ":{"ha":884,"x_min":-32,"x_max":924,"o":"m 0 0 m 439 884 l 609 1136 l 924 1136 l 605 884 l 439 884 m 813 192 q 705 40 773 92 q 545 -13 636 -13 q 441 16 484 -13 q 380 101 399 44 l 340 101 q 266 18 316 48 q 155 -13 217 -13 q 15 43 61 -13 q -18 197 -32 98 q 69 369 -1 313 q 247 426 139 426 l 355 426 l 366 499 q 362 579 374 557 q 317 601 350 601 q 268 579 285 601 q 221 497 250 557 l 48 529 q 160 712 93 654 q 322 770 226 770 q 420 747 381 770 q 475 670 460 725 q 566 746 513 721 q 677 770 619 770 q 824 698 771 770 q 855 476 876 626 l 835 328 l 532 328 l 521 260 q 522 176 514 207 q 562 145 530 145 q 609 165 587 145 q 645 225 630 184 l 813 192 m 556 504 l 549 455 l 676 455 l 682 501 q 680 592 691 566 q 638 619 669 619 q 585 593 606 619 q 556 504 564 567 m 321 176 l 337 299 l 274 299 q 215 280 236 299 q 187 213 193 261 q 192 158 182 177 q 230 139 202 139 q 274 149 253 139 q 321 176 295 159 z "},"ð":{"ha":884,"x_min":11,"x_max":833,"o":"m 370 -13 q 106 62 201 -13 q 33 290 11 136 l 43 356 q 151 557 61 482 q 369 631 241 631 q 495 604 448 631 q 557 538 542 576 l 583 538 q 564 670 587 616 q 492 760 542 723 l 275 669 l 294 795 l 364 824 q 289 849 330 837 q 202 874 249 861 l 384 1037 q 519 992 457 1016 q 628 937 581 967 l 831 1023 l 813 896 l 725 859 q 812 690 790 788 q 816 463 833 592 l 792 298 q 654 62 769 136 q 370 -13 539 -13 m 395 164 q 496 191 463 164 q 537 275 528 218 l 547 355 q 529 429 554 405 q 436 453 504 453 q 336 429 367 453 q 297 355 304 405 l 287 275 q 302 191 278 218 q 395 164 327 164 z "},"ø":{"ha":884,"x_min":20,"x_max":828,"o":"m 261 293 q 258 246 258 266 q 264 208 259 225 l 516 600 q 488 604 504 602 q 456 606 472 606 q 333 570 371 606 q 285 470 294 534 l 261 293 m 393 152 q 515 184 477 152 q 564 293 553 217 l 590 473 q 591 515 592 496 q 583 549 590 534 l 332 157 q 360 153 345 154 q 393 152 376 152 m 370 -13 q 312 -10 342 -13 q 256 -3 282 -8 l 177 -126 l 25 -126 l 133 42 q 48 139 76 77 q 30 274 20 201 l 59 479 q 191 692 78 614 q 481 770 304 770 q 537 768 508 770 q 593 760 567 765 l 672 884 l 823 884 l 716 716 q 801 617 774 681 q 817 479 828 553 l 788 274 q 658 64 770 140 q 370 -13 547 -13 z "},"ǿ":{"ha":884,"x_min":20,"x_max":874,"o":"m 20 0 m 261 293 q 258 246 258 266 q 264 208 259 225 l 516 600 q 488 604 504 602 q 456 606 472 606 q 333 570 371 606 q 285 470 294 534 l 261 293 m 393 152 q 515 184 477 152 q 564 293 553 217 l 590 473 q 591 515 592 496 q 583 549 590 534 l 332 157 q 360 153 345 154 q 393 152 376 152 m 370 -13 q 312 -10 342 -13 q 256 -3 282 -8 l 177 -126 l 25 -126 l 133 42 q 48 139 76 77 q 30 274 20 201 l 59 479 q 191 692 78 614 q 481 770 304 770 q 537 768 508 770 q 593 760 567 765 l 672 884 l 823 884 l 716 716 q 801 617 774 681 q 817 479 828 553 l 788 274 q 658 64 770 140 q 370 -13 547 -13 m 389 884 l 558 1136 l 874 1136 l 554 884 l 389 884 z "},"þ":{"ha":884,"x_min":-30,"x_max":826,"o":"m 400 168 q 484 193 453 168 q 524 278 515 218 l 551 468 q 539 554 559 527 q 479 581 518 581 q 407 565 443 581 q 331 518 371 549 l 285 201 q 340 176 316 184 q 400 168 365 168 m 423 -8 q 335 0 376 -8 q 260 21 294 8 l 222 -253 l -30 -253 l 146 1010 l 399 1010 l 345 619 l 383 619 q 486 730 420 691 q 633 770 552 770 q 777 701 729 770 q 811 518 826 631 l 777 277 q 662 69 758 146 q 423 -8 567 -8 z "},"đ":{"ha":884,"x_min":24,"x_max":987,"o":"m 371 177 q 442 193 407 177 q 519 240 477 210 l 551 467 q 490 492 520 484 q 424 501 460 501 q 351 476 381 501 q 313 391 321 451 l 298 289 q 311 204 290 231 q 371 177 332 177 m 466 139 q 373 34 434 81 q 217 -13 312 -13 q 68 62 112 -13 q 39 240 24 138 l 61 393 q 174 600 78 523 q 413 677 269 677 q 501 669 460 677 q 576 648 543 662 l 591 758 l 389 758 l 407 884 l 609 884 l 626 1010 l 879 1010 l 861 884 l 987 884 l 970 758 l 843 758 l 737 0 l 485 0 l 504 139 l 466 139 z "},"ħ":{"ha":884,"x_min":-15,"x_max":816,"o":"m 312 384 l 258 0 l 5 0 l 111 758 l -15 758 l 3 884 l 129 884 l 146 1010 l 399 1010 l 381 884 l 583 884 l 566 758 l 364 758 l 332 530 l 370 530 q 478 641 410 601 q 622 682 545 682 q 765 617 715 682 q 801 453 816 553 l 737 0 l 485 0 l 539 384 q 531 465 547 437 q 480 492 515 492 q 397 463 441 492 q 312 384 354 433 z "},"ı":{"ha":884,"x_min":18,"x_max":750,"o":"m 18 0 l 43 177 l 270 177 l 327 581 l 100 581 l 124 758 l 604 758 l 523 177 l 750 177 l 725 0 l 18 0 z "},"ĳ":{"ha":884,"x_min":5,"x_max":905,"o":"m 230 871 q 126 893 164 871 q 95 967 87 914 l 97 986 q 150 1063 105 1040 q 260 1086 194 1086 q 365 1063 327 1086 q 395 986 403 1040 l 393 967 q 340 893 385 914 q 230 871 294 871 m 732 871 q 628 893 667 871 q 597 967 590 914 l 600 986 q 652 1063 607 1040 q 763 1086 697 1086 q 867 1063 830 1086 q 898 986 905 1040 l 895 967 q 842 893 888 914 q 732 871 797 871 m 232 0 l 5 0 l 111 758 l 338 758 l 232 0 m 380 -265 q 280 -258 330 -265 q 187 -236 231 -251 l 234 -77 q 307 -95 273 -90 q 371 -101 341 -101 q 466 -73 429 -101 q 511 19 503 -45 l 591 581 l 428 581 l 452 758 l 842 758 l 736 -3 q 623 -195 718 -125 q 380 -265 528 -265 z "},"ĸ":{"ha":884,"x_min":18,"x_max":875,"o":"m 18 0 m 313 309 l 270 0 l 18 0 l 124 758 l 376 758 l 337 473 l 384 473 l 616 758 l 875 758 l 585 417 l 765 0 l 497 0 l 360 309 l 313 309 z "},"ŀ":{"ha":884,"x_min":30,"x_max":1128,"o":"m 30 0 m 942 417 q 828 438 870 417 q 794 513 787 460 l 797 532 q 852 609 804 586 q 972 631 900 631 q 1086 609 1044 631 q 1120 532 1128 586 l 1117 513 q 1061 438 1110 460 q 942 417 1013 417 m 30 0 l 56 177 l 295 177 l 388 833 l 148 833 l 172 1010 l 664 1010 l 548 177 l 775 177 l 750 0 l 30 0 z "},"ł":{"ha":884,"x_min":30,"x_max":775,"o":"m 30 0 l 56 177 l 295 177 l 327 407 l 117 354 l 139 505 l 348 558 l 388 833 l 148 833 l 172 1010 l 664 1010 l 611 626 l 729 657 l 707 505 l 590 475 l 548 177 l 775 177 l 750 0 l 30 0 z "},"ŉ":{"ha":884,"x_min":5,"x_max":828,"o":"m 5 0 m 10 884 l 179 1136 l 495 1136 l 176 884 l 10 884 m 5 0 l 111 758 l 364 758 l 345 619 l 383 619 q 493 730 423 691 q 648 770 563 770 q 785 710 742 770 q 813 542 828 650 l 737 0 l 485 0 l 554 497 q 544 559 561 538 q 492 581 528 581 q 408 560 453 581 q 327 497 364 539 l 258 0 l 5 0 z "},"ŋ":{"ha":884,"x_min":5,"x_max":830,"o":"m 394 -265 q 308 -257 351 -265 q 226 -236 265 -249 l 273 -77 q 333 -94 304 -87 q 385 -101 361 -101 q 452 -73 426 -101 q 487 19 479 -45 l 554 497 q 544 559 561 538 q 492 581 528 581 q 408 560 453 581 q 327 497 364 539 l 258 0 l 5 0 l 111 758 l 364 758 l 345 619 l 383 619 q 503 735 429 699 q 645 770 577 770 q 783 713 737 770 q 813 542 830 655 l 737 -3 q 615 -203 717 -141 q 394 -265 513 -265 z "},"œ":{"ha":884,"x_min":-10,"x_max":859,"o":"m 804 192 q 703 31 766 74 q 544 -13 639 -13 q 441 9 486 -13 q 371 74 396 32 q 295 9 340 30 q 199 -13 250 -13 q 47 45 104 -13 q 8 223 -10 102 l 51 529 q 141 711 68 652 q 311 770 215 770 q 399 749 361 770 q 457 683 437 727 q 543 749 492 727 q 650 770 593 770 q 802 711 746 770 q 841 527 859 652 l 813 328 l 518 328 l 500 210 q 506 163 496 181 q 548 145 516 145 q 605 159 578 145 q 645 225 633 173 l 804 192 m 549 554 l 535 455 l 625 455 l 636 543 q 636 602 643 586 q 602 619 630 619 q 565 604 576 619 q 549 554 554 590 m 249 164 q 285 182 273 164 q 304 242 298 201 l 343 524 q 341 575 348 557 q 309 593 333 593 q 273 574 285 593 q 255 520 260 556 l 216 242 q 217 182 210 201 q 249 164 225 164 z "},"ŧ":{"ha":884,"x_min":74,"x_max":818,"o":"m 508 -14 q 275 58 350 -14 q 218 263 199 130 l 226 316 l 74 316 l 96 467 l 247 467 l 264 581 l 87 581 l 111 758 l 288 758 l 323 1010 l 576 1010 l 540 758 l 818 758 l 794 581 l 516 581 l 500 467 l 753 467 l 731 316 l 479 316 l 476 298 q 492 195 466 226 q 572 164 519 164 q 641 169 601 164 q 725 189 681 173 l 726 18 q 640 -4 699 6 q 508 -14 580 -14 z "},"ſ":{"ha":884,"x_min":176,"x_max":907,"o":"m 210 -253 l 327 581 l 176 581 l 199 758 l 351 758 l 357 797 q 474 988 374 917 q 725 1059 574 1059 q 818 1052 771 1059 q 907 1030 864 1044 l 859 871 q 793 889 823 883 q 735 895 763 895 q 649 867 683 895 q 606 775 615 840 l 462 -253 l 210 -253 z "},"ȷ":{"ha":884,"x_min":-39,"x_max":717,"o":"m 192 -265 q 73 -259 133 -265 q -39 -236 14 -254 l 8 -77 q 100 -97 57 -92 q 183 -101 144 -101 q 306 -73 259 -101 q 361 19 352 -45 l 441 581 l 126 581 l 150 758 l 717 758 l 611 -3 q 482 -195 593 -125 q 192 -265 370 -265 z "},"":{"ha":884,"x_min":-39,"x_max":717,"o":"m 192 -265 q 73 -259 133 -265 q -39 -236 14 -254 l 8 -77 q 100 -97 57 -92 q 183 -101 144 -101 q 306 -73 259 -101 q 361 19 352 -45 l 441 581 l 126 581 l 150 758 l 717 758 l 611 -3 q 482 -195 593 -125 q 192 -265 370 -265 z "},"α":{"ha":884,"x_min":23,"x_max":801,"o":"m 359 178 q 413 195 385 178 q 468 241 441 212 l 508 520 q 463 566 485 548 q 410 583 441 583 q 356 556 380 583 q 323 471 332 529 l 297 280 q 307 200 289 222 q 359 178 324 178 m 545 165 l 508 165 q 389 34 461 80 q 230 -11 317 -11 q 74 57 126 -11 q 39 241 23 125 l 74 492 q 159 693 91 614 q 314 773 227 773 q 422 736 381 773 q 484 621 463 699 l 521 621 l 540 758 l 793 758 l 725 265 q 732 189 716 207 q 801 176 749 170 l 777 6 q 611 18 665 -19 q 545 165 557 56 z "},"ά":{"ha":884,"x_min":23,"x_max":861,"o":"m 23 0 m 359 178 q 413 195 385 178 q 468 241 441 212 l 508 520 q 463 566 485 548 q 410 583 441 583 q 356 556 380 583 q 323 471 332 529 l 297 280 q 307 200 289 222 q 359 178 324 178 m 545 165 l 508 165 q 389 34 461 80 q 230 -11 317 -11 q 74 57 126 -11 q 39 241 23 125 l 74 492 q 159 693 91 614 q 314 773 227 773 q 422 736 381 773 q 484 621 463 699 l 521 621 l 540 758 l 793 758 l 725 265 q 732 189 716 207 q 801 176 749 170 l 777 6 q 611 18 665 -19 q 545 165 557 56 m 465 884 l 558 1136 l 861 1136 l 617 884 l 465 884 z "},"β":{"ha":884,"x_min":-30,"x_max":822,"o":"m 395 174 q 475 201 436 174 q 525 304 514 229 l 529 332 q 512 441 540 412 q 424 470 484 470 l 386 470 l 405 606 l 436 606 q 511 628 485 606 q 545 703 538 650 l 549 726 q 538 810 558 787 q 468 833 518 833 q 391 802 415 833 q 356 702 366 770 l 287 210 q 336 184 311 193 q 395 174 361 174 m 423 -13 q 335 -6 376 -13 q 259 13 294 0 l 222 -253 l -30 -253 l 107 723 q 228 944 126 866 q 495 1023 330 1023 q 739 956 655 1023 q 806 774 822 889 l 803 754 q 735 631 792 678 q 576 566 678 583 l 571 529 q 739 460 683 518 q 780 303 794 402 l 774 264 q 663 61 756 135 q 423 -13 569 -13 z "},"γ":{"ha":884,"x_min":66,"x_max":888,"o":"m 487 -253 l 184 -253 l 249 25 l 66 758 l 318 758 l 402 213 l 635 758 l 888 758 l 501 25 l 487 -253 z "},"δ":{"ha":884,"x_min":24,"x_max":808,"o":"m 370 -13 q 109 62 194 -13 q 43 274 24 136 l 59 390 q 117 513 69 462 q 256 601 164 564 q 167 675 191 635 q 152 777 144 715 q 259 954 169 898 q 509 1010 348 1010 l 768 1010 l 744 833 l 485 833 q 423 822 446 833 q 395 777 400 811 q 421 732 393 751 q 552 677 449 713 q 753 561 698 624 q 790 378 808 499 l 775 274 q 651 62 756 136 q 370 -13 545 -13 m 394 164 q 483 190 451 164 q 523 274 515 216 l 538 378 q 522 472 547 441 q 408 539 497 504 q 346 484 371 519 q 312 390 321 448 l 295 274 q 313 190 288 216 q 394 164 338 164 z "},"ε":{"ha":884,"x_min":18,"x_max":819,"o":"m 386 -13 q 105 39 192 -13 q 33 196 18 90 l 37 221 q 100 322 44 279 q 254 371 155 365 l 258 399 q 136 440 178 404 q 104 538 95 476 l 107 568 q 226 723 122 677 q 496 770 330 770 q 742 711 665 770 q 811 518 819 652 l 582 508 q 563 596 585 569 q 475 622 542 622 q 388 605 414 622 q 357 549 362 588 l 355 532 q 371 469 348 485 q 453 453 394 453 l 524 453 l 506 327 l 436 327 q 323 306 347 327 q 292 246 298 285 l 290 234 q 305 171 285 194 q 408 148 324 148 q 531 178 506 148 q 571 264 556 208 l 795 255 q 684 55 768 122 q 386 -13 600 -13 z "},"έ":{"ha":884,"x_min":18,"x_max":819,"o":"m 18 0 m 386 -13 q 105 39 192 -13 q 33 196 18 90 l 37 221 q 100 322 44 279 q 254 371 155 365 l 258 399 q 136 440 178 404 q 104 538 95 476 l 107 568 q 226 723 122 677 q 496 770 330 770 q 742 711 665 770 q 811 518 819 652 l 582 508 q 563 596 585 569 q 475 622 542 622 q 388 605 414 622 q 357 549 362 588 l 355 532 q 371 469 348 485 q 453 453 394 453 l 524 453 l 506 327 l 436 327 q 323 306 347 327 q 292 246 298 285 l 290 234 q 305 171 285 194 q 408 148 324 148 q 531 178 506 148 q 571 264 556 208 l 795 255 q 684 55 768 122 q 386 -13 600 -13 m 402 884 l 495 1136 l 798 1136 l 554 884 l 402 884 z "},"ζ":{"ha":884,"x_min":32,"x_max":831,"o":"m 399 -253 l 222 -253 l 245 -88 l 415 -88 q 482 -75 456 -88 q 514 -19 508 -62 q 498 42 520 27 q 436 57 476 57 l 354 57 q 107 123 182 57 q 51 324 32 189 q 122 504 67 437 q 289 673 178 571 l 403 783 l 399 802 q 191 815 277 766 q 59 995 105 864 l 196 1082 q 331 952 249 980 q 563 956 413 924 l 831 1051 l 830 828 l 596 798 l 456 624 q 355 489 393 544 q 307 350 318 433 q 316 253 298 285 q 378 221 333 221 l 496 221 q 689 164 625 221 q 736 -9 753 107 q 628 -192 718 -131 q 399 -253 538 -253 z "},"η":{"ha":884,"x_min":5,"x_max":828,"o":"m 449 -253 l 554 497 q 544 559 561 538 q 492 581 528 581 q 408 560 453 581 q 327 497 364 539 l 258 0 l 5 0 l 111 758 l 364 758 l 345 619 l 383 619 q 493 730 423 691 q 648 770 563 770 q 785 710 742 770 q 813 542 828 650 l 702 -253 l 449 -253 z "},"ή":{"ha":884,"x_min":5,"x_max":874,"o":"m 5 0 m 477 884 l 571 1136 l 874 1136 l 630 884 l 477 884 m 449 -253 l 554 497 q 544 559 561 538 q 492 581 528 581 q 408 560 453 581 q 327 497 364 539 l 258 0 l 5 0 l 111 758 l 364 758 l 345 619 l 383 619 q 493 730 423 691 q 648 770 563 770 q 785 710 742 770 q 813 542 828 650 l 702 -253 l 449 -253 z "},"θ":{"ha":884,"x_min":25,"x_max":859,"o":"m 370 -13 q 113 65 201 -13 q 43 274 25 143 l 107 731 q 237 944 126 866 q 516 1023 347 1023 q 771 944 684 1023 q 840 731 859 866 l 775 274 q 648 65 758 143 q 370 -13 539 -13 m 346 722 l 327 587 l 580 587 l 600 726 q 584 815 607 784 q 490 846 561 846 q 387 814 419 846 q 346 722 355 782 m 394 164 q 497 194 465 164 q 539 293 529 225 l 558 436 l 306 436 l 287 293 q 300 194 277 225 q 394 164 323 164 z "},"ι":{"ha":884,"x_min":100,"x_max":753,"o":"m 100 0 m 540 -10 q 316 64 394 -10 q 255 251 239 138 l 302 581 l 100 581 l 124 758 l 578 758 l 515 302 q 532 207 505 237 q 612 177 559 177 q 682 185 650 177 q 739 202 713 193 l 753 30 q 640 0 693 10 q 540 -10 587 -10 z "},"ΐ":{"ha":884,"x_min":92,"x_max":900,"o":"m 92 0 m 370 884 l 463 1136 l 678 1136 l 510 884 l 370 884 m 197 871 q 120 893 148 871 q 100 967 92 914 l 102 986 q 144 1063 110 1040 q 227 1086 178 1086 q 305 1063 278 1086 q 324 986 332 1040 l 322 967 q 280 893 314 914 q 197 871 245 871 m 765 871 q 688 893 716 871 q 668 967 660 914 l 670 986 q 712 1063 678 1040 q 795 1086 746 1086 q 873 1063 846 1086 q 893 986 900 1040 l 890 967 q 848 893 883 914 q 765 871 813 871 m 540 -10 q 316 64 394 -10 q 255 251 239 138 l 302 581 l 100 581 l 124 758 l 578 758 l 515 302 q 532 207 505 237 q 612 177 559 177 q 682 185 650 177 q 739 202 713 193 l 753 30 q 640 0 693 10 q 540 -10 587 -10 z "},"ί":{"ha":884,"x_min":100,"x_max":779,"o":"m 100 0 m 383 884 l 476 1136 l 779 1136 l 535 884 l 383 884 m 540 -10 q 316 64 394 -10 q 255 251 239 138 l 302 581 l 100 581 l 124 758 l 578 758 l 515 302 q 532 207 505 237 q 612 177 559 177 q 682 185 650 177 q 739 202 713 193 l 753 30 q 640 0 693 10 q 540 -10 587 -10 z "},"ϊ":{"ha":884,"x_min":100,"x_max":799,"o":"m 100 0 m 540 -10 q 316 64 394 -10 q 255 251 239 138 l 302 581 l 100 581 l 124 758 l 578 758 l 515 302 q 532 207 505 237 q 612 177 559 177 q 682 185 650 177 q 739 202 713 193 l 753 30 q 640 0 693 10 q 540 -10 587 -10 m 323 871 q 237 893 269 871 q 213 967 206 914 l 216 986 q 261 1063 223 1040 q 354 1086 299 1086 q 440 1063 409 1086 q 463 986 471 1040 l 461 967 q 415 893 453 914 q 323 871 378 871 m 652 871 q 566 893 597 871 q 542 967 534 914 l 544 986 q 590 1063 552 1040 q 682 1086 628 1086 q 768 1063 737 1086 q 792 986 799 1040 l 789 967 q 744 893 782 914 q 652 871 706 871 z "},"κ":{"ha":884,"x_min":18,"x_max":875,"o":"m 313 309 l 270 0 l 18 0 l 124 758 l 376 758 l 337 473 l 384 473 l 616 758 l 875 758 l 585 417 l 765 0 l 497 0 l 360 309 l 313 309 z "},"λ":{"ha":884,"x_min":-40,"x_max":782,"o":"m 529 0 l 441 561 l 210 0 l -40 0 l 232 644 l 429 644 l 423 677 q 371 805 409 770 q 246 840 332 840 q 199 838 225 840 q 144 833 173 837 l 143 1010 q 222 1016 184 1014 q 294 1018 260 1018 q 543 959 463 1018 q 648 755 622 900 l 782 0 l 529 0 z "},"μ":{"ha":884,"x_min":-30,"x_max":806,"o":"m 274 25 l 247 -253 l -30 -253 l 21 25 l 124 758 l 376 758 l 311 285 q 321 207 303 231 q 369 183 338 183 q 427 198 402 183 q 481 240 453 212 l 553 758 l 806 758 l 737 265 q 741 189 729 207 q 801 176 754 170 l 777 6 q 639 7 686 -14 q 567 101 592 28 l 529 101 q 470 21 506 56 q 375 -13 433 -13 q 313 0 337 -13 q 275 38 289 13 l 274 25 z "},"ν":{"ha":884,"x_min":66,"x_max":888,"o":"m 500 0 l 241 0 l 66 758 l 318 758 l 429 223 q 559 497 505 351 q 638 758 614 644 l 888 758 q 730 354 835 544 q 500 0 626 163 z "},"ξ":{"ha":884,"x_min":43,"x_max":831,"o":"m 736 -9 q 632 -191 720 -130 q 386 -253 544 -253 l 235 -253 l 258 -88 l 403 -88 q 479 -75 449 -88 q 514 -19 508 -62 q 495 42 520 27 q 423 57 470 57 l 328 57 q 114 117 186 57 q 58 287 43 178 l 61 308 q 134 435 71 380 q 312 499 198 490 l 316 528 q 211 564 244 528 q 184 646 178 600 q 237 734 192 699 q 357 778 283 769 l 361 807 q 170 852 241 802 q 72 995 100 902 l 208 1082 q 336 955 260 984 q 551 956 413 927 l 831 1051 l 830 828 l 547 793 l 508 773 q 461 730 479 758 q 439 664 444 703 q 449 609 434 625 q 491 593 465 593 l 707 593 l 684 429 l 458 429 q 356 400 390 429 q 316 327 322 370 l 313 306 q 335 244 308 268 q 428 221 362 221 l 484 221 q 689 164 626 221 q 736 -9 753 106 z "},"ο":{"ha":884,"x_min":24,"x_max":823,"o":"m 24 0 m 370 -13 q 111 63 198 -13 q 43 274 24 139 l 72 479 q 199 693 91 615 q 481 770 308 770 q 738 691 653 770 q 804 472 823 611 l 775 268 q 649 62 756 136 q 370 -13 542 -13 m 394 164 q 485 193 455 164 q 525 287 516 222 l 551 467 q 537 564 559 534 q 455 593 515 593 q 363 564 394 593 q 323 470 332 534 l 299 293 q 311 194 289 225 q 394 164 333 164 z "},"ό":{"ha":884,"x_min":24,"x_max":823,"o":"m 24 0 m 376 884 l 470 1136 l 773 1136 l 529 884 l 376 884 m 370 -13 q 111 63 198 -13 q 43 274 24 139 l 72 479 q 199 693 91 615 q 481 770 308 770 q 738 691 653 770 q 804 472 823 611 l 775 268 q 649 62 756 136 q 370 -13 542 -13 m 394 164 q 485 193 455 164 q 525 287 516 222 l 551 467 q 537 564 559 534 q 455 593 515 593 q 363 564 394 593 q 323 470 332 534 l 299 293 q 311 194 289 225 q 394 164 333 164 z "},"π":{"ha":884,"x_min":24,"x_max":856,"o":"m 856 758 l 832 581 l 731 581 l 687 265 q 703 187 678 207 q 801 176 729 167 l 777 6 q 516 28 600 -28 q 453 225 433 85 l 504 581 l 340 581 l 258 0 l 30 0 l 112 581 l 24 581 l 48 758 l 856 758 z "},"ρ":{"ha":884,"x_min":-30,"x_max":824,"o":"m 422 177 q 491 206 465 177 q 525 289 518 235 l 552 480 q 537 565 561 540 q 460 590 513 590 q 367 565 402 590 q 324 480 333 540 l 292 240 q 358 193 324 208 q 422 177 391 177 m -30 -253 l 73 481 q 193 693 92 621 q 470 765 293 765 q 740 693 655 765 q 806 481 824 621 l 773 253 q 677 60 756 133 q 485 -13 598 -13 q 364 27 409 -13 q 314 139 319 67 l 277 139 l 222 -253 l -30 -253 z "},"ς":{"ha":884,"x_min":35,"x_max":794,"o":"m 210 -253 l 235 -76 l 405 -76 q 471 -64 446 -76 q 503 -13 496 -52 q 485 43 508 29 q 423 57 463 57 l 312 57 q 104 136 172 57 q 56 356 35 216 l 72 476 q 201 693 91 615 q 484 770 311 770 q 724 695 654 770 q 794 485 794 620 l 548 465 q 532 565 552 538 q 451 592 511 592 q 360 562 388 592 q 322 458 332 532 l 309 369 q 319 265 299 295 q 403 234 338 234 l 523 234 q 696 172 640 234 q 737 0 753 110 q 618 -186 721 -119 q 348 -253 515 -253 l 210 -253 z "},"σ":{"ha":884,"x_min":25,"x_max":919,"o":"m 369 164 q 442 191 419 164 q 473 280 465 218 l 503 486 q 495 566 510 538 q 429 593 480 593 q 357 565 380 593 q 326 482 333 537 l 297 280 q 304 191 288 218 q 369 164 319 164 m 345 -13 q 105 64 186 -13 q 43 274 25 140 l 72 479 q 193 683 91 609 q 453 758 294 758 l 919 758 l 893 568 l 722 578 q 746 504 741 545 q 745 415 751 462 l 725 274 q 605 64 707 140 q 345 -13 504 -13 z "},"τ":{"ha":884,"x_min":72,"x_max":869,"o":"m 650 6 q 354 25 452 -33 q 277 225 256 82 l 324 568 l 72 568 l 98 758 l 869 758 l 842 568 l 577 568 l 535 265 q 557 185 527 205 q 674 176 587 165 l 650 6 z "},"υ":{"ha":884,"x_min":28,"x_max":843,"o":"m 371 -13 q 113 74 198 -13 q 49 317 28 162 l 111 758 l 364 758 l 303 326 q 315 212 293 247 q 396 177 337 177 q 487 211 456 177 q 530 322 519 246 l 591 758 l 843 758 l 782 317 q 652 74 760 162 q 371 -13 544 -13 z "},"ΰ":{"ha":884,"x_min":28,"x_max":913,"o":"m 28 0 m 371 -13 q 113 74 198 -13 q 49 317 28 162 l 111 758 l 364 758 l 303 326 q 315 212 293 247 q 396 177 337 177 q 487 211 456 177 q 530 322 519 246 l 591 758 l 843 758 l 782 317 q 652 74 760 162 q 371 -13 544 -13 m 383 884 l 476 1136 l 691 1136 l 523 884 l 383 884 m 210 871 q 133 893 160 871 q 112 967 105 914 l 115 986 q 157 1063 122 1040 q 240 1086 191 1086 q 318 1063 290 1086 q 337 986 345 1040 l 335 967 q 292 893 327 914 q 210 871 258 871 m 778 871 q 701 893 729 871 q 681 967 673 914 l 683 986 q 725 1063 691 1040 q 808 1086 759 1086 q 886 1063 859 1086 q 905 986 913 1040 l 903 967 q 860 893 895 914 q 778 871 826 871 z "},"ϋ":{"ha":884,"x_min":28,"x_max":843,"o":"m 28 0 m 371 -13 q 113 74 198 -13 q 49 317 28 162 l 111 758 l 364 758 l 303 326 q 315 212 293 247 q 396 177 337 177 q 487 211 456 177 q 530 322 519 246 l 591 758 l 843 758 l 782 317 q 652 74 760 162 q 371 -13 544 -13 m 330 871 q 244 893 275 871 q 220 967 212 914 l 222 986 q 268 1063 230 1040 q 360 1086 306 1086 q 446 1063 415 1086 q 470 986 477 1040 l 467 967 q 422 893 460 914 q 330 871 384 871 m 658 871 q 572 893 604 871 q 548 967 540 914 l 551 986 q 596 1063 558 1040 q 688 1086 634 1086 q 775 1063 744 1086 q 798 986 806 1040 l 795 967 q 750 893 788 914 q 658 871 712 871 z "},"ύ":{"ha":884,"x_min":28,"x_max":843,"o":"m 28 0 m 371 -13 q 113 74 198 -13 q 49 317 28 162 l 111 758 l 364 758 l 303 326 q 315 212 293 247 q 396 177 337 177 q 487 211 456 177 q 530 322 519 246 l 591 758 l 843 758 l 782 317 q 652 74 760 162 q 371 -13 544 -13 m 364 884 l 457 1136 l 760 1136 l 516 884 l 364 884 z "},"φ":{"ha":884,"x_min":10,"x_max":846,"o":"m 437 -253 l 235 -253 l 270 -3 q 73 134 135 25 q 34 413 10 244 l 42 466 q 77 637 54 558 q 136 766 100 716 l 330 726 q 279 614 301 682 q 246 466 258 545 l 239 413 q 241 244 222 301 q 319 172 259 188 l 402 758 l 520 758 q 765 660 684 758 q 821 390 846 562 l 816 350 q 705 113 795 206 q 472 -4 614 20 l 437 -253 m 529 581 l 471 169 q 586 221 549 179 q 636 350 624 263 l 641 390 q 626 535 655 489 q 529 581 597 581 z "},"χ":{"ha":884,"x_min":-61,"x_max":874,"o":"m 451 -253 l 360 14 l 188 -253 l -61 -253 l 279 247 l 102 758 l 354 758 l 448 485 l 625 758 l 874 758 l 529 253 l 705 -253 l 451 -253 z "},"ψ":{"ha":884,"x_min":1,"x_max":872,"o":"m 437 -253 l 235 -253 l 268 -19 q 63 89 125 3 q 21 324 1 176 l 82 758 l 288 758 l 232 362 q 237 228 221 277 q 306 163 254 179 l 389 758 l 566 758 l 482 163 q 569 228 539 179 q 611 362 600 277 l 667 758 l 872 758 l 812 324 q 705 89 792 176 q 470 -19 617 3 l 437 -253 z "},"ω":{"ha":884,"x_min":-1,"x_max":847,"o":"m 162 -13 q 39 73 78 -13 q 21 324 -1 159 l 45 491 q 78 643 57 578 q 139 779 100 708 l 332 739 q 276 592 294 648 q 251 491 258 535 l 227 324 q 224 214 217 251 q 251 177 231 177 q 297 199 280 177 q 321 274 314 222 l 361 556 l 538 556 l 497 274 q 503 199 491 222 q 542 177 514 177 q 580 214 564 177 q 606 324 596 251 l 630 491 q 633 592 636 535 q 617 739 630 648 l 823 779 q 845 643 842 708 q 836 491 847 578 l 812 324 q 725 73 789 159 q 569 -13 660 -13 q 465 23 509 -13 q 410 158 420 59 l 372 158 q 285 23 345 59 q 162 -13 226 -13 z "},"ώ":{"ha":884,"x_min":-1,"x_max":847,"o":"m 0 0 m 383 884 l 476 1136 l 779 1136 l 535 884 l 383 884 m 162 -13 q 39 73 78 -13 q 21 324 -1 159 l 45 491 q 78 643 57 578 q 139 779 100 708 l 332 739 q 276 592 294 648 q 251 491 258 535 l 227 324 q 224 214 217 251 q 251 177 231 177 q 297 199 280 177 q 321 274 314 222 l 361 556 l 538 556 l 497 274 q 503 199 491 222 q 542 177 514 177 q 580 214 564 177 q 606 324 596 251 l 630 491 q 633 592 636 535 q 617 739 630 648 l 823 779 q 845 643 842 708 q 836 491 847 578 l 812 324 q 725 73 789 159 q 569 -13 660 -13 q 465 23 509 -13 q 410 158 420 59 l 372 158 q 285 23 345 59 q 162 -13 226 -13 z "},"а":{"ha":884,"x_min":-5,"x_max":813,"o":"m 0 0 m 306 139 q 383 149 345 139 q 460 176 422 159 l 476 299 l 324 299 q 265 282 285 299 q 237 213 245 265 q 248 158 232 177 q 306 139 264 139 m 218 -13 q 52 47 109 -13 q 9 208 -5 106 q 107 371 24 316 q 323 426 191 426 l 494 426 l 506 511 q 489 583 514 564 q 409 601 463 601 q 322 579 352 601 q 271 497 292 557 l 73 529 q 201 717 120 664 q 442 770 283 770 q 690 706 615 770 q 746 513 765 643 l 708 240 q 729 180 701 191 q 813 176 758 169 l 789 6 q 619 8 679 -19 q 544 114 558 34 l 506 114 q 382 25 458 63 q 218 -13 306 -13 z "},"б":{"ha":884,"x_min":28,"x_max":816,"o":"m 370 -13 q 109 73 189 -13 q 51 323 28 158 l 82 544 q 216 876 112 765 q 510 1004 319 987 l 816 1030 l 807 835 l 521 808 q 395 758 439 799 q 336 633 351 716 l 322 551 l 351 551 q 450 648 393 615 q 588 682 508 682 q 753 614 692 682 q 798 432 814 545 l 778 290 q 654 64 758 141 q 370 -13 551 -13 m 393 164 q 484 192 455 164 q 521 275 513 220 l 539 405 q 525 480 547 456 q 441 504 503 504 q 350 480 379 504 q 314 405 322 456 l 297 275 q 309 192 288 220 q 393 164 331 164 z "},"в":{"ha":884,"x_min":5,"x_max":832,"o":"m 5 0 l 111 758 l 484 758 q 741 715 650 758 q 818 574 832 673 l 814 544 q 753 442 804 480 q 619 399 701 404 l 615 371 q 756 320 713 365 q 790 215 799 275 l 787 189 q 682 49 774 98 q 378 0 590 0 l 5 0 m 308 453 l 451 453 q 538 467 510 453 q 571 523 566 481 l 573 540 q 557 594 578 578 q 476 610 537 610 l 331 610 l 308 453 m 268 160 l 413 160 q 518 182 486 160 q 554 240 549 203 l 556 253 q 537 308 561 289 q 433 327 513 327 l 290 327 l 268 160 z "},"г":{"ha":884,"x_min":56,"x_max":818,"o":"m 56 0 l 162 758 l 818 758 l 792 568 l 388 568 l 308 0 l 56 0 z "},"ѓ":{"ha":884,"x_min":56,"x_max":818,"o":"m 56 0 m 332 884 l 501 1136 l 817 1136 l 497 884 l 332 884 m 56 0 l 162 758 l 818 758 l 792 568 l 388 568 l 308 0 l 56 0 z "},"д":{"ha":884,"x_min":-72,"x_max":814,"o":"m 287 217 l 283 189 l 486 189 l 539 568 l 391 568 l 362 385 q 334 290 354 330 q 287 217 314 251 m 182 0 l 155 -189 l -72 -189 l -19 189 l 62 189 q 107 251 88 207 q 139 389 125 294 l 198 758 l 793 758 l 713 189 l 814 189 l 761 -189 l 534 -189 l 561 0 l 182 0 z "},"е":{"ha":884,"x_min":24,"x_max":823,"o":"m 24 0 m 780 179 q 628 28 715 69 q 375 -13 542 -13 q 121 59 218 -13 q 44 278 24 131 l 72 479 q 199 693 91 615 q 481 770 308 770 q 738 693 653 770 q 804 476 823 615 l 784 328 l 304 328 l 294 260 q 311 176 287 207 q 404 145 335 145 q 501 162 458 145 q 581 234 543 179 l 780 179 m 328 504 l 322 455 l 549 455 l 554 492 q 545 591 564 563 q 458 619 527 619 q 364 593 390 619 q 328 504 337 567 z "},"ѐ":{"ha":884,"x_min":24,"x_max":823,"o":"m 24 0 m 780 179 q 628 28 715 69 q 375 -13 542 -13 q 121 59 218 -13 q 44 278 24 131 l 72 479 q 199 693 91 615 q 481 770 308 770 q 738 693 653 770 q 804 476 823 615 l 784 328 l 304 328 l 294 260 q 311 176 287 207 q 404 145 335 145 q 501 162 458 145 q 581 234 543 179 l 780 179 m 328 504 l 322 455 l 549 455 l 554 492 q 545 591 564 563 q 458 619 527 619 q 364 593 390 619 q 328 504 337 567 m 477 884 l 229 1136 l 544 1136 l 643 884 l 477 884 z "},"ё":{"ha":884,"x_min":24,"x_max":823,"o":"m 24 0 m 780 179 q 628 28 715 69 q 375 -13 542 -13 q 121 59 218 -13 q 44 278 24 131 l 72 479 q 199 693 91 615 q 481 770 308 770 q 738 693 653 770 q 804 476 823 615 l 784 328 l 304 328 l 294 260 q 311 176 287 207 q 404 145 335 145 q 501 162 458 145 q 581 234 543 179 l 780 179 m 328 504 l 322 455 l 549 455 l 554 492 q 545 591 564 563 q 458 619 527 619 q 364 593 390 619 q 328 504 337 567 m 330 871 q 244 893 275 871 q 220 967 212 914 l 222 986 q 268 1063 230 1040 q 360 1086 306 1086 q 446 1063 415 1086 q 470 986 477 1040 l 467 967 q 422 893 460 914 q 330 871 384 871 m 658 871 q 572 893 604 871 q 548 967 540 914 l 551 986 q 596 1063 558 1040 q 688 1086 634 1086 q 775 1063 744 1086 q 798 986 806 1040 l 795 967 q 750 893 788 914 q 658 871 712 871 z "},"ж":{"ha":884,"x_min":-71,"x_max":919,"o":"m 270 316 l 128 0 l -71 0 l 152 422 l 32 758 l 234 758 l 312 467 l 348 467 l 389 758 l 566 758 l 525 467 l 556 467 l 711 758 l 919 758 l 708 423 l 813 0 l 609 0 l 554 316 l 504 316 l 460 0 l 283 0 l 327 316 l 270 316 z "},"з":{"ha":884,"x_min":32,"x_max":832,"o":"m 376 -13 q 113 52 194 -13 q 40 255 32 116 l 268 264 q 294 162 268 188 q 396 135 321 135 q 507 162 480 135 q 540 234 534 188 l 542 246 q 528 306 548 285 q 420 327 509 327 l 362 327 l 380 453 l 438 453 q 525 469 497 453 q 559 532 553 485 l 562 549 q 546 605 567 588 q 465 622 525 622 q 371 598 400 622 q 324 508 342 574 l 101 518 q 222 710 129 649 q 486 770 316 770 q 752 722 672 770 q 817 568 832 673 l 813 538 q 753 440 804 476 q 619 399 701 404 l 615 371 q 756 322 713 365 q 792 221 799 279 l 788 196 q 674 38 773 88 q 376 -13 574 -13 z "},"и":{"ha":884,"x_min":5,"x_max":843,"o":"m 523 0 l 588 470 l 261 0 l 5 0 l 111 758 l 326 758 l 255 251 l 607 758 l 843 758 l 737 0 l 523 0 z "},"й":{"ha":884,"x_min":5,"x_max":866,"o":"m 5 0 m 523 0 l 588 470 l 261 0 l 5 0 l 111 758 l 326 758 l 255 251 l 607 758 l 843 758 l 737 0 l 523 0 m 494 875 q 270 940 361 875 q 205 1165 179 1005 l 420 1178 q 427 1061 408 1096 q 515 1025 447 1025 q 613 1061 583 1025 q 653 1178 643 1096 l 866 1165 q 736 940 846 1005 q 494 875 626 875 z "},"ѝ":{"ha":884,"x_min":5,"x_max":843,"o":"m 5 0 m 496 884 l 247 1136 l 563 1136 l 662 884 l 496 884 m 523 0 l 588 470 l 261 0 l 5 0 l 111 758 l 326 758 l 255 251 l 607 758 l 843 758 l 737 0 l 523 0 z "},"к":{"ha":884,"x_min":18,"x_max":875,"o":"m 313 309 l 270 0 l 18 0 l 124 758 l 376 758 l 337 473 l 384 473 l 616 758 l 875 758 l 585 417 l 765 0 l 497 0 l 360 309 l 313 309 z "},"ќ":{"ha":884,"x_min":18,"x_max":890,"o":"m 18 0 m 405 884 l 574 1136 l 890 1136 l 571 884 l 405 884 m 313 309 l 270 0 l 18 0 l 124 758 l 376 758 l 337 473 l 384 473 l 616 758 l 875 758 l 585 417 l 765 0 l 497 0 l 360 309 l 313 309 z "},"л":{"ha":884,"x_min":-68,"x_max":856,"o":"m 497 0 l 580 581 l 409 581 l 365 287 q 268 57 342 133 q 63 -18 193 -18 q -1 -11 32 -18 q -68 5 -34 -4 l -19 183 q 13 176 -3 179 q 42 172 28 172 q 95 198 72 172 q 130 302 117 223 l 198 758 l 856 758 l 750 0 l 497 0 z "},"м":{"ha":884,"x_min":-8,"x_max":856,"o":"m 319 189 l 239 426 l 207 0 l -8 0 l 98 758 l 332 758 l 431 396 l 629 758 l 856 758 l 750 0 l 535 0 l 621 423 l 479 189 l 319 189 z "},"н":{"ha":884,"x_min":5,"x_max":843,"o":"m 5 0 l 111 758 l 364 758 l 328 505 l 556 505 l 591 758 l 843 758 l 737 0 l 485 0 l 529 316 l 302 316 l 258 0 l 5 0 z "},"о":{"ha":884,"x_min":24,"x_max":823,"o":"m 24 0 m 370 -13 q 111 63 198 -13 q 43 274 24 139 l 72 479 q 199 693 91 615 q 481 770 308 770 q 738 691 653 770 q 804 472 823 611 l 775 268 q 649 62 756 136 q 370 -13 542 -13 m 394 164 q 485 193 455 164 q 525 287 516 222 l 551 467 q 537 564 559 534 q 455 593 515 593 q 363 564 394 593 q 323 470 332 534 l 299 293 q 311 194 289 225 q 394 164 333 164 z "},"п":{"ha":884,"x_min":5,"x_max":843,"o":"m 5 0 l 111 758 l 843 758 l 737 0 l 485 0 l 564 568 l 337 568 l 258 0 l 5 0 z "},"р":{"ha":884,"x_min":-30,"x_max":827,"o":"m 0 0 m 400 168 q 484 193 453 168 q 524 278 515 218 l 551 468 q 539 554 559 527 q 479 581 518 581 q 407 565 443 581 q 331 518 371 549 l 285 201 q 340 176 316 184 q 400 168 365 168 m 423 -8 q 337 0 380 -8 q 260 21 294 8 l 222 -253 l -30 -253 l 111 758 l 364 758 l 345 619 l 383 619 q 487 729 420 688 q 633 770 554 770 q 779 702 731 770 q 811 518 827 634 l 777 277 q 662 69 758 145 q 423 -8 567 -8 z "},"с":{"ha":884,"x_min":25,"x_max":807,"o":"m 25 0 m 381 -13 q 112 64 198 -13 q 45 287 25 141 l 72 476 q 201 693 92 616 q 490 770 309 770 q 735 695 664 770 q 807 485 807 620 l 561 465 q 542 564 564 537 q 457 592 519 592 q 362 563 393 592 q 322 458 332 533 l 299 299 q 311 194 289 223 q 399 164 333 164 q 490 187 461 164 q 533 268 519 210 l 774 247 q 664 55 747 122 q 381 -13 580 -13 z "},"т":{"ha":884,"x_min":72,"x_max":856,"o":"m 245 0 l 324 568 l 72 568 l 98 758 l 856 758 l 830 568 l 577 568 l 497 0 l 245 0 z "},"у":{"ha":884,"x_min":-59,"x_max":888,"o":"m 0 0 m 138 -268 q 46 -264 95 -268 q -59 -253 -3 -260 l -21 -76 q 73 -90 32 -85 q 145 -96 114 -96 q 256 -68 218 -96 q 330 43 294 -40 l 333 51 l 173 51 l 66 758 l 322 758 l 396 197 l 641 758 l 888 758 l 551 20 q 386 -205 477 -141 q 138 -268 295 -268 z "},"ў":{"ha":884,"x_min":-59,"x_max":888,"o":"m 0 0 m 138 -268 q 46 -264 95 -268 q -59 -253 -3 -260 l -21 -76 q 73 -90 32 -85 q 145 -96 114 -96 q 256 -68 218 -96 q 330 43 294 -40 l 333 51 l 173 51 l 66 758 l 322 758 l 396 197 l 641 758 l 888 758 l 551 20 q 386 -205 477 -141 q 138 -268 295 -268 m 494 875 q 270 940 361 875 q 205 1165 179 1005 l 420 1178 q 427 1061 408 1096 q 515 1025 447 1025 q 613 1061 583 1025 q 653 1178 643 1096 l 866 1165 q 736 940 846 1005 q 494 875 626 875 z "},"ф":{"ha":884,"x_min":-5,"x_max":855,"o":"m 494 0 l 472 0 l 437 -253 l 235 -253 l 270 0 l 249 0 q 58 67 121 0 q 11 253 -5 134 l 48 509 q 146 692 64 626 q 355 758 227 758 l 376 758 l 412 1010 l 614 1010 l 578 758 l 600 758 q 791 691 727 758 q 837 508 855 625 l 802 251 q 703 67 785 134 q 494 0 621 0 m 284 149 l 311 149 l 374 606 l 347 606 q 285 585 316 606 q 246 503 255 563 l 211 254 q 227 170 202 192 q 284 149 253 149 m 564 606 l 538 606 l 475 149 l 501 149 q 564 170 534 149 q 602 254 593 192 l 638 503 q 622 585 646 563 q 564 606 597 606 z "},"х":{"ha":884,"x_min":-25,"x_max":848,"o":"m 0 0 m 511 0 l 391 223 l 223 0 l -25 0 l 303 386 l 102 758 l 354 758 l 460 563 l 600 758 l 848 758 l 551 395 l 765 0 l 511 0 z "},"ц":{"ha":884,"x_min":5,"x_max":833,"o":"m 540 -189 l 567 0 l 5 0 l 111 758 l 364 758 l 284 189 l 492 189 l 572 758 l 824 758 l 745 189 l 833 189 l 780 -189 l 540 -189 z "},"ч":{"ha":884,"x_min":43,"x_max":831,"o":"m 831 758 l 725 0 l 472 0 l 504 222 q 441 208 475 213 q 354 202 407 202 q 116 283 189 202 q 66 519 43 364 l 98 758 l 351 758 l 318 521 q 335 418 308 447 q 413 389 361 389 q 476 395 447 389 q 530 409 505 400 l 578 758 l 831 758 z "},"ш":{"ha":884,"x_min":-24,"x_max":872,"o":"m -24 0 l 82 758 l 282 758 l 201 177 l 298 177 l 379 758 l 576 758 l 495 177 l 592 177 l 673 758 l 872 758 l 766 0 l -24 0 z "},"щ":{"ha":884,"x_min":-24,"x_max":872,"o":"m 787 -189 l 587 -189 l 614 0 l -24 0 l 82 758 l 282 758 l 201 177 l 298 177 l 379 758 l 576 758 l 495 177 l 592 177 l 673 758 l 872 758 l 792 177 l 838 177 l 787 -189 z "},"ъ":{"ha":884,"x_min":9,"x_max":847,"o":"m 475 0 l 119 0 l 198 568 l 9 568 l 35 758 l 477 758 l 449 553 l 554 553 q 774 487 701 553 q 831 304 847 422 l 822 241 q 713 64 806 128 q 475 0 621 0 m 396 177 l 460 177 q 538 196 510 177 q 572 260 566 216 l 578 302 q 561 362 585 346 q 487 379 538 379 l 424 379 l 396 177 z "},"ы":{"ha":884,"x_min":-24,"x_max":872,"o":"m -24 0 l 82 758 l 288 758 l 263 578 l 292 578 q 485 523 420 578 q 535 367 549 467 l 515 229 q 420 60 500 120 q 210 0 340 0 l -24 0 m 561 0 l 667 758 l 872 758 l 766 0 l 561 0 m 205 164 l 230 164 q 301 183 275 164 q 333 254 326 202 l 345 333 q 331 400 352 383 q 265 417 311 417 l 240 417 l 205 164 z "},"ь":{"ha":884,"x_min":-8,"x_max":809,"o":"m -8 0 l 98 758 l 351 758 l 323 553 l 491 553 q 730 487 652 553 q 793 304 809 422 l 784 241 q 670 63 768 126 q 412 0 573 0 l -8 0 m 270 177 l 396 177 q 493 193 460 177 q 533 254 527 210 l 539 295 q 516 359 545 340 q 424 379 487 379 l 298 379 l 270 177 z "},"э":{"ha":884,"x_min":15,"x_max":824,"o":"m 352 -13 q 93 48 172 -13 q 25 241 15 109 l 271 261 q 287 170 268 196 q 380 145 306 145 q 483 176 452 145 q 524 280 514 207 l 530 322 l 332 322 l 351 461 l 549 461 l 553 484 q 541 582 563 553 q 448 611 519 611 q 351 591 381 611 q 307 515 321 571 l 67 535 q 195 714 100 658 q 463 770 290 770 q 731 697 638 770 q 804 476 824 624 l 778 287 q 648 64 758 141 q 352 -13 538 -13 z "},"ю":{"ha":884,"x_min":-24,"x_max":856,"o":"m 515 -13 q 340 53 394 -13 q 303 236 287 119 l 317 328 l 227 328 l 181 0 l -24 0 l 82 758 l 287 758 l 250 492 l 340 492 l 342 516 q 432 703 360 635 q 626 770 505 770 q 802 703 749 770 q 838 516 856 635 l 799 236 q 711 53 783 119 q 515 -13 639 -13 m 538 152 q 577 174 566 152 q 593 236 588 197 l 633 516 q 634 581 639 557 q 601 606 629 606 q 562 581 573 606 q 544 516 551 557 l 505 236 q 505 174 500 197 q 538 152 510 152 z "},"я":{"ha":884,"x_min":-6,"x_max":843,"o":"m 414 391 l 540 391 l 568 593 l 442 593 q 384 578 407 593 q 354 506 362 562 l 350 479 q 360 406 342 420 q 414 391 379 391 m 516 227 l 441 227 l 261 0 l -6 0 l 196 253 q 111 337 136 280 q 97 476 86 394 l 102 516 q 197 694 119 631 q 400 758 275 758 l 843 758 l 737 0 l 485 0 l 516 227 z "},"ђ":{"ha":884,"x_min":-15,"x_max":817,"o":"m 381 -265 q 295 -257 338 -265 q 213 -236 253 -249 l 260 -77 q 320 -94 292 -87 q 372 -101 348 -101 q 449 -73 419 -101 q 487 19 479 -45 l 539 384 q 531 465 547 437 q 480 492 515 492 q 397 463 441 492 q 312 384 354 433 l 258 0 l 5 0 l 111 758 l -15 758 l 3 884 l 129 884 l 146 1010 l 399 1010 l 381 884 l 583 884 l 566 758 l 364 758 l 332 530 l 370 530 q 477 642 412 602 q 622 682 543 682 q 765 622 713 682 q 801 453 817 562 l 737 -3 q 611 -203 717 -141 q 381 -265 505 -265 z "},"є":{"ha":884,"x_min":25,"x_max":827,"o":"m 785 241 q 660 48 755 109 q 388 -13 566 -13 q 114 64 202 -13 q 45 287 25 141 l 72 476 q 207 697 92 624 q 496 770 322 770 q 748 714 669 770 q 827 535 827 658 l 580 515 q 558 591 583 571 q 466 611 533 611 q 366 582 395 611 q 326 484 336 553 l 322 455 l 549 455 l 532 328 l 304 328 l 297 280 q 309 176 287 207 q 403 145 331 145 q 504 170 477 145 q 544 261 530 196 l 785 241 z "},"ѕ":{"ha":884,"x_min":18,"x_max":780,"o":"m 18 0 m 371 -8 q 177 18 273 -8 q 18 90 82 44 l 96 240 q 248 170 165 193 q 399 146 331 146 q 480 164 455 146 q 510 215 505 181 q 491 272 515 254 q 407 297 467 290 q 167 360 247 313 q 104 518 87 407 q 218 702 120 634 q 471 770 317 770 q 631 748 548 770 q 777 687 715 726 l 713 545 q 582 599 646 582 q 460 616 518 616 q 388 599 412 616 q 359 551 364 582 q 390 495 354 510 q 505 470 426 480 q 717 398 653 451 q 765 244 780 346 q 647 60 749 128 q 371 -8 545 -8 z "},"і":{"ha":884,"x_min":18,"x_max":750,"o":"m 18 0 m 508 871 q 394 893 436 871 q 360 967 352 914 l 362 986 q 418 1063 370 1040 q 538 1086 466 1086 q 652 1063 610 1086 q 686 986 693 1040 l 683 967 q 627 893 676 914 q 508 871 578 871 m 18 0 l 43 177 l 270 177 l 327 581 l 100 581 l 124 758 l 604 758 l 523 177 l 750 177 l 725 0 l 18 0 z "},"ї":{"ha":884,"x_min":18,"x_max":806,"o":"m 18 0 m 18 0 l 43 177 l 270 177 l 327 581 l 100 581 l 124 758 l 604 758 l 523 177 l 750 177 l 725 0 l 18 0 m 330 871 q 244 893 275 871 q 220 967 212 914 l 222 986 q 268 1063 230 1040 q 360 1086 306 1086 q 446 1063 415 1086 q 470 986 477 1040 l 467 967 q 422 893 460 914 q 330 871 384 871 m 658 871 q 572 893 604 871 q 548 967 540 914 l 551 986 q 596 1063 558 1040 q 688 1086 634 1086 q 775 1063 744 1086 q 798 986 806 1040 l 795 967 q 750 893 788 914 q 658 871 712 871 z "},"ј":{"ha":884,"x_min":-39,"x_max":780,"o":"m 0 0 m 192 -265 q 73 -259 133 -265 q -39 -236 14 -254 l 8 -77 q 100 -97 57 -92 q 183 -101 144 -101 q 306 -73 259 -101 q 361 19 352 -45 l 441 581 l 126 581 l 150 758 l 717 758 l 611 -3 q 482 -195 593 -125 q 192 -265 370 -265 m 595 871 q 481 893 523 871 q 447 967 439 914 l 449 986 q 505 1063 457 1040 q 625 1086 553 1086 q 739 1063 697 1086 q 773 986 780 1040 l 770 967 q 714 893 763 914 q 595 871 665 871 z "},"љ":{"ha":884,"x_min":-90,"x_max":828,"o":"m 283 606 l 220 169 q 150 40 207 86 q 1 -6 93 -6 q -44 -3 -21 -6 q -90 5 -67 0 l -42 170 q -27 168 -34 169 q -11 167 -19 167 q 20 179 6 167 q 42 230 34 191 l 120 758 l 588 758 l 561 553 l 634 553 q 782 498 735 553 q 814 342 828 443 l 801 241 q 720 62 784 125 q 554 0 657 0 l 293 0 l 378 606 l 283 606 m 504 152 l 535 152 q 587 175 569 152 q 612 254 605 198 l 622 321 q 617 385 629 366 q 571 404 605 404 l 539 404 l 504 152 z "},"њ":{"ha":884,"x_min":-23,"x_max":833,"o":"m 504 152 l 535 152 q 587 172 571 152 q 611 241 604 192 l 626 346 q 621 410 633 391 q 574 429 610 429 l 543 429 l 504 152 m 216 354 l 167 0 l -23 0 l 83 758 l 273 758 l 240 518 l 366 518 l 399 758 l 588 758 l 563 578 l 636 578 q 785 527 737 578 q 819 380 833 475 l 797 216 q 719 57 783 114 q 554 0 655 0 l 293 0 l 342 354 l 216 354 z "},"ћ":{"ha":884,"x_min":-15,"x_max":816,"o":"m 0 0 m 312 384 l 258 0 l 5 0 l 111 758 l -15 758 l 3 884 l 129 884 l 146 1010 l 399 1010 l 381 884 l 583 884 l 566 758 l 364 758 l 332 530 l 370 530 q 478 641 410 601 q 622 682 545 682 q 765 617 715 682 q 801 453 816 553 l 737 0 l 485 0 l 539 384 q 531 465 547 437 q 480 492 515 492 q 397 463 441 492 q 312 384 354 433 z "},"џ":{"ha":884,"x_min":5,"x_max":843,"o":"m 225 -189 l 251 0 l 5 0 l 111 758 l 364 758 l 284 189 l 511 189 l 591 758 l 843 758 l 737 0 l 491 0 l 465 -189 l 225 -189 z "},"ґ":{"ha":884,"x_min":56,"x_max":845,"o":"m 56 0 l 162 758 l 578 758 l 605 947 l 845 947 l 792 568 l 388 568 l 308 0 l 56 0 z "},"ⁿ":{"ha":884,"x_min":109,"x_max":802,"o":"m 109 379 l 197 1010 l 412 1010 l 396 896 l 434 896 q 473 950 451 927 q 524 990 496 973 q 583 1015 552 1006 q 649 1023 615 1023 q 723 1005 692 1023 q 773 952 755 987 q 797 869 792 918 q 793 756 802 819 l 740 379 l 525 379 l 577 750 q 580 797 581 777 q 572 831 578 817 q 557 852 567 845 q 532 859 547 859 q 496 851 514 859 q 457 828 477 843 q 417 795 438 814 q 375 750 396 775 l 323 379 l 109 379 z "},"̀":{"ha":0,"x_min":-220,"x_max":194,"o":"m 29 884 l -220 1136 l 96 1136 l 194 884 l 29 884 z "},"́":{"ha":0,"x_min":-116,"x_max":369,"o":"m -116 884 l 53 1136 l 369 1136 l 49 884 l -116 884 z "},"̂":{"ha":0,"x_min":-264,"x_max":395,"o":"m -201 864 l -264 970 l -4 1170 l 188 1170 l 395 970 l 303 865 l 68 997 l -201 864 z "},"̃":{"ha":0,"x_min":-261,"x_max":412,"o":"m 177 896 q 85 915 115 896 q 37 956 54 934 q 5 997 20 979 q -34 1015 -10 1015 q -73 997 -54 1015 q -100 920 -92 979 l -101 909 l -261 909 l -259 928 q -181 1104 -244 1033 q -24 1174 -117 1174 q 66 1155 37 1174 q 115 1115 96 1136 q 148 1073 134 1092 q 184 1054 163 1054 q 223 1073 205 1054 q 250 1149 242 1091 l 251 1160 l 412 1160 l 409 1141 q 332 967 395 1038 q 177 896 269 896 z "},"̄":{"ha":0,"x_min":-226,"x_max":369,"o":"m -226 915 l -199 1105 l 369 1105 l 342 915 l -226 915 z "},"̆":{"ha":0,"x_min":-263,"x_max":432,"o":"m 52 875 q -191 949 -119 875 q -242 1178 -263 1024 l -40 1178 q -25 1059 -51 1092 q 73 1025 0 1025 q 182 1059 146 1025 q 230 1178 217 1092 l 432 1178 q 316 949 409 1024 q 52 875 222 875 z "},"̇":{"ha":0,"x_min":-104,"x_max":237,"o":"m 52 871 q -62 893 -20 871 q -96 967 -104 914 l -93 986 q -38 1063 -86 1040 q 82 1086 10 1086 q 196 1063 154 1086 q 230 986 237 1040 l 227 967 q 171 893 220 914 q 52 871 122 871 z "},"̈":{"ha":0,"x_min":-230,"x_max":364,"o":"m -112 871 q -198 893 -167 871 q -222 967 -230 914 l -220 986 q -174 1063 -212 1040 q -82 1086 -136 1086 q 4 1063 -27 1086 q 28 986 35 1040 l 25 967 q -20 893 18 914 q -112 871 -58 871 m 216 871 q 130 893 162 871 q 106 967 98 914 l 109 986 q 154 1063 116 1040 q 246 1086 192 1086 q 333 1063 302 1086 q 356 986 364 1040 l 354 967 q 308 893 346 914 q 216 871 270 871 z "},"̊":{"ha":0,"x_min":-202,"x_max":361,"o":"m 49 852 q -136 900 -69 852 q -188 1048 -202 948 l -183 1088 q -89 1239 -169 1189 q 110 1288 -9 1288 q 295 1239 230 1288 q 347 1088 361 1189 l 342 1048 q 248 900 328 948 q 49 852 168 852 m 66 967 q 136 985 110 967 q 168 1048 162 1004 l 173 1088 q 159 1152 179 1131 q 95 1173 139 1173 q 23 1152 49 1173 q -9 1088 -3 1131 l -14 1048 q 0 985 -20 1004 q 66 967 20 967 z "},"̋":{"ha":0,"x_min":-192,"x_max":432,"o":"m 98 884 l 192 1136 l 432 1136 l 226 884 l 98 884 m -192 884 l -98 1136 l 141 1136 l -64 884 l -192 884 z "},"̌":{"ha":0,"x_min":-247,"x_max":412,"o":"m -40 889 l -247 1090 l -155 1194 l 80 1062 l 348 1196 l 412 1090 l 152 889 l -40 889 z "},"̒":{"ha":0,"x_min":-141,"x_max":293,"o":"m -141 884 l 128 1136 l 293 1136 l 174 884 l -141 884 z "},"̦":{"ha":0,"x_min":-331,"x_max":104,"o":"m -331 -379 l -212 -126 l 104 -126 l -165 -379 l -331 -379 z "},"̧":{"ha":0,"x_min":-415,"x_max":158,"o":"m -109 0 l -76 53 q 95 8 32 43 q 146 -111 158 -27 q 42 -246 133 -206 q -152 -285 -48 -285 q -344 -246 -273 -285 q -409 -114 -415 -206 l -194 -101 q -184 -134 -196 -125 q -141 -144 -172 -144 q -88 -131 -107 -144 q -63 -74 -69 -117 q -68 -26 -59 -43 q -109 0 -77 -9 z "},"̨":{"ha":0,"x_min":-307,"x_max":96,"o":"m -90 -283 q -251 -242 -196 -283 q -295 -121 -307 -202 q -211 20 -284 -38 q -61 97 -139 77 l -37 29 q -96 -21 -83 3 q -111 -67 -109 -45 q -97 -116 -116 -100 q -27 -131 -77 -131 q 27 -128 -4 -131 q 96 -119 58 -125 l 74 -265 q -13 -278 29 -274 q -90 -283 -54 -283 z "},"¼":{"ha":884,"x_min":-28,"x_max":880,"o":"m 216 520 l 231 633 l 403 633 l 437 872 l 410 872 q 384 824 402 846 q 345 787 366 803 q 294 763 321 771 q 240 751 268 754 l 250 884 q 309 899 279 889 q 367 927 338 909 q 420 967 395 943 q 461 1020 444 991 l 649 1020 l 593 633 l 750 633 l 735 520 l 216 520 m -28 308 l -4 472 l 394 447 l 378 333 l -28 308 m 476 333 l 492 447 l 880 472 l 856 308 l 476 333 m 681 -143 l 563 -143 l 545 -265 l 355 -265 l 372 -143 l 52 -143 l 69 -16 l 395 273 l 621 273 l 581 -16 l 698 -16 l 681 -143 m 215 -16 l 390 -16 l 415 158 l 215 -16 z "},"½":{"ha":884,"x_min":-28,"x_max":880,"o":"m 216 520 l 231 633 l 403 633 l 437 872 l 410 872 q 384 824 402 846 q 345 787 366 803 q 294 763 321 771 q 240 751 268 754 l 250 884 q 309 899 279 889 q 367 927 338 909 q 420 967 395 943 q 461 1020 444 991 l 649 1020 l 593 633 l 750 633 l 735 520 l 216 520 m -28 308 l -4 472 l 394 447 l 378 333 l -28 308 m 476 333 l 492 447 l 880 472 l 856 308 l 476 333 m 42 -265 l 59 -140 q 76 -82 64 -109 q 109 -35 88 -56 q 160 1 129 -14 q 231 24 191 16 l 389 56 q 431 65 417 61 q 455 74 446 69 q 472 88 466 80 q 479 110 477 97 l 480 115 q 475 136 481 128 q 456 148 468 144 q 427 153 443 152 q 391 154 412 154 q 356 152 371 154 q 327 145 341 150 q 305 129 314 140 q 292 101 295 119 l 102 110 q 132 179 111 150 q 189 229 153 208 q 282 258 227 247 q 408 268 336 268 q 533 258 481 268 q 616 229 585 247 q 662 179 649 208 q 669 110 676 149 l 667 87 q 650 37 663 59 q 614 -3 636 15 q 564 -31 592 -19 q 503 -49 535 -43 l 343 -81 q 304 -90 319 -86 q 279 -100 288 -95 q 262 -112 268 -105 q 254 -128 256 -119 l 644 -128 l 624 -265 l 42 -265 z "},"¾":{"ha":884,"x_min":-28,"x_max":880,"o":"m 449 510 q 320 521 375 510 q 230 552 265 532 q 180 605 196 573 q 168 679 164 636 l 359 687 q 364 654 359 667 q 383 634 370 641 q 414 624 395 626 q 463 621 433 621 q 508 623 490 621 q 537 630 527 625 q 556 641 549 634 q 564 660 562 649 l 567 679 q 563 701 568 692 q 547 715 558 710 q 516 722 534 720 q 472 725 499 725 l 331 725 l 346 833 l 487 833 q 527 835 510 833 q 554 841 543 837 q 571 852 564 845 q 578 870 577 859 l 580 878 q 577 896 581 889 q 562 908 573 904 q 534 913 551 912 q 491 914 518 914 q 449 913 465 914 q 424 908 433 912 q 410 897 415 904 q 402 879 404 890 l 212 886 q 241 948 220 922 q 299 991 263 973 q 388 1016 336 1008 q 506 1025 439 1025 q 630 1018 578 1025 q 716 996 682 1010 q 762 959 747 981 q 773 907 777 937 l 771 896 q 756 857 768 875 q 729 827 745 840 q 690 806 711 814 q 645 794 669 798 l 643 771 q 685 761 664 769 q 722 740 706 754 q 749 707 741 727 q 755 662 758 687 l 754 652 q 727 588 747 615 q 669 545 706 562 q 576 519 631 528 q 449 510 521 510 m -28 308 l -4 472 l 394 447 l 378 333 l -28 308 m 476 333 l 492 447 l 880 472 l 856 308 l 476 333 m 681 -143 l 563 -143 l 545 -265 l 355 -265 l 372 -143 l 52 -143 l 69 -16 l 395 273 l 621 273 l 581 -16 l 698 -16 l 681 -143 m 215 -16 l 390 -16 l 415 158 l 215 -16 z "},"⅛":{"ha":884,"x_min":-28,"x_max":880,"o":"m 216 520 l 231 633 l 403 633 l 437 872 l 410 872 q 384 824 402 846 q 345 787 366 803 q 294 763 321 771 q 240 751 268 754 l 250 884 q 309 899 279 889 q 367 927 338 909 q 420 967 395 943 q 461 1020 444 991 l 649 1020 l 593 633 l 750 633 l 735 520 l 216 520 m -28 308 l -4 472 l 394 447 l 378 333 l -28 308 m 476 333 l 492 447 l 880 472 l 856 308 l 476 333 m 343 -270 q 206 -260 261 -270 q 121 -231 152 -250 q 79 -185 90 -212 q 74 -121 68 -158 l 76 -104 q 91 -62 80 -81 q 122 -29 102 -43 q 167 -6 141 -15 q 226 5 193 3 l 229 28 q 183 37 203 30 q 148 56 163 44 q 126 81 133 67 q 122 115 120 96 l 126 140 q 152 199 130 174 q 211 239 173 223 q 300 263 247 255 q 419 270 352 270 q 537 263 487 270 q 620 240 587 255 q 667 199 653 225 q 677 140 681 174 l 673 115 q 659 81 670 96 q 631 56 648 67 q 591 37 614 44 q 543 28 568 30 l 540 5 q 594 -6 571 3 q 634 -29 617 -15 q 655 -62 649 -43 q 658 -104 662 -81 l 657 -121 q 632 -186 650 -158 q 577 -231 614 -213 q 484 -260 542 -250 q 343 -270 426 -270 m 389 54 q 424 56 409 54 q 452 63 439 58 q 471 74 463 67 q 480 93 479 82 l 484 120 q 480 139 486 131 q 465 150 475 146 q 439 157 453 155 q 404 159 424 159 q 369 157 385 159 q 342 150 352 155 q 323 139 330 146 q 313 120 316 131 l 309 93 q 313 74 308 82 q 330 63 318 67 q 354 56 338 58 q 389 54 370 54 m 359 -159 q 408 -156 388 -159 q 441 -148 428 -153 q 458 -134 452 -141 q 466 -115 465 -126 l 468 -95 q 467 -74 471 -83 q 452 -61 463 -66 q 423 -51 442 -54 q 375 -48 404 -48 q 326 -51 346 -48 q 294 -61 306 -54 q 277 -74 283 -66 q 268 -95 270 -83 l 265 -115 q 268 -134 264 -126 q 283 -148 271 -141 q 311 -156 292 -153 q 359 -159 330 -159 z "},"⅜":{"ha":884,"x_min":-28,"x_max":880,"o":"m 449 510 q 322 521 376 510 q 231 552 268 532 q 181 605 197 573 q 168 679 164 636 l 359 687 q 364 654 359 667 q 383 634 370 641 q 414 624 395 626 q 463 621 433 621 q 508 623 490 621 q 537 630 527 625 q 556 641 549 634 q 564 660 562 649 l 567 679 q 563 701 568 692 q 547 715 558 710 q 516 722 534 720 q 472 725 499 725 l 331 725 l 346 833 l 487 833 q 527 835 510 833 q 554 841 543 837 q 571 852 564 845 q 578 870 577 859 l 580 878 q 577 896 581 889 q 562 908 573 904 q 534 913 551 912 q 491 914 518 914 q 449 913 465 914 q 424 908 433 912 q 410 897 415 904 q 402 879 404 890 l 212 886 q 244 953 220 927 q 306 996 268 980 q 393 1018 343 1011 q 506 1025 442 1025 q 622 1020 572 1025 q 707 1001 673 1014 q 761 964 744 987 q 773 907 778 941 l 771 896 q 756 857 768 875 q 729 827 745 840 q 690 806 711 814 q 645 794 669 798 l 643 771 q 685 761 664 769 q 722 740 706 754 q 749 707 741 727 q 755 662 758 687 l 754 652 q 723 582 747 610 q 659 538 699 554 q 568 516 619 523 q 449 510 516 510 m -28 308 l -4 472 l 394 447 l 378 333 l -28 308 m 476 333 l 492 447 l 880 472 l 856 308 l 476 333 m 343 -270 q 206 -260 261 -270 q 121 -231 152 -250 q 79 -185 90 -212 q 74 -121 68 -158 l 76 -104 q 91 -62 80 -81 q 122 -29 102 -43 q 167 -6 141 -15 q 226 5 193 3 l 229 28 q 183 37 203 30 q 148 56 163 44 q 126 81 133 67 q 122 115 120 96 l 126 140 q 152 199 130 174 q 211 239 173 223 q 300 263 247 255 q 419 270 352 270 q 537 263 487 270 q 620 240 587 255 q 667 199 653 225 q 677 140 681 174 l 673 115 q 659 81 670 96 q 631 56 648 67 q 591 37 614 44 q 543 28 568 30 l 540 5 q 594 -6 571 3 q 634 -29 617 -15 q 655 -62 649 -43 q 658 -104 662 -81 l 657 -121 q 632 -186 650 -158 q 577 -231 614 -213 q 484 -260 542 -250 q 343 -270 426 -270 m 389 54 q 424 56 409 54 q 452 63 439 58 q 471 74 463 67 q 480 93 479 82 l 484 120 q 480 139 486 131 q 465 150 475 146 q 439 157 453 155 q 404 159 424 159 q 369 157 385 159 q 342 150 352 155 q 323 139 330 146 q 313 120 316 131 l 309 93 q 313 74 308 82 q 330 63 318 67 q 354 56 338 58 q 389 54 370 54 m 359 -159 q 408 -156 388 -159 q 441 -148 428 -153 q 458 -134 452 -141 q 466 -115 465 -126 l 468 -95 q 467 -74 471 -83 q 452 -61 463 -66 q 423 -51 442 -54 q 375 -48 404 -48 q 326 -51 346 -48 q 294 -61 306 -54 q 277 -74 283 -66 q 268 -95 270 -83 l 265 -115 q 268 -134 264 -126 q 283 -148 271 -141 q 311 -156 292 -153 q 359 -159 330 -159 z "},"⅝":{"ha":884,"x_min":-28,"x_max":880,"o":"m 448 500 q 312 509 367 500 q 222 540 256 519 q 176 594 189 561 q 167 677 163 628 l 359 684 q 364 652 359 664 q 381 630 369 639 q 414 617 393 621 q 467 614 434 614 q 516 617 497 614 q 544 626 534 620 q 559 645 554 634 q 566 673 563 655 l 568 688 q 566 710 569 702 q 549 725 562 718 q 508 732 535 730 q 432 735 480 735 l 198 735 l 239 1020 l 785 1020 l 769 907 l 413 907 l 404 845 l 528 845 q 638 836 592 845 q 713 809 684 827 q 753 763 741 790 q 760 698 765 736 l 754 655 q 729 595 749 622 q 673 545 710 567 q 580 512 635 524 q 448 500 524 500 m -28 308 l -4 472 l 394 447 l 378 333 l -28 308 m 476 333 l 492 447 l 880 472 l 856 308 l 476 333 m 343 -270 q 206 -260 261 -270 q 121 -231 152 -250 q 79 -185 90 -212 q 74 -121 68 -158 l 76 -104 q 91 -62 80 -81 q 122 -29 102 -43 q 167 -6 141 -15 q 226 5 193 3 l 229 28 q 183 38 203 30 q 148 56 163 45 q 126 82 133 67 q 122 116 120 97 l 126 141 q 152 199 131 176 q 211 240 173 223 q 300 263 247 255 q 419 270 352 270 q 538 263 487 270 q 620 241 588 256 q 667 200 653 225 q 677 141 682 176 l 673 116 q 659 82 670 97 q 631 56 648 67 q 591 38 614 45 q 543 28 568 30 l 540 5 q 594 -6 571 3 q 634 -29 617 -15 q 655 -62 649 -43 q 658 -104 662 -81 l 657 -121 q 632 -186 650 -158 q 577 -231 614 -213 q 484 -260 542 -250 q 343 -270 426 -270 m 389 54 q 424 56 409 54 q 452 63 439 58 q 471 74 463 67 q 480 93 479 82 l 484 120 q 480 139 486 131 q 465 150 475 146 q 439 157 453 155 q 404 159 424 159 q 369 157 385 159 q 342 150 352 155 q 323 139 330 146 q 313 120 316 131 l 309 93 q 313 74 308 82 q 330 63 318 67 q 354 56 338 58 q 389 54 370 54 m 359 -159 q 408 -156 388 -159 q 441 -148 428 -153 q 458 -134 452 -141 q 466 -115 465 -126 l 468 -95 q 467 -74 471 -83 q 452 -61 463 -66 q 423 -51 442 -54 q 375 -48 404 -48 q 326 -51 346 -48 q 294 -61 306 -54 q 277 -74 283 -66 q 268 -95 270 -83 l 265 -115 q 268 -134 264 -126 q 283 -148 271 -141 q 311 -156 292 -153 q 359 -159 330 -159 z "},"⅞":{"ha":884,"x_min":-28,"x_max":880,"o":"m 346 520 q 399 621 370 573 q 463 713 428 669 q 540 800 499 758 q 633 886 582 842 l 241 886 l 260 1020 l 842 1020 l 823 886 q 732 798 774 842 q 657 708 691 754 q 593 617 621 664 q 544 520 566 569 l 346 520 m -28 308 l -4 472 l 394 447 l 378 333 l -28 308 m 476 333 l 492 447 l 880 472 l 856 308 l 476 333 m 343 -270 q 206 -260 261 -270 q 121 -231 152 -250 q 79 -185 90 -212 q 74 -121 68 -158 l 76 -104 q 91 -62 80 -81 q 122 -29 102 -43 q 167 -6 141 -15 q 226 5 193 3 l 229 28 q 183 37 203 30 q 148 56 163 44 q 126 81 133 67 q 122 115 120 96 l 126 140 q 152 199 130 174 q 211 239 173 223 q 300 263 247 255 q 419 270 352 270 q 537 263 487 270 q 620 240 587 255 q 667 199 653 225 q 677 140 681 174 l 673 115 q 659 81 670 96 q 631 56 648 67 q 591 37 614 44 q 543 28 568 30 l 540 5 q 594 -6 571 3 q 634 -29 617 -15 q 655 -62 649 -43 q 658 -104 662 -81 l 657 -121 q 632 -186 650 -158 q 577 -231 614 -213 q 484 -260 542 -250 q 343 -270 426 -270 m 389 54 q 424 56 409 54 q 452 63 439 58 q 471 74 463 67 q 480 93 479 82 l 484 120 q 480 139 486 131 q 465 150 475 146 q 439 157 453 155 q 404 159 424 159 q 369 157 385 159 q 342 150 352 155 q 323 139 330 146 q 313 120 316 131 l 309 93 q 313 74 308 82 q 330 63 318 67 q 354 56 338 58 q 389 54 370 54 m 359 -159 q 408 -156 388 -159 q 441 -148 428 -153 q 458 -134 452 -141 q 466 -115 465 -126 l 468 -95 q 467 -74 471 -83 q 452 -61 463 -66 q 423 -51 442 -54 q 375 -48 404 -48 q 326 -51 346 -48 q 294 -61 306 -54 q 277 -74 283 -66 q 268 -95 270 -83 l 265 -115 q 268 -134 264 -126 q 283 -148 271 -141 q 311 -156 292 -153 q 359 -159 330 -159 z "},"_":{"ha":884,"x_min":-30,"x_max":732,"o":"m -30 -253 l 0 -38 l 732 -38 l 702 -253 l -30 -253 z "},"-":{"ha":884,"x_min":53,"x_max":816,"o":"m 53 341 l 83 556 l 816 556 l 785 341 l 53 341 z "},"­":{"ha":884,"x_min":53,"x_max":816,"o":"m 53 341 l 83 556 l 816 556 l 785 341 l 53 341 z "},"‐":{"ha":884,"x_min":53,"x_max":816,"o":"m 53 341 l 83 556 l 816 556 l 785 341 l 53 341 z "},"‑":{"ha":884,"x_min":53,"x_max":816,"o":"m 53 341 l 83 556 l 816 556 l 785 341 l 53 341 z "},"–":{"ha":884,"x_min":28,"x_max":841,"o":"m 28 341 l 58 556 l 841 556 l 811 341 l 28 341 z "},"—":{"ha":884,"x_min":-23,"x_max":891,"o":"m -23 341 l 8 556 l 891 556 l 861 341 l -23 341 z "},"―":{"ha":884,"x_min":-23,"x_max":891,"o":"m -23 341 l 8 556 l 891 556 l 861 341 l -23 341 z "},"(":{"ha":884,"x_min":140,"x_max":808,"o":"m 624 -265 q 230 -34 321 -218 q 172 379 140 150 q 345 787 202 597 q 806 1023 489 976 l 808 859 q 532 691 612 812 q 424 379 451 569 q 445 72 398 188 q 674 -91 492 -44 l 624 -265 z "},")":{"ha":884,"x_min":43,"x_max":707,"o":"m 43 -265 l 43 -91 q 318 75 237 -44 q 424 379 399 194 q 403 681 448 551 q 177 859 357 812 l 225 1023 q 618 787 529 976 q 677 379 707 597 q 503 -34 645 150 q 43 -265 361 -218 z "},"[":{"ha":884,"x_min":83,"x_max":828,"o":"m 83 -253 l 260 1010 l 828 1010 l 804 833 l 489 833 l 361 -76 l 677 -76 l 652 -253 l 83 -253 z "},"]":{"ha":884,"x_min":20,"x_max":765,"o":"m 20 -253 l 45 -76 l 361 -76 l 489 833 l 173 833 l 197 1010 l 765 1010 l 588 -253 l 20 -253 z "},"{":{"ha":884,"x_min":-24,"x_max":831,"o":"m 649 -265 q 170 -223 309 -269 q 48 -56 30 -178 q 78 35 56 -1 q 150 111 100 71 q 226 177 205 154 q 250 218 247 199 q 199 302 259 278 q -24 331 140 327 l -6 457 q 225 485 159 461 q 299 567 292 509 q 287 605 302 586 q 231 655 273 624 q 176 720 189 688 q 168 803 162 753 q 339 979 187 931 q 831 1023 491 1027 l 806 846 q 508 831 592 850 q 415 763 423 813 q 426 715 412 736 q 484 663 441 693 q 540 609 527 634 q 548 543 554 583 q 454 434 538 467 q 159 395 370 400 l 158 389 q 441 342 366 376 q 506 239 515 308 q 479 169 500 194 q 408 112 458 143 q 335 57 356 82 q 308 -1 313 33 q 379 -75 301 -56 q 674 -91 458 -95 l 649 -265 z "},"}":{"ha":884,"x_min":18,"x_max":878,"o":"m 679 -56 q 509 -223 662 -178 q 18 -265 357 -269 l 43 -91 q 342 -75 256 -95 q 434 -1 427 -56 q 424 57 439 33 q 367 112 409 82 q 311 169 324 143 q 304 239 298 194 q 398 342 313 308 q 693 389 482 376 l 694 395 q 411 434 486 400 q 346 543 336 467 q 374 609 352 583 q 446 663 395 634 q 517 715 496 693 q 542 763 538 736 q 470 831 549 813 q 174 846 390 850 l 199 1023 q 679 979 539 1027 q 799 803 818 931 q 770 720 793 753 q 696 655 747 688 q 624 605 644 624 q 602 567 605 586 q 653 485 595 509 q 878 457 712 461 l 860 331 q 628 302 693 327 q 553 218 562 278 q 566 177 551 199 q 622 111 581 154 q 675 35 663 71 q 679 -56 687 -1 z "},"#":{"ha":884,"x_min":-40,"x_max":926,"o":"m 494 379 l 542 631 l 390 631 l 342 379 l 494 379 m 422 0 l 463 215 l 312 215 l 270 0 l 81 0 l 122 215 l -40 215 l -18 379 l 153 379 l 201 631 l 18 631 l 42 795 l 234 795 l 273 1010 l 462 1010 l 423 795 l 574 795 l 614 1010 l 803 1010 l 764 795 l 926 795 l 902 631 l 731 631 l 683 379 l 866 379 l 843 215 l 653 215 l 611 0 l 422 0 z "},"%":{"ha":884,"x_min":3,"x_max":891,"o":"m 253 591 q 104 639 157 591 q 66 787 51 687 l 72 837 q 153 987 86 938 q 314 1035 220 1035 q 462 987 410 1035 q 500 837 514 938 l 494 787 q 413 639 479 687 q 253 591 347 591 m 269 712 q 309 727 293 712 q 330 778 324 742 l 338 846 q 333 898 343 881 q 298 914 322 914 q 258 898 274 914 q 236 846 241 881 l 227 778 q 234 727 222 742 q 269 712 245 712 m 3 244 l 809 878 l 891 765 l 74 128 l 3 244 m 571 -28 q 422 20 475 -28 q 384 168 370 68 l 390 218 q 472 368 405 319 q 633 417 538 417 q 781 368 729 417 q 818 218 833 319 l 812 168 q 732 20 798 68 q 571 -28 665 -28 m 587 87 q 626 102 611 87 q 646 153 641 117 l 657 221 q 650 273 662 256 q 615 289 639 289 q 575 273 591 289 q 554 221 559 256 l 544 153 q 551 102 539 117 q 587 87 563 87 z "},"‰":{"ha":884,"x_min":5,"x_max":902,"o":"m 240 591 q 100 639 149 591 q 66 787 51 687 l 72 837 q 149 987 86 938 q 302 1035 212 1035 q 441 987 393 1035 q 475 837 489 938 l 468 787 q 391 639 453 687 q 240 591 330 591 m 215 778 q 221 727 210 742 q 256 712 232 712 q 296 727 280 712 q 317 778 312 742 l 326 846 q 320 898 331 881 q 285 914 309 914 q 245 898 261 914 q 223 846 229 881 l 215 778 m 902 747 l 52 253 l 5 352 l 848 845 l 902 747 m 621 -28 q 556 -10 583 -28 q 516 44 529 8 q 456 -10 491 8 q 381 -28 422 -28 q 278 20 313 -28 q 258 168 244 68 l 263 206 q 330 355 277 307 q 455 404 383 404 q 519 386 492 404 q 558 333 545 369 q 613 386 581 369 q 682 404 645 404 q 793 355 755 404 q 817 206 831 307 l 812 168 q 746 20 798 68 q 621 -28 693 -28 m 388 159 q 391 109 383 124 q 417 93 399 93 q 447 109 434 93 q 465 159 460 124 l 472 215 q 469 266 477 250 q 443 283 461 283 q 413 266 426 283 q 395 215 400 250 l 388 159 m 602 159 q 605 109 597 124 q 631 93 614 93 q 662 109 649 93 q 679 159 674 124 l 687 215 q 684 266 692 250 q 658 283 676 283 q 628 266 640 283 q 610 215 615 250 l 602 159 z "},"'":{"ha":884,"x_min":327,"x_max":664,"o":"m 327 442 l 361 1010 l 664 1010 l 539 442 l 327 442 z "},"\"":{"ha":884,"x_min":150,"x_max":841,"o":"m 529 442 l 563 1010 l 841 1010 l 716 442 l 529 442 m 150 442 l 184 1010 l 462 1010 l 337 442 l 150 442 z "},"ʻ":{"ha":884,"x_min":192,"x_max":749,"o":"m 192 442 l 588 1010 l 749 1010 l 549 442 l 192 442 z "},"‘":{"ha":884,"x_min":192,"x_max":749,"o":"m 192 442 l 588 1010 l 749 1010 l 549 442 l 192 442 z "},"’":{"ha":884,"x_min":197,"x_max":754,"o":"m 197 442 l 396 1010 l 754 1010 l 357 442 l 197 442 z "},"“":{"ha":884,"x_min":40,"x_max":913,"o":"m 419 442 l 778 1010 l 913 1010 l 739 442 l 419 442 m 40 442 l 412 1010 l 547 1010 l 360 442 l 40 442 z "},"”":{"ha":884,"x_min":33,"x_max":905,"o":"m 399 442 l 586 1010 l 905 1010 l 534 442 l 399 442 m 33 442 l 207 1010 l 527 1010 l 168 442 l 33 442 z "},"‛":{"ha":884,"x_min":251,"x_max":649,"o":"m 251 442 m 489 442 l 251 1010 l 609 1010 l 649 442 l 489 442 z "},"‚":{"ha":884,"x_min":121,"x_max":653,"o":"m 121 0 m 121 -189 l 295 379 l 653 379 l 282 -189 l 121 -189 z "},"„":{"ha":884,"x_min":33,"x_max":905,"o":"m 33 0 m 399 -189 l 586 379 l 905 379 l 534 -189 l 399 -189 m 33 -189 l 207 379 l 527 379 l 168 -189 l 33 -189 z "},"‹":{"ha":884,"x_min":163,"x_max":745,"o":"m 628 25 l 163 316 l 198 568 l 745 859 l 713 638 l 345 442 l 658 246 l 628 25 z "},"›":{"ha":884,"x_min":122,"x_max":703,"o":"m 122 25 l 153 246 l 521 442 l 208 638 l 240 859 l 703 568 l 668 316 l 122 25 z "},"«":{"ha":884,"x_min":5,"x_max":903,"o":"m 785 25 l 447 316 l 482 568 l 903 859 l 871 638 l 588 442 l 816 246 l 785 25 m 343 25 l 5 316 l 40 568 l 461 859 l 429 638 l 146 442 l 374 246 l 343 25 z "},"»":{"ha":884,"x_min":-35,"x_max":861,"o":"m -35 25 l -5 246 l 278 442 l 51 638 l 82 859 l 419 568 l 384 316 l -35 25 m 407 25 l 437 246 l 720 442 l 492 638 l 524 859 l 861 568 l 826 316 l 407 25 z "},"*":{"ha":884,"x_min":63,"x_max":856,"o":"m 694 330 l 490 558 l 508 253 l 303 253 l 408 557 l 141 330 l 63 506 l 391 633 l 98 759 l 226 936 l 429 707 l 409 1010 l 614 1010 l 511 707 l 779 936 l 856 759 l 527 633 l 821 506 l 694 330 z "},"†":{"ha":884,"x_min":10,"x_max":843,"o":"m 229 -253 l 346 581 l 264 581 l 187 303 l 10 303 l 111 758 l 370 758 l 393 1010 l 633 1010 l 585 758 l 843 758 l 818 303 l 641 303 l 643 581 l 561 581 l 443 -253 l 229 -253 z "},"‡":{"ha":884,"x_min":-6,"x_max":856,"o":"m 216 -253 l 255 -38 l -6 -38 l 1 290 l 165 290 l 194 139 l 283 139 l 351 619 l 263 619 l 191 467 l 27 467 l 111 795 l 372 795 l 393 1010 l 633 1010 l 595 795 l 856 795 l 847 467 l 683 467 l 654 619 l 566 619 l 497 139 l 586 139 l 658 290 l 822 290 l 739 -38 l 477 -38 l 456 -253 l 216 -253 z "},".":{"ha":884,"x_min":191,"x_max":604,"o":"m 371 -13 q 238 25 285 -13 q 199 128 191 62 l 215 237 q 282 342 225 304 q 426 380 340 380 q 557 342 510 380 q 593 237 604 304 l 578 128 q 511 25 569 62 q 371 -13 453 -13 z "},",":{"ha":884,"x_min":121,"x_max":653,"o":"m 121 -189 l 295 379 l 653 379 l 282 -189 l 121 -189 z "},":":{"ha":884,"x_min":210,"x_max":646,"o":"m 441 487 q 321 520 364 487 q 287 612 279 553 l 297 687 q 358 781 306 747 q 487 814 410 814 q 605 781 563 814 q 638 687 646 747 l 628 612 q 567 520 620 553 q 441 487 514 487 m 371 -5 q 252 28 294 -5 q 217 120 210 61 l 229 194 q 289 289 236 255 q 418 322 341 322 q 535 289 494 322 q 569 194 577 255 l 558 120 q 497 28 551 61 q 371 -5 444 -5 z "},";":{"ha":884,"x_min":148,"x_max":646,"o":"m 441 487 q 321 520 364 487 q 287 612 279 553 l 297 687 q 358 781 306 747 q 487 814 410 814 q 605 781 563 814 q 638 687 646 747 l 628 612 q 567 520 620 553 q 441 487 514 487 m 148 -162 l 304 351 l 626 351 l 292 -162 l 148 -162 z "},"…":{"ha":884,"x_min":-28,"x_max":821,"o":"m 672 -11 q 601 15 626 -11 q 585 95 576 40 l 609 271 q 648 354 616 327 q 726 380 681 380 q 797 354 773 380 q 813 271 821 327 l 789 95 q 748 15 780 40 q 672 -11 716 -11 m 370 -11 q 299 15 324 -11 q 283 95 274 40 l 307 271 q 347 354 314 327 q 424 380 379 380 q 495 354 471 380 q 511 271 519 327 l 487 95 q 446 15 479 40 q 370 -11 414 -11 m 69 -11 q -3 15 23 -11 q -19 95 -28 40 l 5 271 q 45 354 13 327 q 124 380 77 380 q 193 354 169 380 q 210 271 217 327 l 186 95 q 145 15 177 40 q 69 -11 112 -11 z "},"!":{"ha":884,"x_min":192,"x_max":658,"o":"m 304 379 l 355 1010 l 658 1010 l 532 379 l 304 379 m 371 -13 q 236 13 280 -13 q 199 93 192 39 l 205 129 q 264 211 213 184 q 405 237 314 237 q 540 211 496 237 q 574 129 583 184 l 569 93 q 511 13 562 39 q 371 -13 461 -13 z "},"¡":{"ha":884,"x_min":227,"x_max":693,"o":"m 515 1023 q 650 997 606 1023 q 686 917 693 971 l 681 881 q 622 799 673 826 q 480 773 571 773 q 346 799 389 773 q 311 881 303 826 l 316 917 q 374 997 323 971 q 515 1023 426 1023 m 581 631 l 530 0 l 227 0 l 354 631 l 581 631 z "}}}
